<svg width="486" height="527" viewBox="0 0 486 527" fill="none" xmlns="http://www.w3.org/2000/svg">
<g clip-path="url(#clip0)">
<path d="M184.358 519.907C80.3865 504.777 17.2765 430.817 3.09448 342.795C-5.68064 288.683 4.06949 229.319 34.029 174.94C112.828 32.0047 311.997 28.7117 311.997 28.7117C426.605 23.0157 404.002 217.304 397.355 259.224C393.809 281.385 416.146 311.022 439.28 342.795C459.755 370.92 481.028 400.824 485.46 428.681C495.033 487.866 352.149 544.346 184.358 519.907Z" fill="white"/>
<path d="M184.36 521.153C80.3877 506.022 17.2777 432.063 3.0957 344.041H439.37C459.934 372.165 481.118 402.07 485.55 429.927C495.034 489.112 352.151 545.628 184.36 521.153Z" fill="#E61B00"/>
<path d="M184.36 521.153C80.3877 506.022 17.2777 432.063 3.0957 344.041H439.37C459.934 372.165 481.118 402.07 485.55 429.927C495.034 489.112 352.151 545.628 184.36 521.153Z" fill="url(#paint0_linear)"/>
<path opacity="0.18" d="M185.599 445.413C180.369 445.324 174.076 444.612 171.683 439.895C170.53 437.581 170.619 434.822 170.265 432.152C166.719 408.744 125.946 409.812 119.209 387.117C118.677 385.159 118.412 382.756 119.83 381.243C121.071 379.908 123.021 379.641 124.793 379.552L184.092 375.369C186.485 366.558 177.09 359.082 168.492 356.323C129.757 343.863 85.7929 369.495 47.6787 354.988C45.64 354.187 43.5127 353.208 42.5377 351.25C39.79 345.643 48.5651 341.727 54.8584 341.638L204.833 339.235C208.024 339.146 211.215 339.146 214.229 340.125C218.838 341.638 222.383 345.376 225.752 348.936C239.934 364.155 254.648 379.641 273.261 388.986C307.387 406.074 348.16 399.755 385.654 406.964C396.468 409.1 409.763 416.576 407.104 427.257C398.595 460.899 335.396 448.261 312.705 447.816L185.599 445.413Z" fill="#1D2741"/>
<path d="M353.833 73.1233L353.922 102.405L365.356 132.487L374.663 128.037C375.825 127.478 377.153 127.378 378.385 127.758C379.616 128.137 380.661 128.967 381.311 130.084L383.793 134.445C384.236 135.204 384.526 136.044 384.646 136.916C384.765 137.788 384.712 138.675 384.49 139.527C384.268 140.378 383.88 141.178 383.35 141.879C382.82 142.579 382.157 143.169 381.399 143.612L381.133 143.79C374.397 147.35 360.747 155.894 358.176 155.894C354.276 155.894 342.931 138.272 342.931 138.272L353.833 73.1233Z" fill="#E61B00"/>
<path d="M378.295 127.77C378.295 127.77 374.129 131.063 376.079 134.623C378.029 138.183 384.677 138.361 384.677 138.361C384.677 138.361 390.084 128.66 378.295 127.77Z" fill="#E61B00"/>
<path d="M381.219 107.833C383.287 108.046 385.333 108.433 387.335 108.99L396.554 111.215C397.02 111.293 397.452 111.51 397.795 111.838C398.326 112.55 397.529 113.618 396.731 113.885C394.072 114.953 390.704 112.995 388.31 114.597C386.981 115.487 386.538 117.267 385.474 118.424C384.144 120.026 381.928 120.738 379.801 120.916C377.692 120.987 375.59 121.195 373.508 121.539C370.406 122.251 367.126 124.298 364.29 122.696C364.014 122.538 363.773 122.326 363.581 122.073C363.226 121.45 363.669 120.649 364.024 119.937C365.008 118.081 365.438 115.98 365.265 113.885C365.176 110.948 365.087 111.215 368.012 110.147C372.267 108.723 376.699 107.477 381.219 107.833Z" fill="#F1B2A4"/>
<path d="M385.211 259.758L384.945 265.899L395.67 265.81L396.38 257.355L385.211 259.758Z" fill="#F1B2A4"/>
<path d="M384.944 265.899L395.669 265.81L398.949 270.082C398.949 270.082 413.22 275.244 415.879 282.275C418.538 289.306 418.006 292.955 418.006 292.955L380.424 280.584L384.944 265.899Z" fill="#E61B00"/>
<path d="M306.676 163.103C306.676 163.103 382.106 163.637 388.311 167.998C405.507 180.013 400.188 257.799 400.188 257.799L384.854 262.249L372.445 196.211L306.676 163.103Z" fill="#25233A"/>
<path d="M215.647 253.26H152.271V297.404H215.647V253.26Z" fill="#E61B00"/>
<path d="M178.332 254.595H156.35V297.138H178.332V254.595Z" fill="url(#paint1_linear)"/>
<path d="M211.306 297.405H147.93V346.533H211.306V297.405Z" fill="#E61B00"/>
<path d="M211.306 297.405H147.93V346.533H211.306V297.405Z" fill="url(#paint2_linear)"/>
<path d="M190.209 253.26H178.774V262.249H190.209V253.26Z" fill="url(#paint3_linear)"/>
<path d="M184.004 297.227H172.569V306.216H184.004V297.227Z" fill="url(#paint4_linear)"/>
<path d="M185.331 262.25H184.444V297.227H185.331V262.25Z" fill="url(#paint5_linear)"/>
<path d="M179.215 306.216H178.329V341.193H179.215V306.216Z" fill="url(#paint6_linear)"/>
<path d="M228.675 141.742H153.156V194.342H228.675V141.742Z" fill="#E61B00"/>
<path d="M228.675 141.742H153.156V194.342H228.675V141.742Z" fill="url(#paint7_linear)"/>
<path d="M223.449 194.253H147.93V252.816H223.449V194.253Z" fill="#E61B00"/>
<path d="M223.449 194.253H147.93V252.816H223.449V194.253Z" fill="url(#paint8_linear)"/>
<path d="M198.362 141.742H184.712V152.423H198.362V141.742Z" fill="url(#paint9_linear)"/>
<path d="M190.916 194.075H177.266V204.755H190.916V194.075Z" fill="url(#paint10_linear)"/>
<path d="M192.511 152.422H191.447V194.075H192.511V152.422Z" fill="url(#paint11_linear)"/>
<path d="M185.244 204.755H184.181V246.407H185.244V204.755Z" fill="url(#paint12_linear)"/>
<path d="M156.436 217.215H70.2803V277.202H156.436V217.215Z" fill="#E61B00"/>
<path d="M156.347 252.815V277.113H70.2803V217.215H147.927V252.815H156.347Z" fill="url(#paint13_linear)"/>
<path d="M156.35 217.215H147.93V252.904H156.35V217.215Z" fill="url(#paint14_linear)"/>
<path d="M133.834 277.113H47.6777V343.952H133.834V277.113Z" fill="#E61B00"/>
<path d="M133.834 277.113H47.6777V343.952H133.834V277.113Z" fill="url(#paint15_linear)"/>
<path d="M121.69 217.215H106.179V229.408H121.69V217.215Z" fill="url(#paint16_linear)"/>
<path d="M96.784 276.935H81.2725V289.128H96.784V276.935Z" fill="url(#paint17_linear)"/>
<path d="M115.22 229.408H113.979V276.934H115.22V229.408Z" fill="url(#paint18_linear)"/>
<path d="M90.2236 289.128H89.0713V336.654H90.2236V289.128Z" fill="url(#paint19_linear)"/>
<path d="M152.27 90.2112H66.1143V150.198H152.27V90.2112Z" fill="#E61B00"/>
<path d="M152.27 90.2112H66.1143V150.198H152.27V90.2112Z" fill="url(#paint20_linear)"/>
<path d="M146.333 150.198H60.1777V217.037H146.333V150.198Z" fill="#E61B00"/>
<path d="M146.333 150.198H60.1777V217.037H146.333V150.198Z" fill="url(#paint21_linear)"/>
<path d="M117.612 90.2112H102.101V102.404H117.612V90.2112Z" fill="url(#paint22_linear)"/>
<path d="M109.19 149.931H93.6787V162.124H109.19V149.931Z" fill="url(#paint23_linear)"/>
<path d="M111.055 102.404H109.902V149.93H111.055V102.404Z" fill="url(#paint24_linear)"/>
<path d="M102.635 162.124H101.482V209.65H102.635V162.124Z" fill="url(#paint25_linear)"/>
<path opacity="0.46" d="M146.331 181.17V216.948C146.331 216.948 133.389 200.305 133.921 191.316C134.453 182.327 146.331 181.17 146.331 181.17Z" fill="url(#paint26_linear)"/>
<path d="M201.821 230.298L201.201 252.815H147.93V194.253H153.159V187.222L161.048 194.253L184.182 214.634L185.157 215.613L201.821 230.298Z" fill="url(#paint27_linear)"/>
<path d="M376.788 198.614H238.07V295.18H376.788V198.614Z" fill="#E61B00"/>
<path d="M376.788 198.614H238.07V295.18H376.788V198.614Z" fill="url(#paint28_linear)"/>
<path d="M340.534 295.18H201.816V402.782H340.534V295.18Z" fill="#E61B00"/>
<path d="M340.534 295.18H201.816V402.782H340.534V295.18Z" fill="url(#paint29_linear)"/>
<path d="M321.037 198.614H296.041V218.283H321.037V198.614Z" fill="url(#paint30_linear)"/>
<path d="M280.797 294.735H255.801V314.404H280.797V294.735Z" fill="url(#paint31_linear)"/>
<path d="M310.491 218.194H308.541V294.735H310.491V218.194Z" fill="url(#paint32_linear)"/>
<path d="M270.424 314.404H268.474V390.945H270.424V314.404Z" fill="url(#paint33_linear)"/>
<path d="M197.032 402.782H177.975V219.708C177.978 218.451 178.229 217.206 178.712 216.047C179.196 214.887 179.902 213.835 180.792 212.95C181.681 212.065 182.736 211.366 183.895 210.891C185.054 210.416 186.296 210.176 187.547 210.185C190.067 210.198 192.48 211.203 194.27 212.984C196.06 214.764 197.083 217.178 197.12 219.708V402.782H197.032Z" fill="#E61B00"/>
<path d="M191.626 226.382C189.531 228.004 186.882 228.728 184.257 228.394C181.633 228.06 179.247 226.697 177.621 224.602L152.271 192.028C150.655 189.924 149.935 187.264 150.267 184.629C150.599 181.994 151.957 179.598 154.043 177.966C156.125 176.329 158.768 175.588 161.394 175.905C164.019 176.222 166.412 177.571 168.048 179.657L193.398 212.231C194.218 213.273 194.822 214.468 195.177 215.747C195.532 217.025 195.63 218.362 195.465 219.679C195.3 220.996 194.875 222.267 194.216 223.418C193.557 224.569 192.676 225.576 191.626 226.382Z" fill="#E61B00"/>
<path d="M421.463 411.682C421.463 414.042 420.529 416.306 418.867 417.975C417.204 419.644 414.95 420.582 412.599 420.582H196.057C191.346 420.586 186.825 418.715 183.486 415.379C180.146 412.042 178.26 407.512 178.241 402.781H412.51C413.682 402.77 414.844 402.991 415.93 403.433C417.015 403.875 418.003 404.529 418.835 405.357C419.668 406.184 420.329 407.169 420.78 408.255C421.231 409.341 421.463 410.505 421.463 411.682Z" fill="#E61B00"/>
<path d="M421.465 411.682H196.06C192.937 411.688 189.868 410.869 187.161 409.307C184.453 407.744 182.203 405.494 180.637 402.782H412.513C413.683 402.776 414.842 403.002 415.925 403.446C417.008 403.89 417.993 404.544 418.825 405.37C419.656 406.197 420.317 407.179 420.77 408.262C421.223 409.345 421.459 410.507 421.465 411.682Z" fill="#E61B00"/>
<path d="M197.032 402.782H177.975V219.708C177.978 218.451 178.229 217.206 178.712 216.047C179.196 214.887 179.902 213.835 180.792 212.95C181.681 212.065 182.736 211.366 183.895 210.891C185.054 210.416 186.296 210.176 187.547 210.185C190.067 210.198 192.48 211.203 194.27 212.984C196.06 214.764 197.083 217.178 197.12 219.708V402.782H197.032Z" fill="url(#paint34_linear)"/>
<path d="M191.626 226.382C189.531 228.004 186.882 228.728 184.257 228.394C181.633 228.06 179.247 226.697 177.621 224.602L152.271 192.028C150.655 189.924 149.935 187.264 150.267 184.629C150.599 181.994 151.957 179.598 154.043 177.966C156.125 176.329 158.768 175.588 161.394 175.905C164.019 176.222 166.412 177.571 168.048 179.657L193.398 212.231C194.218 213.273 194.822 214.468 195.177 215.747C195.532 217.025 195.63 218.362 195.465 219.679C195.3 220.996 194.875 222.267 194.216 223.418C193.557 224.569 192.676 225.576 191.626 226.382Z" fill="url(#paint35_linear)"/>
<path d="M421.463 411.682C421.463 414.042 420.529 416.306 418.867 417.975C417.204 419.644 414.95 420.582 412.599 420.582H196.057C191.346 420.586 186.825 418.715 183.486 415.379C180.146 412.042 178.26 407.512 178.241 402.781H412.51C413.682 402.77 414.844 402.991 415.93 403.433C417.015 403.875 418.003 404.529 418.835 405.357C419.668 406.184 420.329 407.169 420.78 408.255C421.231 409.341 421.463 410.505 421.463 411.682Z" fill="url(#paint36_linear)"/>
<path d="M421.465 411.682H196.06C192.937 411.688 189.868 410.869 187.161 409.307C184.453 407.744 182.203 405.494 180.637 402.782H412.513C413.683 402.776 414.842 403.002 415.925 403.446C417.008 403.89 417.993 404.544 418.825 405.37C419.656 406.197 420.317 407.179 420.77 408.262C421.223 409.345 421.459 410.507 421.465 411.682Z" fill="url(#paint37_linear)"/>
<path d="M227.38 451.694C233.126 445.924 233.126 436.57 227.38 430.8C221.634 425.031 212.317 425.031 206.571 430.8C200.825 436.57 200.825 445.924 206.571 451.694C212.317 457.464 221.634 457.464 227.38 451.694Z" fill="#E61B00"/>
<path opacity="0.57" d="M217.066 446.125C219.513 446.125 221.498 444.133 221.498 441.675C221.498 439.217 219.513 437.225 217.066 437.225C214.618 437.225 212.634 439.217 212.634 441.675C212.634 444.133 214.618 446.125 217.066 446.125Z" fill="#1D2741"/>
<path d="M220.788 439.806H211.215V420.582H230.449L220.788 439.806Z" fill="url(#paint38_linear)"/>
<path d="M379.003 456.004C387.129 456.004 393.717 449.39 393.717 441.23C393.717 433.071 387.129 426.456 379.003 426.456C370.877 426.456 364.289 433.071 364.289 441.23C364.289 449.39 370.877 456.004 379.003 456.004Z" fill="#E61B00"/>
<path d="M231.514 443.617C232.816 435.563 227.369 427.974 219.348 426.667C211.327 425.359 203.769 430.829 202.467 438.883C201.165 446.937 206.612 454.526 214.633 455.833C222.654 457.14 230.212 451.671 231.514 443.617Z" fill="url(#paint39_linear)"/>
<path d="M379.003 456.004C387.129 456.004 393.717 449.39 393.717 441.23C393.717 433.071 387.129 426.456 379.003 426.456C370.877 426.456 364.289 433.071 364.289 441.23C364.289 449.39 370.877 456.004 379.003 456.004Z" fill="url(#paint40_linear)"/>
<path opacity="0.57" d="M374.485 441.675C374.485 442.555 374.745 443.416 375.232 444.147C375.719 444.879 376.411 445.45 377.221 445.786C378.031 446.123 378.922 446.211 379.782 446.04C380.642 445.868 381.431 445.444 382.051 444.822C382.671 444.199 383.093 443.407 383.264 442.543C383.435 441.68 383.347 440.785 383.012 439.972C382.676 439.159 382.108 438.464 381.379 437.975C380.651 437.486 379.794 437.225 378.917 437.225C377.742 437.225 376.615 437.694 375.783 438.528C374.952 439.363 374.485 440.495 374.485 441.675Z" fill="#1D2741"/>
<path d="M375.196 439.806H384.857V420.582H365.623L375.196 439.806Z" fill="#E61B00"/>
<path d="M220.788 439.806H211.215V420.582H230.449L220.788 439.806Z" fill="#E61B00"/>
<path d="M220.788 439.806H211.215V420.582H230.449L220.788 439.806Z" fill="url(#paint41_linear)"/>
<path d="M375.196 439.806H384.857V420.582H365.623L375.196 439.806Z" fill="url(#paint42_linear)"/>
<path opacity="0.2" d="M250.391 201.017H238.07V294.824H250.391V201.017Z" fill="url(#paint43_linear)"/>
<path opacity="0.2" d="M214.495 296.248H202.175V400.29H214.495V296.248Z" fill="url(#paint44_linear)"/>
<path d="M292.228 162.124C292.228 162.124 287.53 190.124 307.474 196.354C327.417 202.584 376.788 198.579 376.788 198.579L422.171 252.513L433.428 237.294L392.477 180.868C384.698 172.577 374.099 167.525 362.783 166.716L292.228 162.124Z" fill="#3F3D56"/>
<path d="M422.263 252.548L426.96 256.464L433.431 247.92L429.62 242.58L422.263 252.548Z" fill="#F1B2A4"/>
<path d="M426.956 256.465L433.427 247.921H438.745C438.745 247.921 451.509 239.733 458.777 241.958C466.045 244.183 468.527 246.853 468.527 246.853L435.731 269.103L426.956 256.465Z" fill="#E61B00"/>
<path d="M384.944 265.899L395.669 265.81L398.949 270.082C398.949 270.082 413.22 275.244 415.879 282.275C418.538 289.306 418.006 292.955 418.006 292.955L380.424 280.584L384.944 265.899Z" fill="url(#paint45_linear)"/>
<path d="M426.956 256.465L433.427 247.921H438.745C438.745 247.921 451.509 239.733 458.777 241.958C466.045 244.183 468.527 246.853 468.527 246.853L435.731 269.103L426.956 256.465Z" fill="url(#paint46_linear)"/>
<path d="M342.044 163.815H292.053L291.521 163.548C289.925 162.658 285.848 159.276 286.291 150.198C286.646 143.612 292.496 119.492 297.282 100.624C300.651 87.1851 303.576 76.327 303.576 76.327C303.576 76.327 309.78 59.9509 320.151 55.6789C324.051 54.0769 329.015 51.4068 334.421 52.3858C343.374 54.1659 352.592 62.2649 353.922 73.212C354.985 82.3791 342.044 163.815 342.044 163.815Z" fill="#E61B00"/>
<path d="M342.044 163.815H292.053L291.521 163.548C289.925 162.658 285.848 159.276 286.291 150.198C286.646 143.612 292.496 119.492 297.282 100.624C300.651 87.1851 303.576 76.327 303.576 76.327C303.576 76.327 309.78 59.9509 320.151 55.6789C324.051 54.0769 329.015 51.4068 334.421 52.3858C343.374 54.1659 352.592 62.2649 353.922 73.212C354.985 82.3791 342.044 163.815 342.044 163.815Z" fill="url(#paint47_linear)"/>
<path d="M309.514 123.373C309.514 123.373 298.169 153.455 306.678 163.067L291.521 163.512C289.925 162.622 285.848 159.24 286.291 150.162C286.646 143.576 292.496 119.457 297.282 100.589L317.314 73.1233L309.514 123.373Z" fill="url(#paint48_linear)"/>
<path d="M334.332 52.2969L339.65 37.6117C339.65 37.6117 345.855 14.0265 360.126 12.7805C374.396 11.5345 386.362 21.9476 380.335 38.5017C374.308 55.0559 371.294 57.6369 365.444 58.7049C359.594 59.7729 354.098 57.0139 354.098 57.0139L348.957 64.846C349.046 64.846 347.362 69.385 334.332 52.2969Z" fill="#F1B2A4"/>
<path d="M309.159 69.2959C309.159 69.2959 284.873 104.54 286.202 113.707C287.798 124.476 333.712 126.167 352.503 126.701C354.919 126.802 357.298 126.084 359.259 124.664C361.22 123.243 362.649 121.203 363.317 118.869V118.78C364.132 115.995 363.815 112.999 362.437 110.447C361.058 107.896 358.729 105.996 355.96 105.163C355.438 105.002 354.905 104.883 354.364 104.807L322.898 100.535L337.701 72.2329C341.512 60.2178 327.33 50.4277 317.58 58.3488C314.098 61.4199 311.239 65.1369 309.159 69.2959Z" fill="#E61B00"/>
<path d="M366.064 110.325L362.164 109.88L359.505 124.476H363.848L366.064 110.325Z" fill="#E61B00"/>
<path d="M378.295 127.77C378.295 127.77 374.129 131.063 376.079 134.623C378.029 138.183 384.677 138.361 384.677 138.361C384.677 138.361 390.084 128.66 378.295 127.77Z" fill="url(#paint49_linear)"/>
<path d="M366.064 110.325L362.164 109.88L359.505 124.476H363.848L366.064 110.325Z" fill="url(#paint50_linear)"/>
<path d="M352.68 33.8738C351.439 33.3398 352.503 31.2038 351.705 30.1358C350.908 29.0677 349.489 29.6908 348.603 30.4918C347.732 31.3202 347.099 32.3691 346.772 33.5281C346.444 34.6871 346.434 35.9134 346.742 37.0778C347.038 37.8108 347.16 38.6033 347.096 39.3918C346.653 40.9938 344.526 41.1718 342.93 40.8158C341.335 40.4598 339.562 39.7478 338.232 40.6378C337.08 38.6798 337.878 36.1878 338.764 34.1408C340.336 30.419 342.235 26.8449 344.437 23.4607C344.968 22.7507 345.332 21.9291 345.501 21.0577C345.678 19.7227 344.88 18.5657 344.437 17.4087C342.132 11.8016 345.323 4.94855 350.642 2.01153C355.96 -0.925498 362.608 -0.391494 368.103 2.01153C370.142 2.90153 372.092 4.05854 374.219 4.50355C377.41 5.12655 380.69 4.23654 383.969 4.23654C386.506 4.32559 388.985 5.01735 391.204 6.25504C393.423 7.49273 395.318 9.24109 396.733 11.3566C398.097 13.5238 398.929 15.9853 399.16 18.5383C399.391 21.0914 399.015 23.6631 398.063 26.0417C396.91 28.8007 394.074 31.5598 391.326 30.5808C390.174 30.2248 389.288 29.2457 388.224 28.6227C387.16 27.9997 385.565 27.9107 384.856 28.8897C384.7 29.1427 384.522 29.381 384.324 29.6017C383.349 30.3138 382.551 28.6227 382.019 27.6437C380.778 25.2407 377.41 25.3297 374.751 25.4187C372.166 25.4769 369.582 25.2681 367.04 24.7957C365.178 24.4397 362.696 23.1937 360.835 23.7277C358.53 24.0837 352.946 33.9628 352.68 33.8738Z" fill="#3F3D56"/>
<path d="M419.247 98.8442L421.551 101.603L369.078 139.607L367.039 136.67L419.247 98.8442Z" fill="url(#paint51_linear)"/>
<path d="M378.296 133.021C378.296 133.021 379.182 135.958 383.791 134.445C388.401 132.932 396.644 128.037 397.353 126.791C398.062 125.545 405.153 118.158 404.71 113.974L378.296 133.021Z" fill="#F1B2A4"/>
</g>
<defs>
<linearGradient id="paint0_linear" x1="81.0702" y1="230.93" x2="580.585" y2="733.478" gradientUnits="userSpaceOnUse">
<stop stop-opacity="0"/>
<stop offset="0.91" stop-opacity="0.8"/>
<stop offset="1"/>
</linearGradient>
<linearGradient id="paint1_linear" x1="5360.4" y1="20631.1" x2="6824.69" y2="20842.8" gradientUnits="userSpaceOnUse">
<stop stop-opacity="0"/>
<stop offset="0.91" stop-opacity="0.8"/>
<stop offset="1"/>
</linearGradient>
<linearGradient id="paint2_linear" x1="16462.2" y1="26167.6" x2="18218.1" y2="29976.7" gradientUnits="userSpaceOnUse">
<stop stop-opacity="0"/>
<stop offset="0.91" stop-opacity="0.8"/>
<stop offset="1"/>
</linearGradient>
<linearGradient id="paint3_linear" x1="178.757" y1="257.755" x2="190.173" y2="257.755" gradientUnits="userSpaceOnUse">
<stop stop-color="#183866"/>
<stop offset="1" stop-color="#1A7FC1"/>
</linearGradient>
<linearGradient id="paint4_linear" x1="3263.92" y1="4698.18" x2="2783.08" y2="5026.67" gradientUnits="userSpaceOnUse">
<stop stop-opacity="0"/>
<stop offset="0.91" stop-opacity="0.8"/>
<stop offset="1"/>
</linearGradient>
<linearGradient id="paint5_linear" x1="198.484" y1="276.632" x2="181.849" y2="280.403" gradientUnits="userSpaceOnUse">
<stop stop-color="#68E1FD"/>
<stop offset="1" stop-color="#69B9EB"/>
</linearGradient>
<linearGradient id="paint6_linear" x1="423.875" y1="2489.85" x2="406.385" y2="2489.75" gradientUnits="userSpaceOnUse">
<stop stop-color="#68E1FD"/>
<stop offset="1" stop-color="#69B9EB"/>
</linearGradient>
<linearGradient id="paint7_linear" x1="171.664" y1="146.771" x2="240.87" y2="222.585" gradientUnits="userSpaceOnUse">
<stop stop-color="white" stop-opacity="0"/>
<stop offset="0.09" stop-color="white" stop-opacity="0.05"/>
<stop offset="0.24" stop-color="white" stop-opacity="0.17"/>
<stop offset="0.45" stop-color="white" stop-opacity="0.37"/>
<stop offset="0.69" stop-color="white" stop-opacity="0.65"/>
<stop offset="0.98" stop-color="white"/>
</linearGradient>
<linearGradient id="paint8_linear" x1="17769.6" y1="12733.1" x2="22854.3" y2="5005.76" gradientUnits="userSpaceOnUse">
<stop stop-color="white" stop-opacity="0"/>
<stop offset="0.09" stop-color="white" stop-opacity="0.05"/>
<stop offset="0.24" stop-color="white" stop-opacity="0.17"/>
<stop offset="0.45" stop-color="white" stop-opacity="0.37"/>
<stop offset="0.69" stop-color="white" stop-opacity="0.65"/>
<stop offset="0.98" stop-color="white"/>
</linearGradient>
<linearGradient id="paint9_linear" x1="3942.38" y1="-6421.41" x2="3877.87" y2="3364.27" gradientUnits="userSpaceOnUse">
<stop stop-opacity="0"/>
<stop offset="0.91" stop-opacity="0.8"/>
<stop offset="1"/>
</linearGradient>
<linearGradient id="paint10_linear" x1="3827.1" y1="-6474.39" x2="3762.59" y2="3311.2" gradientUnits="userSpaceOnUse">
<stop stop-opacity="0"/>
<stop offset="0.91" stop-opacity="0.8"/>
<stop offset="1"/>
</linearGradient>
<linearGradient id="paint11_linear" x1="433.449" y1="13941.5" x2="-3116.19" y2="17366.9" gradientUnits="userSpaceOnUse">
<stop stop-opacity="0"/>
<stop offset="0.91" stop-opacity="0.8"/>
<stop offset="1"/>
</linearGradient>
<linearGradient id="paint12_linear" x1="489.042" y1="7424.77" x2="464.038" y2="7424.62" gradientUnits="userSpaceOnUse">
<stop stop-color="#68E1FD"/>
<stop offset="1" stop-color="#69B9EB"/>
</linearGradient>
<linearGradient id="paint13_linear" x1="12816.8" y1="11362.9" x2="16753.4" y2="4714.05" gradientUnits="userSpaceOnUse">
<stop stop-color="white" stop-opacity="0"/>
<stop offset="0.09" stop-color="white" stop-opacity="0.05"/>
<stop offset="0.24" stop-color="white" stop-opacity="0.17"/>
<stop offset="0.45" stop-color="white" stop-opacity="0.37"/>
<stop offset="0.69" stop-color="white" stop-opacity="0.65"/>
<stop offset="0.98" stop-color="white"/>
</linearGradient>
<linearGradient id="paint14_linear" x1="1939.23" y1="6669.13" x2="2696.21" y2="6459.2" gradientUnits="userSpaceOnUse">
<stop stop-color="white" stop-opacity="0"/>
<stop offset="0.09" stop-color="white" stop-opacity="0.05"/>
<stop offset="0.24" stop-color="white" stop-opacity="0.17"/>
<stop offset="0.45" stop-color="white" stop-opacity="0.37"/>
<stop offset="0.69" stop-color="white" stop-opacity="0.65"/>
<stop offset="0.98" stop-color="white"/>
</linearGradient>
<linearGradient id="paint15_linear" x1="12490.3" y1="6447.74" x2="17803.7" y2="-629.723" gradientUnits="userSpaceOnUse">
<stop stop-color="white" stop-opacity="0"/>
<stop offset="0.09" stop-color="white" stop-opacity="0.05"/>
<stop offset="0.24" stop-color="white" stop-opacity="0.17"/>
<stop offset="0.45" stop-color="white" stop-opacity="0.37"/>
<stop offset="0.69" stop-color="white" stop-opacity="0.65"/>
<stop offset="0.98" stop-color="white"/>
</linearGradient>
<linearGradient id="paint16_linear" x1="3036.79" y1="-7448.7" x2="2962.89" y2="3723.3" gradientUnits="userSpaceOnUse">
<stop stop-opacity="0"/>
<stop offset="0.91" stop-opacity="0.8"/>
<stop offset="1"/>
</linearGradient>
<linearGradient id="paint17_linear" x1="2584.85" y1="-7511.21" x2="2510.86" y2="3660.64" gradientUnits="userSpaceOnUse">
<stop stop-opacity="0"/>
<stop offset="0.91" stop-opacity="0.8"/>
<stop offset="1"/>
</linearGradient>
<linearGradient id="paint18_linear" x1="297.571" y1="19395.7" x2="-4414.28" y2="23739.5" gradientUnits="userSpaceOnUse">
<stop stop-opacity="0"/>
<stop offset="0.91" stop-opacity="0.8"/>
<stop offset="1"/>
</linearGradient>
<linearGradient id="paint19_linear" x1="221.951" y1="22866.8" x2="-1834.59" y2="30271.4" gradientUnits="userSpaceOnUse">
<stop stop-opacity="0"/>
<stop offset="0.91" stop-opacity="0.8"/>
<stop offset="1"/>
</linearGradient>
<linearGradient id="paint20_linear" x1="11554.1" y1="19435.2" x2="19352.2" y2="11594.7" gradientUnits="userSpaceOnUse">
<stop stop-color="white" stop-opacity="0"/>
<stop offset="0.09" stop-color="white" stop-opacity="0.05"/>
<stop offset="0.24" stop-color="white" stop-opacity="0.17"/>
<stop offset="0.45" stop-color="white" stop-opacity="0.37"/>
<stop offset="0.69" stop-color="white" stop-opacity="0.65"/>
<stop offset="0.98" stop-color="white"/>
</linearGradient>
<linearGradient id="paint21_linear" x1="10242.1" y1="17796.5" x2="18938.9" y2="8632.8" gradientUnits="userSpaceOnUse">
<stop stop-color="white" stop-opacity="0"/>
<stop offset="0.09" stop-color="white" stop-opacity="0.05"/>
<stop offset="0.24" stop-color="white" stop-opacity="0.17"/>
<stop offset="0.45" stop-color="white" stop-opacity="0.37"/>
<stop offset="0.69" stop-color="white" stop-opacity="0.65"/>
<stop offset="0.98" stop-color="white"/>
</linearGradient>
<linearGradient id="paint22_linear" x1="2942.75" y1="-7322.3" x2="2868.75" y2="3849.68" gradientUnits="userSpaceOnUse">
<stop stop-opacity="0"/>
<stop offset="0.91" stop-opacity="0.8"/>
<stop offset="1"/>
</linearGradient>
<linearGradient id="paint23_linear" x1="2795.65" y1="-7382.87" x2="2721.75" y2="3788.99" gradientUnits="userSpaceOnUse">
<stop stop-opacity="0"/>
<stop offset="0.91" stop-opacity="0.8"/>
<stop offset="1"/>
</linearGradient>
<linearGradient id="paint24_linear" x1="268.998" y1="13286" x2="3882.22" y2="20882.4" gradientUnits="userSpaceOnUse">
<stop stop-opacity="0"/>
<stop offset="0.91" stop-opacity="0.8"/>
<stop offset="1"/>
</linearGradient>
<linearGradient id="paint25_linear" x1="250.623" y1="16117" x2="-3553.59" y2="25643" gradientUnits="userSpaceOnUse">
<stop stop-opacity="0"/>
<stop offset="0.91" stop-opacity="0.8"/>
<stop offset="1"/>
</linearGradient>
<linearGradient id="paint26_linear" x1="120.954" y1="197.875" x2="196.075" y2="201.353" gradientUnits="userSpaceOnUse">
<stop stop-opacity="0"/>
<stop offset="0.84" stop-opacity="0.66"/>
<stop offset="0.91" stop-opacity="0.8"/>
<stop offset="1"/>
</linearGradient>
<linearGradient id="paint27_linear" x1="14360.9" y1="27201.3" x2="10222.2" y2="32594.4" gradientUnits="userSpaceOnUse">
<stop stop-opacity="0"/>
<stop offset="0.84" stop-opacity="0.66"/>
<stop offset="0.91" stop-opacity="0.8"/>
<stop offset="1"/>
</linearGradient>
<linearGradient id="paint28_linear" x1="52563.8" y1="18602.1" x2="60066.3" y2="2118.67" gradientUnits="userSpaceOnUse">
<stop stop-color="white" stop-opacity="0"/>
<stop offset="0.09" stop-color="white" stop-opacity="0.05"/>
<stop offset="0.24" stop-color="white" stop-opacity="0.17"/>
<stop offset="0.45" stop-color="white" stop-opacity="0.37"/>
<stop offset="0.69" stop-color="white" stop-opacity="0.65"/>
<stop offset="0.98" stop-color="white"/>
</linearGradient>
<linearGradient id="paint29_linear" x1="40110.9" y1="3581.34" x2="61820.3" y2="3581.34" gradientUnits="userSpaceOnUse">
<stop stop-color="white" stop-opacity="0"/>
<stop offset="0.09" stop-color="white" stop-opacity="0.05"/>
<stop offset="0.24" stop-color="white" stop-opacity="0.17"/>
<stop offset="0.45" stop-color="white" stop-opacity="0.37"/>
<stop offset="0.69" stop-color="white" stop-opacity="0.65"/>
<stop offset="0.98" stop-color="white"/>
</linearGradient>
<linearGradient id="paint30_linear" x1="10534.9" y1="-12058.2" x2="10415.5" y2="5963.51" gradientUnits="userSpaceOnUse">
<stop stop-opacity="0"/>
<stop offset="0.91" stop-opacity="0.8"/>
<stop offset="1"/>
</linearGradient>
<linearGradient id="paint31_linear" x1="9382.82" y1="-12161.6" x2="9263.33" y2="5860.12" gradientUnits="userSpaceOnUse">
<stop stop-opacity="0"/>
<stop offset="0.91" stop-opacity="0.8"/>
<stop offset="1"/>
</linearGradient>
<linearGradient id="paint32_linear" x1="1051" y1="27964.2" x2="14888.9" y2="57303.5" gradientUnits="userSpaceOnUse">
<stop stop-opacity="0"/>
<stop offset="0.91" stop-opacity="0.8"/>
<stop offset="1"/>
</linearGradient>
<linearGradient id="paint33_linear" x1="922.162" y1="34381.9" x2="14760.3" y2="63720.8" gradientUnits="userSpaceOnUse">
<stop stop-opacity="0"/>
<stop offset="0.91" stop-opacity="0.8"/>
<stop offset="1"/>
</linearGradient>
<linearGradient id="paint34_linear" x1="7336.68" y1="-14191" x2="7749.08" y2="-14191" gradientUnits="userSpaceOnUse">
<stop stop-color="white" stop-opacity="0"/>
<stop offset="0.09" stop-color="white" stop-opacity="0.05"/>
<stop offset="0.24" stop-color="white" stop-opacity="0.17"/>
<stop offset="0.45" stop-color="white" stop-opacity="0.37"/>
<stop offset="0.69" stop-color="white" stop-opacity="0.65"/>
<stop offset="0.98" stop-color="white"/>
</linearGradient>
<linearGradient id="paint35_linear" x1="15833.6" y1="-9897.5" x2="18154.8" y2="-9897.5" gradientUnits="userSpaceOnUse">
<stop stop-color="white" stop-opacity="0"/>
<stop offset="0.09" stop-color="white" stop-opacity="0.05"/>
<stop offset="0.24" stop-color="white" stop-opacity="0.17"/>
<stop offset="0.45" stop-color="white" stop-opacity="0.37"/>
<stop offset="0.69" stop-color="white" stop-opacity="0.65"/>
<stop offset="0.98" stop-color="white"/>
</linearGradient>
<linearGradient id="paint36_linear" x1="92438.9" y1="746.328" x2="159179" y2="746.328" gradientUnits="userSpaceOnUse">
<stop stop-color="white" stop-opacity="0"/>
<stop offset="0.09" stop-color="white" stop-opacity="0.05"/>
<stop offset="0.24" stop-color="white" stop-opacity="0.17"/>
<stop offset="0.45" stop-color="white" stop-opacity="0.37"/>
<stop offset="0.69" stop-color="white" stop-opacity="0.65"/>
<stop offset="0.98" stop-color="white"/>
</linearGradient>
<linearGradient id="paint37_linear" x1="92182.7" y1="313.057" x2="157616" y2="313.057" gradientUnits="userSpaceOnUse">
<stop stop-color="white" stop-opacity="0"/>
<stop offset="0.09" stop-color="white" stop-opacity="0.05"/>
<stop offset="0.24" stop-color="white" stop-opacity="0.17"/>
<stop offset="0.45" stop-color="white" stop-opacity="0.37"/>
<stop offset="0.69" stop-color="white" stop-opacity="0.65"/>
<stop offset="0.98" stop-color="white"/>
</linearGradient>
<linearGradient id="paint38_linear" x1="5948.83" y1="-746.512" x2="6366.22" y2="-746.512" gradientUnits="userSpaceOnUse">
<stop stop-color="white" stop-opacity="0"/>
<stop offset="0.09" stop-color="white" stop-opacity="0.05"/>
<stop offset="0.24" stop-color="white" stop-opacity="0.17"/>
<stop offset="0.45" stop-color="white" stop-opacity="0.37"/>
<stop offset="0.69" stop-color="white" stop-opacity="0.65"/>
<stop offset="0.98" stop-color="white"/>
</linearGradient>
<linearGradient id="paint39_linear" x1="9152.43" y1="22016.4" x2="9177.65" y2="19595.5" gradientUnits="userSpaceOnUse">
<stop stop-opacity="0"/>
<stop offset="0.91" stop-opacity="0.8"/>
<stop offset="1"/>
</linearGradient>
<linearGradient id="paint40_linear" x1="14640" y1="22071.7" x2="14664.9" y2="19650.8" gradientUnits="userSpaceOnUse">
<stop stop-opacity="0"/>
<stop offset="0.91" stop-opacity="0.8"/>
<stop offset="1"/>
</linearGradient>
<linearGradient id="paint41_linear" x1="5883.24" y1="-651.353" x2="6298.85" y2="-795.672" gradientUnits="userSpaceOnUse">
<stop stop-color="white" stop-opacity="0"/>
<stop offset="0.09" stop-color="white" stop-opacity="0.05"/>
<stop offset="0.24" stop-color="white" stop-opacity="0.17"/>
<stop offset="0.45" stop-color="white" stop-opacity="0.37"/>
<stop offset="0.69" stop-color="white" stop-opacity="0.65"/>
<stop offset="0.98" stop-color="white"/>
</linearGradient>
<linearGradient id="paint42_linear" x1="9453.86" y1="-746.512" x2="9871.25" y2="-746.512" gradientUnits="userSpaceOnUse">
<stop stop-color="white" stop-opacity="0"/>
<stop offset="0.09" stop-color="white" stop-opacity="0.05"/>
<stop offset="0.24" stop-color="white" stop-opacity="0.17"/>
<stop offset="0.45" stop-color="white" stop-opacity="0.37"/>
<stop offset="0.69" stop-color="white" stop-opacity="0.65"/>
<stop offset="0.98" stop-color="white"/>
</linearGradient>
<linearGradient id="paint43_linear" x1="4739.41" y1="16535.6" x2="3284.42" y2="16342.9" gradientUnits="userSpaceOnUse">
<stop stop-color="#183866"/>
<stop offset="1" stop-color="#1A7FC1"/>
</linearGradient>
<linearGradient id="paint44_linear" x1="4239.9" y1="6984.06" x2="2639.29" y2="6792.95" gradientUnits="userSpaceOnUse">
<stop stop-color="#183866"/>
<stop offset="1" stop-color="#1A7FC1"/>
</linearGradient>
<linearGradient id="paint45_linear" x1="19554.5" y1="13377.9" x2="19427.1" y2="11687.5" gradientUnits="userSpaceOnUse">
<stop stop-opacity="0"/>
<stop offset="0.91" stop-opacity="0.8"/>
<stop offset="1"/>
</linearGradient>
<linearGradient id="paint46_linear" x1="24027.7" y1="13373.6" x2="23908.8" y2="11658.1" gradientUnits="userSpaceOnUse">
<stop stop-opacity="0"/>
<stop offset="0.91" stop-opacity="0.8"/>
<stop offset="1"/>
</linearGradient>
<linearGradient id="paint47_linear" x1="31324.4" y1="32753.9" x2="20226.7" y2="33619" gradientUnits="userSpaceOnUse">
<stop stop-opacity="0"/>
<stop offset="0.91" stop-opacity="0.8"/>
<stop offset="1"/>
</linearGradient>
<linearGradient id="paint48_linear" x1="12978.8" y1="27820.5" x2="10622.1" y2="27973.4" gradientUnits="userSpaceOnUse">
<stop stop-opacity="0"/>
<stop offset="0.91" stop-opacity="0.8"/>
<stop offset="1"/>
</linearGradient>
<linearGradient id="paint49_linear" x1="5446.9" y1="3328.61" x2="5439.31" y2="3647.72" gradientUnits="userSpaceOnUse">
<stop stop-opacity="0"/>
<stop offset="0.91" stop-opacity="0.8"/>
<stop offset="1"/>
</linearGradient>
<linearGradient id="paint50_linear" x1="3435.46" y1="4452.6" x2="3209.44" y2="4440.44" gradientUnits="userSpaceOnUse">
<stop stop-opacity="0"/>
<stop offset="0.91" stop-opacity="0.8"/>
<stop offset="1"/>
</linearGradient>
<linearGradient id="paint51_linear" x1="389.961" y1="111.74" x2="395.695" y2="121.448" gradientUnits="userSpaceOnUse">
<stop offset="0.09" stop-color="#68E1FD"/>
<stop offset="0.2" stop-color="#65D5F1"/>
<stop offset="0.4" stop-color="#5DB7D2"/>
<stop offset="0.66" stop-color="#51859F"/>
<stop offset="0.97" stop-color="#404059"/>
<stop offset="0.99" stop-color="#3F3D56"/>
</linearGradient>
<clipPath id="clip0">
<rect width="486" height="527" fill="white"/>
</clipPath>
</defs>
</svg>
