<svg width="618" height="370" viewBox="0 0 618 370" fill="none" xmlns="http://www.w3.org/2000/svg">
<path d="M438.089 26.7583C417.887 15.8921 396.006 6.60588 372.339 2.7205C337.689 -2.92218 301.076 3.52659 269.954 17.3431C232.532 33.9164 202.975 60.0662 169.322 81.4681C130.21 106.312 85.1338 124.852 49.7805 153.275C14.4271 181.698 -10.3632 224.542 5.78564 262.977C20.0656 296.994 61.4879 317.687 101.734 331.697C192.649 363.368 293.101 375.384 392.257 366.447C479.06 358.483 571.806 311.899 570.84 231.023C569.864 149.567 520.43 71.0291 438.089 26.7583Z" fill="white"/>
<path d="M617.998 295.384C606.484 318.735 1.97371 316.775 2.88971 295.383C14.4043 272.033 618.914 273.994 617.998 295.384Z" fill="url(#paint0_linear)"/>
<path d="M570.847 194.667H497.977V228.239H570.847V194.667Z" fill="#3F3D56"/>
<path d="M564.417 223.443H69.3281V259.414H564.417V223.443Z" fill="#3F3D56"/>
<path d="M395.103 101.144H26.4648V213.851H395.103V101.144Z" fill="url(#paint1_linear)"/>
<path d="M504.408 242.628H416.535V117.93H482.227L504.408 180.821V242.628Z" fill="#E61B00"/>
<path d="M470.115 125.124H431.537V165.891H470.115V125.124Z" fill="white"/>
<path d="M497.977 168.289H472.258V127.522H483.281L497.977 168.289Z" fill="white"/>
<path d="M440.109 189.871H433.68V209.055H440.109V189.871Z" fill="#3F3D56"/>
<path d="M480.832 151.502H481.154C482.774 151.502 484.327 152.513 485.473 154.312C486.618 156.111 487.262 158.55 487.262 161.094C487.262 163.638 486.618 166.078 485.473 167.877C484.327 169.676 482.774 170.687 481.154 170.687H480.832V151.502Z" fill="#3F3D56"/>
<path d="M26.4648 223.443H26.8935C29.0535 223.443 31.125 224.454 32.6524 226.253C34.1798 228.052 35.0378 230.491 35.0378 233.035C35.0378 235.579 34.1798 238.019 32.6524 239.818C31.125 241.617 29.0535 242.628 26.8935 242.628H26.4648V223.443Z" fill="#3F3D56"/>
<path d="M540.413 224.364C553.477 224.364 565.228 231.407 573.382 242.628H590.136L573.847 192.135L497.977 175.483L500.12 242.628H507.444C515.598 231.407 527.349 224.364 540.413 224.364Z" fill="#E61B00"/>
<path d="M539.77 295.384C560.485 295.384 577.277 277.132 577.277 254.618C577.277 232.103 560.485 213.851 539.77 213.851C519.056 213.851 502.264 232.103 502.264 254.618C502.264 277.132 519.056 295.384 539.77 295.384Z" fill="#3F3D56"/>
<path d="M540.844 276.2C551.497 276.2 560.133 266 560.133 253.419C560.133 240.837 551.497 230.637 540.844 230.637C530.191 230.637 521.555 240.837 521.555 253.419C521.555 266 530.191 276.2 540.844 276.2Z" fill="#E61B00"/>
<path d="M166.845 295.384C185.192 295.384 200.066 279.28 200.066 259.414C200.066 239.548 185.192 223.443 166.845 223.443C148.498 223.443 133.625 239.548 133.625 259.414C133.625 279.28 148.498 295.384 166.845 295.384Z" fill="#3F3D56"/>
<path d="M86.4748 295.384C104.23 295.384 118.623 279.28 118.623 259.414C118.623 239.548 104.23 223.443 86.4748 223.443C68.7196 223.443 54.3262 239.548 54.3262 259.414C54.3262 279.28 68.7196 295.384 86.4748 295.384Z" fill="#3F3D56"/>
<path d="M166.848 278.598C175.725 278.598 182.922 269.472 182.922 258.215C182.922 246.957 175.725 237.832 166.848 237.832C157.97 237.832 150.773 246.957 150.773 258.215C150.773 269.472 157.97 278.598 166.848 278.598Z" fill="#E61B00"/>
<path d="M86.4741 278.598C95.9435 278.598 103.62 269.472 103.62 258.215C103.62 246.957 95.9435 237.832 86.4741 237.832C77.0046 237.832 69.3281 246.957 69.3281 258.215C69.3281 269.472 77.0046 278.598 86.4741 278.598Z" fill="#E61B00"/>
<path d="M418.679 101.144H401.533V245.026H418.679V101.144Z" fill="#3F3D56"/>
<path d="M418.678 218.647H26.4648V230.638H418.678V218.647Z" fill="#3F3D56"/>
<path d="M485.118 170.687H476.545V175.483H485.118V170.687Z" fill="#3F3D56"/>
<path d="M578.191 208.883L577.791 209.052C575.775 209.906 573.538 209.828 571.573 208.836C569.607 207.844 568.075 206.019 567.312 203.763C566.55 201.506 566.619 199.004 567.506 196.805C568.392 194.606 570.023 192.891 572.04 192.038L572.44 191.868L578.191 208.883Z" fill="#3F3D56"/>
<defs>
<linearGradient id="paint0_linear" x1="593.288" y1="314.47" x2="584.189" y2="225.217" gradientUnits="userSpaceOnUse">
<stop stop-color="#B40100"/>
<stop offset="1" stop-color="#FC2801"/>
</linearGradient>
<linearGradient id="paint1_linear" x1="380.293" y1="221.572" x2="249.919" y2="-6.72613" gradientUnits="userSpaceOnUse">
<stop stop-color="#B40100"/>
<stop offset="1" stop-color="#FC2801"/>
</linearGradient>
</defs>
</svg>
