<svg xmlns="http://www.w3.org/2000/svg" xmlns:xlink="http://www.w3.org/1999/xlink" viewBox="0 0 119.76 120.68"><defs><style>.cls-1{fill:url(#Gradient_bez_nazwy_40);}.cls-2{fill:url(#Gradient_bez_nazwy_40-2);}.cls-3{fill:url(#Gradient_bez_nazwy_161);}.cls-4{fill:url(#Gradient_bez_nazwy_40-3);}.cls-5{fill:url(#Gradient_bez_nazwy_40-4);}.cls-6{font-size:16.26px;fill:#011689;font-family:WorkSans-Bold, Work Sans;font-weight:700;letter-spacing:0.05em;}.cls-7{letter-spacing:0.04em;}.cls-8{letter-spacing:0.03em;}.cls-9{font-size:9.48px;letter-spacing:0.08em;}.cls-10{letter-spacing:0.04em;}.cls-11{letter-spacing:0.07em;}.cls-12{letter-spacing:0.07em;}.cls-13{letter-spacing:0.08em;}.cls-14{letter-spacing:0.06em;}</style><linearGradient id="Gradient_bez_nazwy_40" x1="28.57" y1="17.7" x2="84.39" y2="17.7" gradientUnits="userSpaceOnUse"><stop offset="0" stop-color="#0033a0"/><stop offset="1" stop-color="#011689"/></linearGradient><linearGradient id="Gradient_bez_nazwy_40-2" x1="56.48" y1="0" x2="56.48" y2="35.28" xlink:href="#Gradient_bez_nazwy_40"/><linearGradient id="Gradient_bez_nazwy_161" x1="77.52" y1="67.65" x2="77.52" y2="5.41" gradientUnits="userSpaceOnUse"><stop offset="0" stop-color="#b20000"/><stop offset="0.04" stop-color="#b70300"/><stop offset="0.3" stop-color="#d61300"/><stop offset="0.55" stop-color="#ed1f00"/><stop offset="0.79" stop-color="#fa2700"/><stop offset="1" stop-color="#ff2900"/></linearGradient><linearGradient id="Gradient_bez_nazwy_40-3" x1="28.57" y1="55.66" x2="66.23" y2="55.66" xlink:href="#Gradient_bez_nazwy_40"/><linearGradient id="Gradient_bez_nazwy_40-4" x1="47.38" y1="43.79" x2="47.38" y2="67.65" xlink:href="#Gradient_bez_nazwy_40"/></defs><title>Zasób 1</title><g id="Warstwa_2" data-name="Warstwa 2"><g id="Warstwa_1-2" data-name="Warstwa 1"><path class="cls-1" d="M82.36,17.66,71.61,35.15a2.93,2.93,0,0,0-.09-2.8l-5.29-8.61a2.17,2.17,0,0,0-1.85-1.1h-23a2.23,2.23,0,0,1-1.85-1.11L33.36,11.44,29,4.32a2.92,2.92,0,0,1-.16-2.68,2.28,2.28,0,0,1,2-1.39H78.28a2.23,2.23,0,0,1,1.86,1.1L82.7,5.52s0,0,0,0Q86.24,11.33,82.36,17.66Z"/><path class="cls-2" d="M71.83,35.28,71.39,35a2.66,2.66,0,0,0-.08-2.54L66,23.87a1.91,1.91,0,0,0-1.63-1h-23a2.46,2.46,0,0,1-2-1.23L28.77,4.45a3.14,3.14,0,0,1-.17-2.92A2.5,2.5,0,0,1,30.77,0H78.28a2.46,2.46,0,0,1,2.07,1.22l2.56,4.17c2.41,3.94,2.29,8.11-.33,12.4h0ZM82.36,17.66h0Z"/><path class="cls-3" d="M81.48,67.65H52.05v-.5c2.93,0,3.75-1.39,5.54-4.44.32-.54.67-1.14,1.06-1.78L85.31,17.52c2.52-4.11,2.63-8.1.34-11.85l.43-.26,16.46,26.81a3.15,3.15,0,0,1,0,3.22l-19,31A2.48,2.48,0,0,1,81.48,67.65Z"/><path class="cls-4" d="M66.23,43.92,55.71,61.06q-3.9,6.34-9.33,6.34H30.83a2.26,2.26,0,0,1-2-1.39A2.89,2.89,0,0,1,29,63.34L39.55,46.12A2.19,2.19,0,0,1,41.4,45h23A2.24,2.24,0,0,0,66.23,43.92Z"/><path class="cls-5" d="M30.77,67.65a2.52,2.52,0,0,1-2.18-1.54,3.15,3.15,0,0,1,.18-2.91L39.34,46a2.47,2.47,0,0,1,2.07-1.22h23A2,2,0,0,0,66,43.86l0-.07.43.25,0,.09L55.92,61.19c-2.63,4.29-5.84,6.46-9.54,6.46H30.77Z"/><text class="cls-6" transform="translate(6.83 86.56)">TRANSPO<tspan class="cls-7" x="83.88" y="0">R</tspan><tspan class="cls-8" x="95.76" y="0">T</tspan><tspan class="cls-9"><tspan x="20.43" y="11.38">BEZ </tspan><tspan class="cls-10" x="44.66" y="11.38">R</tspan><tspan class="cls-11" x="51.57" y="11.38">Y</tspan><tspan x="58.45" y="11.38">Z</tspan><tspan class="cls-12" x="65.22" y="11.38">Y</tspan><tspan class="cls-13" x="72.13" y="11.38">K</tspan><tspan class="cls-14" x="79.46" y="11.38">A</tspan></tspan></text></g></g></svg>