<svg xmlns="http://www.w3.org/2000/svg" xmlns:xlink="http://www.w3.org/1999/xlink" viewBox="0 0 105.57 97.94"><defs><style>.cls-1{fill:url(#Gradient_bez_nazwy_40);}.cls-2{fill:url(#Gradient_bez_nazwy_40-2);}.cls-3{fill:url(#Gradient_bez_nazwy_161);}.cls-4{fill:url(#Gradient_bez_nazwy_40-3);}.cls-5{fill:url(#Gradient_bez_nazwy_40-4);}.cls-6{fill:#011689;}</style><linearGradient id="Gradient_bez_nazwy_40" x1="21.33" y1="17.7" x2="77.16" y2="17.7" gradientUnits="userSpaceOnUse"><stop offset="0" stop-color="#0033a0"/><stop offset="1" stop-color="#011689"/></linearGradient><linearGradient id="Gradient_bez_nazwy_40-2" x1="49.24" y1="0" x2="49.24" y2="35.28" xlink:href="#Gradient_bez_nazwy_40"/><linearGradient id="Gradient_bez_nazwy_161" x1="70.28" y1="67.65" x2="70.28" y2="5.41" gradientUnits="userSpaceOnUse"><stop offset="0" stop-color="#b20000"/><stop offset="0.04" stop-color="#b70300"/><stop offset="0.3" stop-color="#d61300"/><stop offset="0.55" stop-color="#ed1f00"/><stop offset="0.79" stop-color="#fa2700"/><stop offset="1" stop-color="#ff2900"/></linearGradient><linearGradient id="Gradient_bez_nazwy_40-3" x1="21.33" y1="55.66" x2="59" y2="55.66" xlink:href="#Gradient_bez_nazwy_40"/><linearGradient id="Gradient_bez_nazwy_40-4" x1="40.15" y1="43.79" x2="40.15" y2="67.65" xlink:href="#Gradient_bez_nazwy_40"/></defs><title>Zasób 2</title><g id="Warstwa_2" data-name="Warstwa 2"><g id="Warstwa_1-2" data-name="Warstwa 1"><path class="cls-1" d="M75.13,17.66,64.38,35.15a2.93,2.93,0,0,0-.1-2.8L59,23.74a2.18,2.18,0,0,0-1.86-1.1h-23a2.23,2.23,0,0,1-1.85-1.11l-6.2-10.09L21.75,4.32a2.89,2.89,0,0,1-.16-2.68,2.28,2.28,0,0,1,2-1.39H71.05a2.23,2.23,0,0,1,1.85,1.1l2.56,4.17v0Q79,11.33,75.13,17.66Z"/><path class="cls-2" d="M64.59,35.28,64.16,35a2.66,2.66,0,0,0-.08-2.54l-5.29-8.62a1.93,1.93,0,0,0-1.64-1h-23a2.49,2.49,0,0,1-2-1.23L21.53,4.45a3.17,3.17,0,0,1-.17-2.92A2.52,2.52,0,0,1,23.54,0H71a2.47,2.47,0,0,1,2.08,1.22l2.56,4.17c2.4,3.94,2.29,8.11-.34,12.4h0ZM75.13,17.66Z"/><path class="cls-3" d="M74.24,67.65H44.82v-.5c2.93,0,3.75-1.39,5.53-4.44.32-.54.67-1.14,1.07-1.78L78.07,17.52c2.52-4.11,2.64-8.1.35-11.85l.43-.26L95.3,32.22a3.11,3.11,0,0,1,0,3.22l-19,31A2.48,2.48,0,0,1,74.24,67.65Z"/><path class="cls-4" d="M59,43.92,48.47,61.06q-3.88,6.34-9.33,6.34H23.6a2.26,2.26,0,0,1-2-1.39,2.87,2.87,0,0,1,.16-2.67L32.32,46.12A2.19,2.19,0,0,1,34.17,45h23A2.24,2.24,0,0,0,59,43.92Z"/><path class="cls-5" d="M23.53,67.65a2.51,2.51,0,0,1-2.17-1.54,3.12,3.12,0,0,1,.18-2.91L32.11,46a2.44,2.44,0,0,1,2.06-1.22h23a2,2,0,0,0,1.6-.91l0-.07.42.25a.41.41,0,0,1-.05.09L48.68,61.19c-2.63,4.29-5.84,6.46-9.54,6.46H23.53Z"/><path class="cls-6" d="M9.8,75.83V78H6.31v8.57H3.51V78H0V75.83Z"/><path class="cls-6" d="M17.33,75.83a4.48,4.48,0,0,1,3,.9,3,3,0,0,1,1.07,2.4,3,3,0,0,1-1.06,2.5,4.56,4.56,0,0,1-3,.87l-.26.14H15v3.92H12.21V75.83Zm-.39,4.83a1.91,1.91,0,0,0,1.22-.33,1.53,1.53,0,0,0,0-2.06,1.91,1.91,0,0,0-1.22-.33H15v2.72Zm1.64.58L22,86.56H18.92l-2.75-4.7Z"/><path class="cls-6" d="M23.1,86.56l3.77-10.73h3.35L34,86.56H31.1L29,79.67,28.53,78h0l-.44,1.67-2.15,6.91Zm2.45-2.42v-1.9h6v1.9Z"/><path class="cls-6" d="M45.71,75.83V86.56h-3.1l-3.34-5.8-.81-1.6h0l.06,2v5.41H36V75.83h3.1l3.34,5.8.81,1.6h0l-.07-2V75.83Z"/><path class="cls-6" d="M53.09,75.67a7,7,0,0,1,2.64.46,5.48,5.48,0,0,1,2,1.36l-1.34,1.8a5,5,0,0,0-1.51-1.09A4.27,4.27,0,0,0,53,77.83a2.91,2.91,0,0,0-1,.13,1.11,1.11,0,0,0-.54.36.85.85,0,0,0-.16.52.69.69,0,0,0,.32.58,2.8,2.8,0,0,0,1,.39l1.8.41a5,5,0,0,1,2.36,1.09,2.51,2.51,0,0,1,.75,1.9A3.16,3.16,0,0,1,57,85.14a3.5,3.5,0,0,1-1.61,1.18,6.31,6.31,0,0,1-2.34.4A9.13,9.13,0,0,1,51,86.49a7,7,0,0,1-1.75-.68,5.48,5.48,0,0,1-1.32-1l1.35-1.87a4,4,0,0,0,1,.84,5.26,5.26,0,0,0,1.3.58,5,5,0,0,0,1.44.21,3.65,3.65,0,0,0,.95-.11,1.08,1.08,0,0,0,.56-.35.83.83,0,0,0,.18-.53.78.78,0,0,0-.24-.58,2.15,2.15,0,0,0-.93-.4l-2-.44A7,7,0,0,1,50,81.59a2.77,2.77,0,0,1-1.11-.94,2.5,2.5,0,0,1-.41-1.49A3,3,0,0,1,49,77.37a3.74,3.74,0,0,1,1.59-1.25A6.29,6.29,0,0,1,53.09,75.67Z"/><path class="cls-6" d="M65.12,75.83a5.44,5.44,0,0,1,2.25.42,3.24,3.24,0,0,1,1.41,1.22,3.7,3.7,0,0,1,.49,1.94,3.66,3.66,0,0,1-.49,1.93,3.18,3.18,0,0,1-1.41,1.22,5.44,5.44,0,0,1-2.25.42H63v3.58H60.2V75.83Zm-.44,5.06A2.09,2.09,0,0,0,66,80.52a1.34,1.34,0,0,0,.45-1.11A1.37,1.37,0,0,0,66,78.29a2.09,2.09,0,0,0-1.33-.36H63v3Z"/><path class="cls-6" d="M76.68,75.67a5.63,5.63,0,0,1,2.8.66,4.49,4.49,0,0,1,1.82,1.89,7.34,7.34,0,0,1,0,6,4.43,4.43,0,0,1-1.82,1.89,5.63,5.63,0,0,1-2.8.66,5.7,5.7,0,0,1-2.81-.66,4.37,4.37,0,0,1-1.82-1.89,7.23,7.23,0,0,1,0-6,4.43,4.43,0,0,1,1.82-1.89A5.7,5.7,0,0,1,76.68,75.67Zm0,2.19a2.26,2.26,0,0,0-1.32.38,2.3,2.3,0,0,0-.81,1.11,6.19,6.19,0,0,0,0,3.68,2.29,2.29,0,0,0,.81,1.12,2.26,2.26,0,0,0,1.32.38A2.21,2.21,0,0,0,78,84.15a2.27,2.27,0,0,0,.8-1.12,6.19,6.19,0,0,0,0-3.68,2.29,2.29,0,0,0-.8-1.11A2.21,2.21,0,0,0,76.68,77.86Z"/><path class="cls-6" d="M89.78,75.83a4.48,4.48,0,0,1,3,.9,3.35,3.35,0,0,1,0,4.9,4.53,4.53,0,0,1-3,.87l-.26.14H87.41v3.92H84.66V75.83Zm-.39,4.83a1.91,1.91,0,0,0,1.22-.33,1.5,1.5,0,0,0,0-2.06,1.91,1.91,0,0,0-1.22-.33h-2v2.72Zm1.64.58,3.43,5.32H91.38l-2.75-4.7Z"/><path class="cls-6" d="M105.57,75.83V78h-3.5v8.57H99.28V78H95.76V75.83Z"/><path class="cls-6" d="M20.72,97.94V91.68h3a2.82,2.82,0,0,1,1.71.44A1.51,1.51,0,0,1,26,93.37a1.38,1.38,0,0,1-.32.91,1.43,1.43,0,0,1-.95.49h0a1.61,1.61,0,0,1,1.07.5,1.4,1.4,0,0,1,.36,1,1.49,1.49,0,0,1-.57,1.25,2.8,2.8,0,0,1-1.71.44Zm1.57-3.7h1.19c.58,0,.87-.23.87-.68s-.29-.68-.87-.68H22.29Zm0,2.55h1.34a1,1,0,0,0,.66-.18.62.62,0,0,0,.22-.52.61.61,0,0,0-.22-.51,1.09,1.09,0,0,0-.66-.17H22.29Z"/><path class="cls-6" d="M28,97.94V91.68h4.88v1.26H29.59v1.27h2.58V95.4H29.59v1.28H33v1.26Z"/><path class="cls-6" d="M35.64,97.26l-.28-.55h4.37v1.23H34.36V96.76l4-4.4.29.55H34.43V91.68h5.19v1.18Z"/><path class="cls-6" d="M47.93,91.68a2.6,2.6,0,0,1,1.74.53,1.74,1.74,0,0,1,.62,1.39,1.8,1.8,0,0,1-.61,1.47,2.73,2.73,0,0,1-1.74.5l-.15.08H46.55v2.29H44.94V91.68ZM47.7,94.5a1.19,1.19,0,0,0,.72-.19.76.76,0,0,0,.23-.61.75.75,0,0,0-.23-.6,1.19,1.19,0,0,0-.72-.19H46.55V94.5Zm1,.34,2,3.1h-1.8l-1.6-2.74Z"/><path class="cls-6" d="M57.3,91.68l-2.21,4v2.29H53.46V95.65l-2.21-4h1.69l.88,1.72.47,1,.47-1,.88-1.72Z"/><path class="cls-6" d="M59.67,97.26l-.28-.55h4.37v1.23H58.39V96.76l4-4.4.29.55H58.46V91.68h5.18v1.18Z"/><path class="cls-6" d="M71,91.68l-2.21,4v2.29H67.11V95.65l-2.21-4h1.68l.89,1.72.46,1,.47-1,.89-1.72Z"/><path class="cls-6" d="M74.05,91.68v6.26H72.42V91.68Zm4,0L75.16,95.2,75.05,95l-1.49,1.81-.31-1.32,3-3.76Zm-2.41,2.07,2.52,4.19H76.36l-1.9-3.28Z"/><path class="cls-6" d="M79.09,97.94l2.2-6.26h2l2.19,6.26H83.76l-1.23-4-.27-1h0l-.26,1-1.25,4Zm1.43-1.41V95.42H84v1.11Z"/></g></g></svg>