<svg width="247" height="256" viewBox="0 0 247 256" fill="none" xmlns="http://www.w3.org/2000/svg">
<path d="M7.68347 82.5956C-12.4214 -29.1304 167.579 57.0789 172.703 57.424C276.446 103.381 224.985 148.975 128.68 223.194C32.374 297.412 27.9905 195.445 7.68347 82.5956Z" fill="url(#paint0_linear)"/>
<path d="M42.8906 203.96H151.972C151.796 204.946 151.462 205.843 151.268 206.829C162.502 207.061 173.735 206.367 184.855 204.752C187.274 204.516 189.646 203.923 191.892 202.992C193 202.464 194.197 201.232 193.651 200.194C193.439 199.922 193.173 199.696 192.871 199.529C192.569 199.363 192.236 199.26 191.892 199.226C185.371 197.924 178.802 196.844 172.187 195.988C169.928 195.895 167.731 195.229 165.801 194.052C163.214 192.151 162.405 188.614 162.387 185.393C162.678 182.191 162.678 178.969 162.387 175.766C160.892 167.6 155.35 160.209 159.08 152.764C162.423 145.971 168.563 140.603 170.568 133.3C171.958 128.231 171.167 122.863 170.357 117.689L167.718 100.565C167.403 96.887 166.388 93.3028 164.727 90.006C164.178 88.9127 163.397 87.9519 162.44 87.1901C161.349 86.4685 160.892 86.9261 159.836 86.5565C157.531 85.747 155.649 83.6527 153.168 85.6942C153.586 79.7826 153.592 73.8491 153.186 67.9367C153.22 65.0037 152.62 62.098 151.426 59.4187C150.422 57.7181 149.177 56.1711 147.732 54.8254C145.386 52.4788 143.005 50.232 140.589 48.0849C138.859 46.4645 136.986 45.0037 134.994 43.7204C128.678 39.743 122.379 39.8661 115.342 40.8693C107.618 41.9956 99.3138 41.2037 91.5725 40.8693C83.8313 40.5349 75.7382 39.8662 67.8034 39.9365C63.8881 39.9542 59.9765 40.1833 56.0859 40.6229C54.9951 40.7461 45.125 41.8196 45.0547 42.6996C43.6472 58.8556 50.5439 74.378 55.8044 89.742C62.5077 109.277 66.7126 129.956 65.2171 150.582C63.7216 171.208 57.4407 189.3 42.8906 203.96Z" fill="url(#paint1_linear)"/>
<path d="M185.243 190.884C184.804 192.134 184.082 193.524 184.733 194.685C184.787 194.802 184.881 194.895 184.997 194.949C185.083 194.988 185.176 195.008 185.27 195.008C185.364 195.008 185.457 194.988 185.542 194.949C188.34 193.858 189.941 190.954 191.12 188.174C191.485 187.509 191.609 186.738 191.472 185.991C191.152 185.284 190.608 184.703 189.923 184.337C188.923 183.597 187.987 182.773 187.126 181.873C187.372 182.155 186.633 183.968 186.51 184.284C186.146 184.928 185.846 185.606 185.613 186.308C185.619 186.973 185.66 187.637 185.736 188.297C185.708 189.18 185.542 190.053 185.243 190.884Z" fill="#F1B2A4"/>
<path d="M155.334 200.352C154.578 201.18 153.575 201.919 153.434 203.01C153.372 203.204 153.372 203.414 153.434 203.608C153.681 204.101 154.402 204.066 154.93 203.907C157.007 203.18 158.942 202.096 160.648 200.704C160.885 200.547 161.088 200.343 161.246 200.106C161.369 199.741 161.369 199.345 161.246 198.98L160.788 196.234C160.783 196.148 160.745 196.066 160.683 196.005C160.647 195.988 160.608 195.979 160.568 195.979C160.529 195.979 160.49 195.988 160.454 196.005C159.74 195.935 159.021 195.935 158.308 196.005C157.34 196.005 157.287 196.111 157.094 197.009C156.795 198.252 156.19 199.402 155.334 200.352Z" fill="#F1B2A4"/>
<path d="M161.614 202.429C161.623 202.564 161.592 202.698 161.527 202.816C161.403 202.956 161.236 203.05 161.051 203.08C160.122 203.411 159.232 203.842 158.395 204.365C156.611 205.255 154.765 206.014 152.87 206.635C152.485 206.834 152.064 206.954 151.632 206.987C151.2 207.021 150.765 206.967 150.354 206.829C150.255 206.79 150.17 206.722 150.108 206.635C150.064 206.486 150.064 206.327 150.108 206.178C150.388 204.853 151.034 203.633 151.973 202.658C152.302 202.259 152.702 201.925 153.152 201.672C153.378 201.546 153.629 201.47 153.888 201.452C154.146 201.434 154.406 201.473 154.647 201.567C155.158 201.795 155.509 202.359 156.055 202.517C156.341 202.574 156.636 202.571 156.921 202.507C157.206 202.443 157.474 202.321 157.709 202.147C158.327 201.817 158.915 201.434 159.468 201.004C159.873 200.669 160.365 200.018 160.876 199.895C161.984 199.648 161.65 201.743 161.614 202.429Z" fill="#E61B00"/>
<path d="M192.825 186.942C192.923 187.069 192.984 187.222 193.001 187.382C192.963 187.591 192.858 187.783 192.702 187.927C192.019 188.834 191.43 189.807 190.942 190.831C189.821 192.816 188.557 194.715 187.16 196.516C186.658 197.38 185.837 198.013 184.873 198.276C184.757 198.303 184.636 198.303 184.521 198.276C184.37 198.183 184.258 198.039 184.204 197.871C183.638 196.434 183.479 194.869 183.747 193.348C183.785 192.735 183.947 192.137 184.222 191.588C184.357 191.324 184.549 191.093 184.782 190.911C185.016 190.728 185.287 190.599 185.576 190.532C186.227 190.426 186.896 190.726 187.529 190.532C187.835 190.395 188.111 190.198 188.341 189.953C188.57 189.709 188.749 189.421 188.866 189.107C189.211 188.409 189.499 187.685 189.728 186.942C189.822 186.264 190.036 185.608 190.362 185.006C191.365 184.108 192.42 186.273 192.825 186.942Z" fill="#E61B00"/>
<path d="M179.348 142.363C179.901 146.371 179.096 150.448 177.061 153.944C175.53 156.513 175.301 159.593 173.841 162.057C173.503 162.541 173.275 163.094 173.172 163.676C173.211 164.187 173.357 164.684 173.599 165.136C173.841 165.587 174.175 165.983 174.58 166.298L183.94 176.066C185.637 177.542 186.902 179.452 187.599 181.592C187.91 182.675 187.782 183.836 187.242 184.825C186.701 185.814 185.793 186.549 184.714 186.871L164.358 174.886C161.002 170.895 159.23 165.809 159.379 160.596C159.643 157.076 166.803 139.477 166.803 139.477C169.218 137.519 171.823 135.809 174.58 134.373C176.11 133.687 176.181 134.092 177.061 135.588C177.713 136.699 178.238 137.879 178.626 139.108C178.964 140.169 179.206 141.259 179.348 142.363Z" fill="#E61B00"/>
<path d="M166.805 139.495C166.805 139.495 159.293 157.094 159.381 160.614C159.592 170.363 164.36 174.904 164.36 174.904C163.855 181.744 163.357 188.596 162.864 195.46C160.647 196.674 157.357 197.66 156.073 195.46C155.746 194.827 155.566 194.13 155.545 193.418C154.806 186.109 154.056 178.811 153.293 171.525C152.669 167.199 152.598 162.811 153.082 158.466V158.097C153.082 158.097 153.311 157.006 153.61 155.827C154.472 152.412 156.337 146.094 159.24 142.451C161.852 141.895 164.366 140.951 166.7 139.653L166.805 139.495Z" fill="#E61B00"/>
<path d="M166.805 139.495C166.805 139.495 159.293 157.094 159.381 160.614C159.592 170.363 164.36 174.904 164.36 174.904C163.855 181.744 163.357 188.596 162.864 195.46C160.647 196.674 157.357 197.66 156.073 195.46C155.746 194.827 155.566 194.13 155.545 193.418C154.806 186.109 154.056 178.811 153.293 171.525C152.669 167.199 152.598 162.811 153.082 158.466V158.097C153.082 158.097 153.311 157.006 153.61 155.827C154.472 152.412 156.337 146.094 159.24 142.451C161.852 141.895 164.366 140.951 166.7 139.653L166.805 139.495Z" fill="url(#paint2_linear)"/>
<path d="M175.9 98.2776C174.341 99.7855 172.508 100.98 170.499 101.797C170.024 100.038 171.027 99.3335 171.027 99.3335C172.065 99.4215 173.437 96.8697 172.997 96.0777C172.557 95.2858 171.678 95.4441 171.238 95.8665C170.712 95.4551 170.276 94.9395 169.958 94.3521C169.641 93.7646 169.447 93.1179 169.391 92.4523C169.391 91.6779 170.675 89.4605 168.089 88.5101C166.041 87.9733 163.89 87.9733 161.843 88.5101C161.667 88.5101 161.843 87.0318 161.843 86.9438C162.101 86.1687 162.593 85.4925 163.25 85.0079C164.136 84.6716 165.085 84.5335 166.03 84.6031C167.35 84.6031 168.687 84.4799 170.006 84.4799C171.356 84.3985 172.708 84.5901 173.983 85.0431C175.194 85.6979 176.219 86.6506 176.961 87.8114C177.703 88.9722 178.137 90.3029 178.223 91.6779C178.255 92.4007 178.422 93.1111 178.715 93.7722C179.05 94.4234 179.683 94.8986 180.017 95.5321C180.58 96.6937 180.14 98.1192 180.545 99.3335C181.253 99.4832 181.928 99.7638 182.533 100.161C182.829 100.369 183.063 100.655 183.209 100.987C183.355 101.319 183.407 101.684 183.36 102.044C183.846 102.4 184.218 102.889 184.433 103.452C184.478 103.593 184.494 103.741 184.479 103.889C184.464 104.036 184.419 104.178 184.346 104.307C184.273 104.436 184.175 104.549 184.057 104.638C183.938 104.727 183.803 104.79 183.659 104.824C184.209 105.182 184.702 105.621 185.119 106.127C185.305 106.376 185.43 106.664 185.485 106.97C185.54 107.275 185.523 107.589 185.436 107.887C185.24 108.238 184.975 108.547 184.658 108.794C184.341 109.042 183.977 109.224 183.589 109.33C184.253 109.541 184.856 109.91 185.348 110.403C185.573 110.665 185.697 110.999 185.697 111.345C185.697 111.691 185.573 112.025 185.348 112.286C185.603 112.203 185.874 112.184 186.138 112.229C186.402 112.274 186.652 112.382 186.865 112.545C187.077 112.708 187.248 112.92 187.36 113.163C187.473 113.406 187.525 113.673 187.512 113.941C187.861 113.836 188.228 113.807 188.588 113.857C188.949 113.907 189.295 114.033 189.602 114.229C189.909 114.424 190.171 114.684 190.369 114.989C190.567 115.295 190.697 115.64 190.749 116C190.727 116.929 190.44 117.833 189.922 118.605C189.588 119.256 189.166 119.96 188.445 120.136C188.796 120.664 188.445 121.385 187.934 121.896C187.424 122.406 187.248 123.251 186.72 123.831C186.053 124.42 185.267 124.859 184.416 125.116C182.645 125.719 180.752 125.87 178.909 125.556C176.447 125.275 174.159 124.149 172.434 122.371C169.936 119.59 169.602 115.56 168.916 111.899C168.873 111.449 168.688 111.023 168.388 110.685C167.666 109.999 166.488 110.544 165.485 110.527C163.725 110.527 162.599 108.591 162.547 106.866C162.698 105.144 163.04 103.444 163.567 101.797C163.82 100.972 163.853 100.095 163.665 99.2532C163.477 98.411 163.073 97.6321 162.494 96.9929C162.001 96.5705 161.385 96.3065 160.875 95.9369C158.535 94.177 158.676 90.3932 160.664 88.3165C161.735 87.3489 163.023 86.6535 164.42 86.289C165.816 85.9245 167.28 85.9016 168.687 86.2222C170.956 86.627 176.094 87.8941 177.149 89.9884C178.205 92.0827 177.237 96.4121 175.9 98.2776Z" fill="#473F47"/>
<path d="M158.572 109.154L147.611 120.452L133.026 112.762C131.223 111.658 129.139 111.101 127.026 111.16C126.815 111.16 126.533 111.283 126.569 111.494C126.604 111.706 126.868 111.723 126.903 111.899C126.938 112.075 126.709 112.198 126.516 112.251L122.997 113.043C122.487 113.149 121.871 113.395 121.836 113.923C121.854 114.097 121.911 114.265 122.003 114.414C122.094 114.563 122.217 114.69 122.364 114.786C124.822 116.547 127.871 117.279 130.862 116.827C131.154 116.792 131.449 116.792 131.741 116.827C132.022 116.894 132.289 117.007 132.533 117.161C133.659 117.795 134.75 118.464 135.805 119.203C138.656 121.227 141.224 123.638 144.127 125.591C144.716 126.045 145.414 126.336 146.15 126.436C146.803 126.416 147.444 126.26 148.033 125.979C152.22 124.219 156.513 122.459 159.698 119.326C159.976 119.065 160.202 118.755 160.366 118.411C160.487 118.066 160.547 117.703 160.542 117.337C160.542 115.806 160.542 114.275 160.542 112.744C160.558 112.044 160.407 111.35 160.102 110.72C159.94 110.409 159.679 110.161 159.361 110.015C159.042 109.868 158.684 109.832 158.343 109.911" fill="#F1B2A4"/>
<path d="M151.637 121.156C151.282 121.435 150.891 121.666 150.476 121.843C149.555 122.131 148.585 122.227 147.626 122.124C146.173 122.089 144.719 122.178 143.28 122.388C142.919 122.408 142.568 122.517 142.26 122.705C142.107 122.801 141.988 122.943 141.922 123.111C141.855 123.279 141.844 123.463 141.89 123.638C141.991 123.828 142.136 123.99 142.313 124.113C143.398 125.16 144.748 125.89 146.218 126.225C148.026 126.243 149.792 125.675 151.25 124.606L154.452 122.723C154.936 122.49 155.358 122.146 155.684 121.72C156.124 121.033 156.229 119.097 155.138 118.904C154.048 118.71 152.341 120.558 151.637 121.156Z" fill="#78433B"/>
<path d="M160.223 106.32C160.433 106.248 160.652 106.201 160.873 106.18C162.05 106.169 163.226 106.239 164.392 106.391C165.958 106.391 167.524 106.496 169.072 106.391C172.063 106.391 176.954 106.004 179.628 109.242C182.303 112.48 180.983 117.126 179.804 120.611C179.206 122.371 178.045 123.867 177.517 125.556C177.025 127.819 176.971 130.155 177.359 132.437C177.385 132.937 177.486 133.429 177.658 133.898C178.063 134.866 178.995 135.658 179.277 136.573C179.378 137.113 179.334 137.67 179.149 138.187C178.963 138.703 178.643 139.161 178.221 139.512C177.363 140.198 176.384 140.718 175.336 141.043C174.086 141.536 172.837 142.011 171.553 142.399C167.409 143.589 163.053 143.848 158.797 143.155C158.612 143.16 158.428 143.118 158.263 143.032C158.099 142.947 157.958 142.82 157.856 142.665C157.754 142.51 157.693 142.331 157.679 142.146C157.665 141.961 157.699 141.775 157.777 141.607C158.186 138.329 158.019 135.006 157.284 131.786C156.633 128.9 154.944 126.683 154.399 123.761C153.854 121.672 153.854 119.479 154.399 117.39C154.505 117.126 154.892 116.933 154.927 116.651C154.962 116.369 154.487 115.648 154.329 115.314C153.812 114.217 153.399 113.074 153.097 111.899C153.035 111.717 153.035 111.519 153.097 111.336C153.173 111.195 153.282 111.074 153.414 110.984C154.628 109.999 155.859 109.013 157.161 108.133C158.097 107.397 159.127 106.787 160.223 106.32Z" fill="white"/>
<path d="M170.534 98.876C169.918 100.847 167.332 104.332 164.359 103.522C164.708 104.152 164.872 104.868 164.831 105.588C164.791 106.307 164.548 107 164.13 107.588C164.13 107.588 165.098 110.034 171.59 106.408C171.59 106.408 169.83 106.25 170.323 102.642C170.451 101.383 170.886 100.174 171.59 99.1224C171.514 99.2004 171.419 99.2575 171.314 99.2881C171.209 99.3186 171.099 99.3217 170.992 99.2969C170.886 99.2721 170.788 99.2204 170.708 99.1466C170.628 99.0729 170.568 98.9797 170.534 98.876Z" fill="#F1B2A4"/>
<path d="M170.235 99.8616C170.235 99.8616 168.81 105.933 166.4 105.687C163.99 105.44 164.13 101.797 164.13 101.797L170.235 99.8616Z" fill="#78433B"/>
<path d="M163.847 84.9727C163.847 84.9727 159.906 85.2014 158.727 90.9212C158.525 91.6001 158.491 92.318 158.629 93.0129C158.766 93.7078 159.07 94.3588 159.516 94.9098C159.961 95.4607 160.533 95.895 161.184 96.1751C161.834 96.4552 162.543 96.5728 163.249 96.5177L166.768 86.6094L163.847 84.9727Z" fill="#473F47"/>
<path d="M166.468 103.804C162.95 104.103 160.733 100.777 160.328 96.412C160.328 95.9368 160.328 95.4617 160.328 94.9513C160.325 93.5356 160.484 92.1243 160.803 90.7451C162.369 84.0574 171.887 86.7325 171.887 86.7325C179.277 90.0939 172.679 103.293 166.468 103.804Z" fill="#F1B2A4"/>
<path d="M163.919 86.5917C164.851 89.8123 166.083 94.4057 169.197 96.1832C169.626 96.4652 170.127 96.618 170.64 96.6231C171.132 96.5351 171.08 96.148 171.449 95.8136C171.57 95.6905 171.727 95.6077 171.896 95.5762C172.066 95.5448 172.242 95.5662 172.399 95.6376C172.53 95.7386 172.636 95.8696 172.706 96.0196C172.777 96.1696 172.81 96.3343 172.804 96.4999C172.799 96.8951 172.695 97.2826 172.501 97.6271C172.308 97.9715 172.03 98.2617 171.695 98.471C171.381 98.6133 171.081 98.7842 170.798 98.9814C170.483 99.2889 170.295 99.7034 170.27 100.143C170.216 100.735 170.333 101.33 170.607 101.858C170.882 102.385 171.302 102.822 171.819 103.117C171.888 103.134 171.96 103.134 172.03 103.117C172.122 103.102 172.204 103.052 172.258 102.976L173.666 101.692C174.318 101.115 174.907 100.472 175.425 99.7734C176.068 98.815 176.417 97.6893 176.428 96.5351C176.428 96.0072 176.217 95.4792 176.217 94.9688C176.316 94.3108 176.494 93.6668 176.745 93.0505C177.066 92.257 177.228 91.4077 177.22 90.5515C177.081 89.7425 176.74 88.9816 176.23 88.3388C175.719 87.696 175.055 87.192 174.299 86.8732C171.839 85.8541 169.182 85.3971 166.523 85.5357C165.998 85.4996 165.471 85.5715 164.975 85.7469C164.535 85.9581 164.341 86.4333 163.919 86.5917Z" fill="#473F47"/>
<path d="M170.235 127.228L172.962 133.229C176.517 128.666 179.255 123.521 181.055 118.024C183.008 110.984 179.542 109.224 179.542 109.224C176.903 108.256 175.109 112.023 172.505 119.643C171.08 123.902 170.235 127.228 170.235 127.228Z" fill="#F1B2A4"/>
<path d="M182.111 111.688C182.527 112.964 182.81 114.279 182.955 115.613L183.202 117.373C183.308 117.74 183.308 118.131 183.202 118.499C182.903 119.132 181.706 118.869 181.108 118.974L177.924 119.467C175.795 119.801 173.683 120.118 171.555 120.417C171.405 119.331 171.405 118.23 171.555 117.144C171.748 116.123 172.188 115.173 172.434 114.152C172.681 113.131 172.716 112.392 172.927 111.67C173.379 109.951 174.403 108.437 175.83 107.376C178.082 105.74 181.354 109.699 182.04 111.477C182.059 111.549 182.083 111.619 182.111 111.688Z" fill="white"/>
<path d="M142.578 200.159H38.7568V43.4565H120.726L142.578 66.089V200.159Z" fill="white"/>
<path d="M120.726 43.4565L142.577 66.089H120.866L120.726 43.4565Z" fill="white"/>
<path d="M120.726 43.4565L142.577 66.089H120.866L120.726 43.4565Z" fill="#E61B00"/>
<g opacity="0.41">
<path opacity="0.41" d="M66.8875 124.729H50.5605V138.949H66.8875V124.729Z" fill="#E61B00"/>
</g>
<path d="M83.075 113.659H66.748V138.949H83.075V113.659Z" fill="#E61B00"/>
<g opacity="0.5">
<path opacity="0.5" d="M99.2606 101.991H82.9336V138.949H99.2606V101.991Z" fill="#E61B00"/>
</g>
<path d="M115.466 90.6221H99.1387V138.949H115.466V90.6221Z" fill="#E61B00"/>
<path d="M131.651 79.165H115.324V138.949H131.651V79.165Z" fill="#E61B00"/>
<path d="M131.651 79.165H115.324V138.949H131.651V79.165Z" fill="url(#paint3_linear)"/>
<path d="M120.461 107.077C120.461 107.077 126.408 99.1751 134.114 103.874C141.82 108.573 136.366 118.094 136.366 118.094L142.26 111.442C142.26 111.442 142.136 102.941 137.738 100.143C133.34 97.3448 125.422 97.5736 125.422 97.5736L120.479 104.402L120.461 107.077Z" fill="url(#paint4_linear)"/>
<path d="M116.116 109.963C115.322 112.488 115.465 115.214 116.519 117.642C117.572 120.07 119.465 122.036 121.851 123.18C123.893 124.205 126.126 124.791 128.408 124.9C130.69 125.009 132.969 124.639 135.099 123.814L141.204 129.956L142.524 132.173L142.313 123.99L137.738 117.197C137.738 117.197 121.904 128.09 118.385 107.711C118.332 107.746 116.714 107.218 116.116 109.963Z" fill="url(#paint5_linear)"/>
<path d="M151.04 128.407C151.395 128.769 151.594 129.256 151.594 129.762C151.594 130.269 151.395 130.756 151.04 131.118C150.679 131.472 150.192 131.671 149.686 131.671C149.179 131.671 148.693 131.472 148.331 131.118L136.35 119.625C135.996 119.266 135.798 118.783 135.798 118.279C135.798 117.775 135.996 117.292 136.35 116.933C136.526 116.753 136.737 116.61 136.97 116.512C137.202 116.415 137.452 116.365 137.704 116.365C137.956 116.365 138.206 116.415 138.439 116.512C138.671 116.61 138.882 116.753 139.059 116.933L151.04 128.407Z" fill="#E61B00"/>
<path d="M129.328 96.7463C126.714 96.7429 124.158 97.5151 121.983 98.9652C119.808 100.415 118.111 102.478 117.108 104.893C116.106 107.308 115.842 109.966 116.349 112.531C116.857 115.096 118.114 117.453 119.961 119.303C121.809 121.153 124.163 122.414 126.726 122.925C129.29 123.436 131.947 123.176 134.363 122.176C136.778 121.176 138.843 119.482 140.295 117.308C141.748 115.134 142.523 112.578 142.523 109.963C142.523 106.461 141.134 103.102 138.66 100.624C136.186 98.1456 132.829 96.751 129.328 96.7463ZM129.328 119.836C127.376 119.836 125.468 119.257 123.845 118.172C122.221 117.088 120.956 115.546 120.209 113.742C119.462 111.937 119.267 109.952 119.648 108.037C120.029 106.122 120.969 104.363 122.349 102.982C123.729 101.601 125.488 100.661 127.403 100.28C129.317 99.8989 131.302 100.094 133.105 100.842C134.909 101.589 136.45 102.854 137.535 104.478C138.619 106.102 139.198 108.011 139.198 109.963C139.194 112.58 138.152 115.089 136.302 116.939C134.452 118.79 131.944 119.832 129.328 119.836Z" fill="#E61B00"/>
<path d="M129.328 96.7463C126.714 96.7429 124.158 97.5151 121.983 98.9652C119.808 100.415 118.111 102.478 117.108 104.893C116.106 107.308 115.842 109.966 116.349 112.531C116.857 115.096 118.114 117.453 119.961 119.303C121.809 121.153 124.163 122.414 126.726 122.925C129.29 123.436 131.947 123.176 134.363 122.176C136.778 121.176 138.843 119.482 140.295 117.308C141.748 115.134 142.523 112.578 142.523 109.963C142.523 106.461 141.134 103.102 138.66 100.624C136.186 98.1456 132.829 96.751 129.328 96.7463ZM129.328 119.836C127.376 119.836 125.468 119.257 123.845 118.172C122.221 117.088 120.956 115.546 120.209 113.742C119.462 111.937 119.267 109.952 119.648 108.037C120.029 106.122 120.969 104.363 122.349 102.982C123.729 101.601 125.488 100.661 127.403 100.28C129.317 99.8989 131.302 100.094 133.105 100.842C134.909 101.589 136.45 102.854 137.535 104.478C138.619 106.102 139.198 108.011 139.198 109.963C139.194 112.58 138.152 115.089 136.302 116.939C134.452 118.79 131.944 119.832 129.328 119.836Z" fill="url(#paint6_linear)"/>
<path d="M130.313 95.7961C127.7 95.7961 125.146 96.5713 122.973 98.0236C120.8 99.4759 119.106 101.54 118.106 103.955C117.106 106.37 116.845 109.028 117.354 111.592C117.864 114.155 119.123 116.51 120.971 118.359C122.818 120.207 125.173 121.466 127.736 121.976C130.299 122.486 132.956 122.224 135.37 121.224C137.784 120.224 139.848 118.529 141.3 116.356C142.751 114.182 143.526 111.627 143.526 109.013C143.526 107.277 143.185 105.559 142.521 103.955C141.857 102.352 140.883 100.895 139.656 99.6673C138.429 98.44 136.973 97.4664 135.37 96.8022C133.767 96.138 132.049 95.7961 130.313 95.7961ZM130.313 118.886C128.356 118.89 126.442 118.312 124.814 117.227C123.185 116.141 121.915 114.597 121.164 112.789C120.414 110.981 120.216 108.99 120.597 107.07C120.978 105.15 121.92 103.386 123.304 102.002C124.688 100.617 126.452 99.675 128.371 99.294C130.291 98.9129 132.28 99.1103 134.088 99.861C135.895 100.612 137.439 101.882 138.525 103.511C139.61 105.141 140.187 107.055 140.184 109.013C140.184 111.632 139.144 114.143 137.293 115.994C135.442 117.846 132.931 118.886 130.313 118.886Z" fill="#E61B00"/>
<path d="M172.962 133.229C172.962 133.229 173.067 128.354 170.692 127.387C168.317 126.419 151.691 123.867 151.691 123.867L150.143 125.627C150.143 125.627 166.452 135.025 172.962 133.229Z" fill="#F1B2A4"/>
<path d="M149.913 123.427C149.519 123.347 149.131 123.242 148.751 123.11L145.602 121.984C145.461 121.984 145.268 121.984 145.162 121.984C145.146 122.023 145.137 122.065 145.137 122.107C145.137 122.149 145.146 122.191 145.162 122.23C145.162 122.705 145.602 123.057 145.901 123.427C145.901 123.427 146.024 123.62 145.989 123.726C145.954 123.832 145.778 123.902 145.62 123.902C144.044 123.999 142.463 123.999 140.887 123.902C140.685 123.849 140.473 123.849 140.271 123.902C140.174 123.938 140.092 124.007 140.04 124.097C139.989 124.187 139.971 124.293 139.99 124.395C140.05 124.517 140.149 124.616 140.271 124.676C140.662 124.922 141.099 125.083 141.556 125.151C141.126 125.328 140.665 125.418 140.201 125.415C140.223 125.568 140.282 125.712 140.375 125.835C140.467 125.958 140.589 126.056 140.729 126.119C141.017 126.227 141.319 126.293 141.626 126.313C141.296 126.476 140.937 126.572 140.57 126.595C140.482 126.841 140.711 127.07 140.922 127.228C142.052 128.017 143.398 128.435 144.775 128.425C146.197 128.721 147.664 128.721 149.086 128.425C150.12 127.801 151.196 127.248 152.305 126.771C152.505 126.749 152.698 126.683 152.868 126.577C153.025 126.445 153.136 126.266 153.185 126.067C153.642 124.553 152.64 123.884 151.302 123.62L149.913 123.427Z" fill="#F1B2A4"/>
<path d="M128.89 150.74H54.0283V155.439H128.89V150.74Z" fill="#E61B00"/>
<path d="M128.89 162.585H54.0283V167.284H128.89V162.585Z" fill="#E61B00"/>
<path d="M128.89 174.447H54.0283V179.145H128.89V174.447Z" fill="#E61B00"/>
<path d="M128.89 186.291H54.0283V190.989H128.89V186.291Z" fill="#E61B00"/>
<defs>
<linearGradient id="paint0_linear" x1="240.767" y1="239.15" x2="-20.8705" y2="151.819" gradientUnits="userSpaceOnUse">
<stop stop-color="#B40100"/>
<stop offset="1" stop-color="#FC2801"/>
</linearGradient>
<linearGradient id="paint1_linear" x1="129.294" y1="488.467" x2="94.0495" y2="-431.225" gradientUnits="userSpaceOnUse">
<stop offset="0.01"/>
<stop offset="0.08" stop-opacity="0.69"/>
<stop offset="0.21" stop-opacity="0.32"/>
<stop offset="1" stop-opacity="0"/>
</linearGradient>
<linearGradient id="paint2_linear" x1="-41989.1" y1="-1613.21" x2="-42945.6" y2="-1121.46" gradientUnits="userSpaceOnUse">
<stop offset="0.01"/>
<stop offset="0.08" stop-opacity="0.69"/>
<stop offset="0.21" stop-opacity="0.32"/>
<stop offset="1" stop-opacity="0"/>
</linearGradient>
<linearGradient id="paint3_linear" x1="1192.09" y1="2532.11" x2="3162.53" y2="2913.52" gradientUnits="userSpaceOnUse">
<stop offset="0.01"/>
<stop offset="0.08" stop-opacity="0.69"/>
<stop offset="0.21" stop-opacity="0.32"/>
<stop offset="1" stop-opacity="0"/>
</linearGradient>
<linearGradient id="paint4_linear" x1="2646.92" y1="1189.09" x2="2400.42" y2="1695.65" gradientUnits="userSpaceOnUse">
<stop offset="0.01"/>
<stop offset="0.08" stop-opacity="0.69"/>
<stop offset="0.21" stop-opacity="0.32"/>
<stop offset="1" stop-opacity="0"/>
</linearGradient>
<linearGradient id="paint5_linear" x1="3356.37" y1="1545.77" x2="2559.3" y2="2501.23" gradientUnits="userSpaceOnUse">
<stop offset="0.01"/>
<stop offset="0.08" stop-opacity="0.69"/>
<stop offset="0.21" stop-opacity="0.32"/>
<stop offset="1" stop-opacity="0"/>
</linearGradient>
<linearGradient id="paint6_linear" x1="-71467.3" y1="1289.18" x2="-73427.2" y2="3569.83" gradientUnits="userSpaceOnUse">
<stop offset="0.01"/>
<stop offset="0.08" stop-opacity="0.69"/>
<stop offset="0.21" stop-opacity="0.32"/>
<stop offset="1" stop-opacity="0"/>
</linearGradient>
</defs>
</svg>
