<svg width="325" height="325" viewBox="0 0 325 325" fill="none" xmlns="http://www.w3.org/2000/svg">
<path opacity="0.18" d="M138.144 270.997C94.0737 264.594 67.3234 233.298 61.3121 196.052C57.5926 173.154 61.7253 148.035 74.4242 125.024C107.825 64.5411 192.246 63.1476 192.246 63.1476C240.825 60.7373 231.244 142.951 228.426 160.689C226.924 170.066 236.391 182.607 246.197 196.052C254.876 207.953 263.893 220.607 265.772 232.395C269.829 257.439 209.265 281.338 138.144 270.997Z" fill="#E61B00"/>
<path d="M138.145 271.524C94.0741 265.122 67.3238 233.826 61.3125 196.579H246.235C254.952 208.48 263.931 221.134 265.81 232.922C269.83 257.966 209.266 281.881 138.145 271.524Z" fill="#E61B00"/>
<path d="M138.145 271.524C94.0741 265.122 67.3238 233.826 61.3125 196.579H246.235C254.952 208.48 263.931 221.134 265.81 232.922C269.83 257.966 209.266 281.881 138.145 271.524Z" fill="url(#paint0_linear)"/>
<path opacity="0.18" d="M138.67 239.475C136.454 239.437 133.786 239.136 132.772 237.14C132.283 236.16 132.321 234.993 132.171 233.863C130.668 223.958 113.385 224.41 110.53 214.807C110.304 213.978 110.192 212.962 110.793 212.321C111.319 211.756 112.145 211.643 112.897 211.606L138.032 209.836C139.046 206.107 135.063 202.944 131.419 201.776C115.001 196.504 96.3657 207.35 80.2103 201.211C79.3461 200.872 78.4444 200.458 78.0312 199.63C76.8665 197.257 80.586 195.6 83.2535 195.562L146.823 194.545C148.176 194.508 149.528 194.508 150.806 194.922C152.759 195.562 154.262 197.144 155.69 198.65C161.701 205.09 167.938 211.643 175.828 215.598C190.292 222.829 207.575 220.155 223.467 223.205C228.051 224.109 233.686 227.273 232.559 231.792C228.953 246.028 202.165 240.68 192.547 240.491L138.67 239.475Z" fill="#1D2741"/>
<path d="M209.98 81.9404L210.017 94.3308L214.864 107.06L218.809 105.177C219.301 104.941 219.864 104.898 220.386 105.059C220.908 105.219 221.351 105.571 221.627 106.043L222.678 107.889C222.866 108.21 222.989 108.565 223.04 108.934C223.091 109.303 223.068 109.679 222.974 110.039C222.88 110.399 222.716 110.738 222.491 111.034C222.266 111.331 221.985 111.58 221.664 111.768L221.551 111.843C218.696 113.349 212.91 116.965 211.821 116.965C210.167 116.965 205.358 109.508 205.358 109.508L209.98 81.9404Z" fill="#E61B00"/>
<path d="M220.349 105.064C220.349 105.064 218.583 106.457 219.41 107.964C220.236 109.47 223.054 109.546 223.054 109.546C223.054 109.546 225.346 105.441 220.349 105.064Z" fill="#E61B00"/>
<path d="M221.588 96.6278C222.465 96.718 223.332 96.8817 224.181 97.1174L228.088 98.0589C228.286 98.0921 228.469 98.184 228.614 98.3225C228.84 98.6238 228.501 99.0757 228.163 99.1887C227.036 99.6407 225.608 98.8121 224.594 99.49C224.031 99.8666 223.843 100.62 223.392 101.109C222.828 101.787 221.889 102.089 220.987 102.164C220.093 102.194 219.202 102.282 218.32 102.428C217.005 102.729 215.615 103.595 214.412 102.917C214.296 102.85 214.194 102.76 214.112 102.654C213.962 102.39 214.149 102.051 214.3 101.75C214.717 100.964 214.899 100.075 214.826 99.1887C214.788 97.9459 214.751 98.0589 215.99 97.607C217.794 97.0044 219.672 96.4772 221.588 96.6278Z" fill="#F1B2A4"/>
<path d="M223.28 160.915L223.167 163.513L227.713 163.476L228.014 159.898L223.28 160.915Z" fill="#F1B2A4"/>
<path d="M223.166 163.513L227.712 163.476L229.102 165.283C229.102 165.283 235.151 167.468 236.278 170.443C237.405 173.418 237.18 174.962 237.18 174.962L221.25 169.727L223.166 163.513Z" fill="#E61B00"/>
<path d="M189.991 120.015C189.991 120.015 221.964 120.241 224.594 122.086C231.883 127.171 229.628 160.086 229.628 160.086L223.129 161.969L217.869 134.025L189.991 120.015Z" fill="#25233A"/>
<path d="M151.407 158.165H124.544V176.845H151.407V158.165Z" fill="#E61B00"/>
<path d="M135.59 158.73H126.272V176.732H135.59V158.73Z" fill="url(#paint1_linear)"/>
<path d="M149.566 176.845H122.703V197.634H149.566V176.845Z" fill="#E61B00"/>
<path d="M149.566 176.845H122.703V197.634H149.566V176.845Z" fill="url(#paint2_linear)"/>
<path d="M140.624 158.165H135.777V161.969H140.624V158.165Z" fill="url(#paint3_linear)"/>
<path d="M137.994 176.77H133.147V180.574H137.994V176.77Z" fill="url(#paint4_linear)"/>
<path d="M138.557 161.969H138.182V176.77H138.557V161.969Z" fill="url(#paint5_linear)"/>
<path d="M135.965 180.573H135.589V195.374H135.965V180.573Z" fill="url(#paint6_linear)"/>
<path d="M156.929 110.977H124.919V133.234H156.929V110.977Z" fill="#E61B00"/>
<path d="M156.929 110.977H124.919V133.234H156.929V110.977Z" fill="url(#paint7_linear)"/>
<path d="M154.713 133.197H122.703V157.977H154.713V133.197Z" fill="#E61B00"/>
<path d="M154.713 133.197H122.703V157.977H154.713V133.197Z" fill="url(#paint8_linear)"/>
<path d="M144.081 110.977H138.295V115.496H144.081V110.977Z" fill="url(#paint9_linear)"/>
<path d="M140.925 133.121H135.139V137.64H140.925V133.121Z" fill="url(#paint10_linear)"/>
<path d="M141.6 115.496H141.149V133.121H141.6V115.496Z" fill="url(#paint11_linear)"/>
<path d="M138.52 137.64H138.069V155.266H138.52V137.64Z" fill="url(#paint12_linear)"/>
<path d="M126.31 142.913H89.791V168.296H126.31V142.913Z" fill="#E61B00"/>
<path d="M126.272 157.977V168.258H89.791V142.913H122.703V157.977H126.272Z" fill="url(#paint13_linear)"/>
<path d="M126.272 142.913H122.703V158.015H126.272V142.913Z" fill="url(#paint14_linear)"/>
<path d="M116.729 168.259H80.21V196.542H116.729V168.259Z" fill="#E61B00"/>
<path d="M116.729 168.259H80.21V196.542H116.729V168.259Z" fill="url(#paint15_linear)"/>
<path d="M111.582 142.913H105.007V148.072H111.582V142.913Z" fill="url(#paint16_linear)"/>
<path d="M101.024 168.183H94.4492V173.343H101.024V168.183Z" fill="url(#paint17_linear)"/>
<path d="M108.839 148.072H108.313V168.183H108.839V148.072Z" fill="url(#paint18_linear)"/>
<path d="M98.2443 173.343H97.7559V193.454H98.2443V173.343Z" fill="url(#paint19_linear)"/>
<path d="M124.544 89.1711H88.0254V114.554H124.544V89.1711Z" fill="#E61B00"/>
<path d="M124.544 89.1711H88.0254V114.554H124.544V89.1711Z" fill="url(#paint20_linear)"/>
<path d="M122.027 114.554H85.5078V142.838H122.027V114.554Z" fill="#E61B00"/>
<path d="M122.027 114.554H85.5078V142.838H122.027V114.554Z" fill="url(#paint21_linear)"/>
<path d="M109.853 89.1711H103.278V94.3307H109.853V89.1711Z" fill="url(#paint22_linear)"/>
<path d="M106.284 114.441H99.709V119.601H106.284V114.441Z" fill="url(#paint23_linear)"/>
<path d="M107.073 94.3306H106.585V114.441H107.073V94.3306Z" fill="url(#paint24_linear)"/>
<path d="M103.504 119.601H103.016V139.712H103.504V119.601Z" fill="url(#paint25_linear)"/>
<path opacity="0.46" d="M122.026 127.66V142.8C122.026 142.8 116.541 135.757 116.767 131.953C116.992 128.15 122.026 127.66 122.026 127.66Z" fill="url(#paint26_linear)"/>
<path d="M145.546 148.449L145.283 157.977H122.703V133.196H124.92V130.221L128.264 133.196L138.07 141.821L138.483 142.235L145.546 148.449Z" fill="url(#paint27_linear)"/>
<path d="M219.71 135.042H160.912V175.904H219.71V135.042Z" fill="#E61B00"/>
<path d="M219.71 135.042H160.912V175.904H219.71V135.042Z" fill="url(#paint28_linear)"/>
<path d="M204.343 175.904H145.545V221.435H204.343V175.904Z" fill="#E61B00"/>
<path d="M204.343 175.904H145.545V221.435H204.343V175.904Z" fill="url(#paint29_linear)"/>
<path d="M196.078 135.042H185.483V143.365H196.078V135.042Z" fill="url(#paint30_linear)"/>
<path d="M179.022 175.715H168.427V184.038H179.022V175.715Z" fill="url(#paint31_linear)"/>
<path d="M191.608 143.327H190.781V175.715H191.608V143.327Z" fill="url(#paint32_linear)"/>
<path d="M174.625 184.038H173.799V216.426H174.625V184.038Z" fill="url(#paint33_linear)"/>
<path d="M143.517 221.435H135.439V143.968C135.441 143.436 135.547 142.909 135.752 142.418C135.957 141.928 136.257 141.482 136.633 141.108C137.01 140.734 137.457 140.438 137.949 140.237C138.44 140.036 138.966 139.934 139.497 139.938C140.565 139.944 141.588 140.369 142.347 141.122C143.105 141.876 143.539 142.897 143.555 143.968V221.435H143.517Z" fill="#E61B00"/>
<path d="M141.224 146.792C140.337 147.478 139.214 147.784 138.101 147.643C136.989 147.502 135.978 146.925 135.288 146.039L124.543 132.255C123.858 131.365 123.553 130.239 123.694 129.124C123.835 128.009 124.41 126.995 125.294 126.304C126.177 125.612 127.297 125.298 128.41 125.432C129.523 125.567 130.537 126.137 131.231 127.02L141.976 140.804C142.323 141.245 142.579 141.75 142.73 142.291C142.88 142.833 142.922 143.398 142.852 143.956C142.782 144.513 142.602 145.051 142.322 145.538C142.043 146.025 141.67 146.451 141.224 146.792Z" fill="#E61B00"/>
<path d="M238.646 225.201C238.646 226.2 238.25 227.158 237.545 227.864C236.841 228.571 235.885 228.967 234.889 228.967H143.103C141.107 228.969 139.19 228.178 137.775 226.766C136.359 225.354 135.56 223.437 135.552 221.435H234.851C235.348 221.43 235.84 221.524 236.3 221.711C236.761 221.898 237.179 222.175 237.532 222.525C237.885 222.875 238.165 223.292 238.356 223.751C238.547 224.211 238.646 224.704 238.646 225.201Z" fill="#E61B00"/>
<path d="M238.646 225.201H143.104C141.78 225.204 140.479 224.857 139.332 224.196C138.184 223.535 137.23 222.583 136.566 221.435H234.851C235.347 221.433 235.839 221.528 236.298 221.716C236.757 221.904 237.174 222.181 237.527 222.531C237.879 222.88 238.159 223.296 238.351 223.754C238.543 224.213 238.643 224.704 238.646 225.201Z" fill="#E61B00"/>
<path d="M143.517 221.435H135.439V143.968C135.441 143.436 135.547 142.909 135.752 142.418C135.957 141.928 136.257 141.482 136.633 141.108C137.01 140.734 137.457 140.438 137.949 140.237C138.44 140.036 138.966 139.934 139.497 139.938C140.565 139.944 141.588 140.369 142.347 141.122C143.105 141.876 143.539 142.897 143.555 143.968V221.435H143.517Z" fill="url(#paint34_linear)"/>
<path d="M141.224 146.792C140.337 147.478 139.214 147.784 138.101 147.643C136.989 147.502 135.978 146.925 135.288 146.039L124.543 132.255C123.858 131.365 123.553 130.239 123.694 129.124C123.835 128.009 124.41 126.995 125.294 126.304C126.177 125.612 127.297 125.298 128.41 125.432C129.523 125.567 130.537 126.137 131.231 127.02L141.976 140.804C142.323 141.245 142.579 141.75 142.73 142.291C142.88 142.833 142.922 143.398 142.852 143.956C142.782 144.513 142.602 145.051 142.322 145.538C142.043 146.025 141.67 146.451 141.224 146.792Z" fill="url(#paint35_linear)"/>
<path d="M238.646 225.201C238.646 226.2 238.25 227.158 237.545 227.864C236.841 228.571 235.885 228.967 234.889 228.967H143.103C141.107 228.969 139.19 228.178 137.775 226.766C136.359 225.354 135.56 223.437 135.552 221.435H234.851C235.348 221.43 235.84 221.524 236.3 221.711C236.761 221.898 237.179 222.175 237.532 222.525C237.885 222.875 238.165 223.292 238.356 223.751C238.547 224.211 238.646 224.704 238.646 225.201Z" fill="url(#paint36_linear)"/>
<path d="M238.646 225.201H143.104C141.78 225.204 140.479 224.857 139.332 224.196C138.184 223.535 137.23 222.583 136.566 221.435H234.851C235.347 221.433 235.839 221.528 236.298 221.716C236.757 221.904 237.174 222.181 237.527 222.531C237.879 222.88 238.159 223.296 238.351 223.754C238.543 224.213 238.643 224.704 238.646 225.201Z" fill="url(#paint37_linear)"/>
<path d="M156.38 242.133C158.816 239.691 158.816 235.733 156.38 233.291C153.945 230.85 149.996 230.85 147.56 233.291C145.125 235.733 145.125 239.691 147.56 242.133C149.996 244.574 153.945 244.574 156.38 242.133Z" fill="#E61B00"/>
<path opacity="0.57" d="M152.008 239.776C153.046 239.776 153.887 238.933 153.887 237.893C153.887 236.853 153.046 236.01 152.008 236.01C150.971 236.01 150.13 236.853 150.13 237.893C150.13 238.933 150.971 239.776 152.008 239.776Z" fill="#1D2741"/>
<path d="M153.586 237.102H149.528V228.968H157.681L153.586 237.102Z" fill="url(#paint38_linear)"/>
<path d="M220.649 243.956C224.093 243.956 226.886 241.158 226.886 237.705C226.886 234.252 224.093 231.453 220.649 231.453C217.204 231.453 214.412 234.252 214.412 237.705C214.412 241.158 217.204 243.956 220.649 243.956Z" fill="#E61B00"/>
<path d="M158.132 238.715C158.684 235.307 156.375 232.095 152.975 231.542C149.575 230.989 146.371 233.303 145.82 236.711C145.268 240.12 147.577 243.331 150.976 243.884C154.376 244.437 157.58 242.123 158.132 238.715Z" fill="url(#paint39_linear)"/>
<path d="M220.649 243.956C224.093 243.956 226.886 241.158 226.886 237.705C226.886 234.252 224.093 231.453 220.649 231.453C217.204 231.453 214.412 234.252 214.412 237.705C214.412 241.158 217.204 243.956 220.649 243.956Z" fill="url(#paint40_linear)"/>
<path opacity="0.57" d="M218.733 237.893C218.733 238.265 218.844 238.63 219.05 238.939C219.256 239.249 219.55 239.49 219.893 239.633C220.236 239.775 220.614 239.813 220.978 239.74C221.343 239.667 221.678 239.488 221.94 239.225C222.203 238.961 222.382 238.626 222.454 238.26C222.527 237.895 222.49 237.517 222.347 237.172C222.205 236.828 221.965 236.534 221.656 236.327C221.347 236.12 220.983 236.01 220.612 236.01C220.114 236.01 219.636 236.208 219.284 236.562C218.931 236.915 218.733 237.394 218.733 237.893Z" fill="#1D2741"/>
<path d="M219.034 237.102H223.129V228.968H214.977L219.034 237.102Z" fill="#E61B00"/>
<path d="M153.586 237.102H149.528V228.968H157.681L153.586 237.102Z" fill="#E61B00"/>
<path d="M153.586 237.102H149.528V228.968H157.681L153.586 237.102Z" fill="url(#paint41_linear)"/>
<path d="M219.034 237.102H223.129V228.968H214.977L219.034 237.102Z" fill="url(#paint42_linear)"/>
<path opacity="0.2" d="M166.134 136.059H160.912V175.753H166.134V136.059Z" fill="url(#paint43_linear)"/>
<path opacity="0.2" d="M150.919 176.356H145.696V220.381H150.919V176.356Z" fill="url(#paint44_linear)"/>
<path d="M183.867 119.601C183.867 119.601 181.876 131.449 190.329 134.085C198.783 136.722 219.71 135.027 219.71 135.027L238.946 157.849L243.717 151.409L226.36 127.532C223.063 124.024 218.57 121.887 213.774 121.544L183.867 119.601Z" fill="#3F3D56"/>
<path d="M238.984 157.864L240.976 159.521L243.718 155.906L242.103 153.646L238.984 157.864Z" fill="#F1B2A4"/>
<path d="M240.975 159.521L243.717 155.906H245.972C245.972 155.906 251.382 152.441 254.462 153.383C257.543 154.324 258.595 155.454 258.595 155.454L244.694 164.869L240.975 159.521Z" fill="#E61B00"/>
<path d="M223.166 163.513L227.712 163.476L229.102 165.283C229.102 165.283 235.151 167.468 236.278 170.443C237.405 173.418 237.18 174.962 237.18 174.962L221.25 169.727L223.166 163.513Z" fill="url(#paint45_linear)"/>
<path d="M240.975 159.521L243.717 155.906H245.972C245.972 155.906 251.382 152.441 254.462 153.383C257.543 154.324 258.595 155.454 258.595 155.454L244.694 164.869L240.975 159.521Z" fill="url(#paint46_linear)"/>
<path d="M204.982 120.317H183.792L183.567 120.204C182.891 119.827 181.162 118.396 181.35 114.554C181.5 111.768 183.98 101.561 186.009 93.5774C187.437 87.8907 188.676 83.2961 188.676 83.2961C188.676 83.2961 191.306 76.3665 195.702 74.5588C197.355 73.8809 199.459 72.7511 201.751 73.1654C205.546 73.9186 209.453 77.3457 210.017 81.978C210.467 85.857 204.982 120.317 204.982 120.317Z" fill="#E61B00"/>
<path d="M204.982 120.317H183.792L183.567 120.204C182.891 119.827 181.162 118.396 181.35 114.554C181.5 111.768 183.98 101.561 186.009 93.5774C187.437 87.8907 188.676 83.2961 188.676 83.2961C188.676 83.2961 191.306 76.3665 195.702 74.5588C197.355 73.8809 199.459 72.7511 201.751 73.1654C205.546 73.9186 209.453 77.3457 210.017 81.978C210.467 85.857 204.982 120.317 204.982 120.317Z" fill="url(#paint47_linear)"/>
<path d="M191.194 103.204C191.194 103.204 186.385 115.933 189.991 120L183.567 120.189C182.891 119.812 181.162 118.381 181.35 114.539C181.5 111.753 183.98 101.547 186.009 93.5625L194.5 81.9404L191.194 103.204Z" fill="url(#paint48_linear)"/>
<path d="M201.714 73.1277L203.968 66.9137C203.968 66.9137 206.598 56.9336 212.647 56.4064C218.696 55.8791 223.768 60.2854 221.213 67.2903C218.658 74.2952 217.381 75.3874 214.901 75.8393C212.422 76.2912 210.092 75.1237 210.092 75.1237L207.913 78.4379C207.951 78.4379 207.237 80.3586 201.714 73.1277Z" fill="#F1B2A4"/>
<path d="M191.044 80.3208C191.044 80.3208 180.75 95.2345 181.313 99.1135C181.99 103.67 201.451 104.386 209.416 104.612C210.44 104.654 211.449 104.351 212.28 103.75C213.111 103.149 213.717 102.285 214 101.298V101.26C214.345 100.082 214.211 98.8138 213.627 97.7341C213.042 96.6544 212.055 95.8504 210.881 95.4981C210.66 95.43 210.434 95.3796 210.205 95.3474L196.868 93.5397L203.142 81.5636C204.757 76.4795 198.746 72.3368 194.613 75.6886C193.137 76.9881 191.926 78.561 191.044 80.3208Z" fill="#E61B00"/>
<path d="M215.164 97.6824L213.511 97.4941L212.384 103.67H214.225L215.164 97.6824Z" fill="#E61B00"/>
<path d="M220.349 105.064C220.349 105.064 218.583 106.457 219.41 107.964C220.236 109.47 223.054 109.546 223.054 109.546C223.054 109.546 225.346 105.441 220.349 105.064Z" fill="url(#paint49_linear)"/>
<path d="M215.164 97.6824L213.511 97.4941L212.384 103.67H214.225L215.164 97.6824Z" fill="url(#paint50_linear)"/>
<path d="M209.491 65.332C208.965 65.106 209.416 64.2022 209.078 63.7502C208.74 63.2983 208.138 63.5619 207.763 63.9009C207.393 64.2514 207.125 64.6953 206.986 65.1857C206.848 65.6762 206.843 66.195 206.974 66.6878C207.099 66.9979 207.151 67.3333 207.124 67.6669C206.936 68.3448 206.035 68.4202 205.358 68.2695C204.682 68.1189 203.931 67.8176 203.367 68.1942C202.879 67.3657 203.217 66.3112 203.592 65.445C204.259 63.8701 205.063 62.3577 205.997 60.9257C206.222 60.6253 206.376 60.2776 206.448 59.9089C206.523 59.3439 206.185 58.8544 205.997 58.3648C205.02 55.9921 206.373 53.0923 208.627 51.8495C210.881 50.6067 213.699 50.8326 216.028 51.8495C216.892 52.2261 217.719 52.7157 218.621 52.904C219.973 53.1676 221.363 52.791 222.753 52.791C223.829 52.8287 224.88 53.1214 225.82 53.6451C226.761 54.1688 227.564 54.9087 228.164 55.8038C228.742 56.7209 229.094 57.7625 229.192 58.8428C229.29 59.9231 229.131 61.0113 228.727 62.0178C228.239 63.1853 227.037 64.3528 225.872 63.9385C225.383 63.7879 225.008 63.3736 224.557 63.11C224.106 62.8464 223.43 62.8087 223.129 63.223C223.063 63.33 222.988 63.4308 222.904 63.5243C222.49 63.8256 222.152 63.11 221.927 62.6957C221.401 61.6789 219.973 61.7166 218.846 61.7542C217.75 61.7788 216.655 61.6905 215.577 61.4906C214.788 61.34 213.736 60.8127 212.948 61.0387C211.971 61.1893 209.604 65.3696 209.491 65.332Z" fill="#3F3D56"/>
<path d="M237.706 92.8242L238.683 93.9917L216.441 110.073L215.577 108.83L237.706 92.8242Z" fill="url(#paint51_linear)"/>
<path d="M220.349 107.286C220.349 107.286 220.724 108.529 222.678 107.889C224.632 107.248 228.126 105.177 228.426 104.65C228.727 104.122 231.733 100.997 231.545 99.2266L220.349 107.286Z" fill="#F1B2A4"/>
<defs>
<linearGradient id="paint0_linear" x1="94.3634" y1="148.716" x2="305.731" y2="361.728" gradientUnits="userSpaceOnUse">
<stop stop-opacity="0"/>
<stop offset="0.91" stop-opacity="0.8"/>
<stop offset="1"/>
</linearGradient>
<linearGradient id="paint1_linear" x1="2332.11" y1="8781.06" x2="2952.73" y2="8870.91" gradientUnits="userSpaceOnUse">
<stop stop-opacity="0"/>
<stop offset="0.91" stop-opacity="0.8"/>
<stop offset="1"/>
</linearGradient>
<linearGradient id="paint2_linear" x1="7037.8" y1="11123.8" x2="7780.01" y2="12736.6" gradientUnits="userSpaceOnUse">
<stop stop-opacity="0"/>
<stop offset="0.91" stop-opacity="0.8"/>
<stop offset="1"/>
</linearGradient>
<linearGradient id="paint3_linear" x1="135.77" y1="160.067" x2="140.609" y2="160.067" gradientUnits="userSpaceOnUse">
<stop stop-color="#183866"/>
<stop offset="1" stop-color="#1A7FC1"/>
</linearGradient>
<linearGradient id="paint4_linear" x1="1443.47" y1="2039.03" x2="1239.88" y2="2178.36" gradientUnits="userSpaceOnUse">
<stop stop-opacity="0"/>
<stop offset="0.91" stop-opacity="0.8"/>
<stop offset="1"/>
</linearGradient>
<linearGradient id="paint5_linear" x1="144.133" y1="168.055" x2="137.083" y2="169.656" gradientUnits="userSpaceOnUse">
<stop stop-color="#68E1FD"/>
<stop offset="1" stop-color="#69B9EB"/>
</linearGradient>
<linearGradient id="paint6_linear" x1="239.668" y1="1104.58" x2="232.255" y2="1104.53" gradientUnits="userSpaceOnUse">
<stop stop-color="#68E1FD"/>
<stop offset="1" stop-color="#69B9EB"/>
</linearGradient>
<linearGradient id="paint7_linear" x1="132.764" y1="113.104" x2="162.044" y2="145.235" gradientUnits="userSpaceOnUse">
<stop stop-color="white" stop-opacity="0"/>
<stop offset="0.09" stop-color="white" stop-opacity="0.05"/>
<stop offset="0.24" stop-color="white" stop-opacity="0.17"/>
<stop offset="0.45" stop-color="white" stop-opacity="0.37"/>
<stop offset="0.69" stop-color="white" stop-opacity="0.65"/>
<stop offset="0.98" stop-color="white"/>
</linearGradient>
<linearGradient id="paint8_linear" x1="7591.97" y1="5439" x2="9742.1" y2="2165.83" gradientUnits="userSpaceOnUse">
<stop stop-color="white" stop-opacity="0"/>
<stop offset="0.09" stop-color="white" stop-opacity="0.05"/>
<stop offset="0.24" stop-color="white" stop-opacity="0.17"/>
<stop offset="0.45" stop-color="white" stop-opacity="0.37"/>
<stop offset="0.69" stop-color="white" stop-opacity="0.65"/>
<stop offset="0.98" stop-color="white"/>
</linearGradient>
<linearGradient id="paint9_linear" x1="1731.05" y1="-2666.22" x2="1703.8" y2="1474.59" gradientUnits="userSpaceOnUse">
<stop stop-opacity="0"/>
<stop offset="0.91" stop-opacity="0.8"/>
<stop offset="1"/>
</linearGradient>
<linearGradient id="paint10_linear" x1="1682.19" y1="-2688.64" x2="1654.93" y2="1452.13" gradientUnits="userSpaceOnUse">
<stop stop-opacity="0"/>
<stop offset="0.91" stop-opacity="0.8"/>
<stop offset="1"/>
</linearGradient>
<linearGradient id="paint11_linear" x1="243.726" y1="5950.36" x2="-1258.39" y2="7402.36" gradientUnits="userSpaceOnUse">
<stop stop-opacity="0"/>
<stop offset="0.91" stop-opacity="0.8"/>
<stop offset="1"/>
</linearGradient>
<linearGradient id="paint12_linear" x1="267.29" y1="3192.79" x2="256.692" y2="3192.73" gradientUnits="userSpaceOnUse">
<stop stop-color="#68E1FD"/>
<stop offset="1" stop-color="#69B9EB"/>
</linearGradient>
<linearGradient id="paint13_linear" x1="5492.64" y1="4859.23" x2="7157.07" y2="2043.27" gradientUnits="userSpaceOnUse">
<stop stop-color="white" stop-opacity="0"/>
<stop offset="0.09" stop-color="white" stop-opacity="0.05"/>
<stop offset="0.24" stop-color="white" stop-opacity="0.17"/>
<stop offset="0.45" stop-color="white" stop-opacity="0.37"/>
<stop offset="0.69" stop-color="white" stop-opacity="0.65"/>
<stop offset="0.98" stop-color="white"/>
</linearGradient>
<linearGradient id="paint14_linear" x1="881.98" y1="2873.04" x2="1202.76" y2="2783.93" gradientUnits="userSpaceOnUse">
<stop stop-color="white" stop-opacity="0"/>
<stop offset="0.09" stop-color="white" stop-opacity="0.05"/>
<stop offset="0.24" stop-color="white" stop-opacity="0.17"/>
<stop offset="0.45" stop-color="white" stop-opacity="0.37"/>
<stop offset="0.69" stop-color="white" stop-opacity="0.65"/>
<stop offset="0.98" stop-color="white"/>
</linearGradient>
<linearGradient id="paint15_linear" x1="5354.24" y1="2779.36" x2="7601.56" y2="-219.129" gradientUnits="userSpaceOnUse">
<stop stop-color="white" stop-opacity="0"/>
<stop offset="0.09" stop-color="white" stop-opacity="0.05"/>
<stop offset="0.24" stop-color="white" stop-opacity="0.17"/>
<stop offset="0.45" stop-color="white" stop-opacity="0.37"/>
<stop offset="0.69" stop-color="white" stop-opacity="0.65"/>
<stop offset="0.98" stop-color="white"/>
</linearGradient>
<linearGradient id="paint16_linear" x1="1347.2" y1="-3100.92" x2="1315.98" y2="1626.51" gradientUnits="userSpaceOnUse">
<stop stop-opacity="0"/>
<stop offset="0.91" stop-opacity="0.8"/>
<stop offset="1"/>
</linearGradient>
<linearGradient id="paint17_linear" x1="1155.64" y1="-3127.37" x2="1124.38" y2="1600" gradientUnits="userSpaceOnUse">
<stop stop-opacity="0"/>
<stop offset="0.91" stop-opacity="0.8"/>
<stop offset="1"/>
</linearGradient>
<linearGradient id="paint18_linear" x1="186.131" y1="8258.26" x2="-1807.96" y2="10099.7" gradientUnits="userSpaceOnUse">
<stop stop-opacity="0"/>
<stop offset="0.91" stop-opacity="0.8"/>
<stop offset="1"/>
</linearGradient>
<linearGradient id="paint19_linear" x1="154.08" y1="9727.09" x2="-714.878" y2="12861.1" gradientUnits="userSpaceOnUse">
<stop stop-opacity="0"/>
<stop offset="0.91" stop-opacity="0.8"/>
<stop offset="1"/>
</linearGradient>
<linearGradient id="paint20_linear" x1="4957.43" y1="8275.02" x2="8257.17" y2="4951.71" gradientUnits="userSpaceOnUse">
<stop stop-color="white" stop-opacity="0"/>
<stop offset="0.09" stop-color="white" stop-opacity="0.05"/>
<stop offset="0.24" stop-color="white" stop-opacity="0.17"/>
<stop offset="0.45" stop-color="white" stop-opacity="0.37"/>
<stop offset="0.69" stop-color="white" stop-opacity="0.65"/>
<stop offset="0.98" stop-color="white"/>
</linearGradient>
<linearGradient id="paint21_linear" x1="4401.29" y1="7581.59" x2="8081.01" y2="3697.73" gradientUnits="userSpaceOnUse">
<stop stop-color="white" stop-opacity="0"/>
<stop offset="0.09" stop-color="white" stop-opacity="0.05"/>
<stop offset="0.24" stop-color="white" stop-opacity="0.17"/>
<stop offset="0.45" stop-color="white" stop-opacity="0.37"/>
<stop offset="0.69" stop-color="white" stop-opacity="0.65"/>
<stop offset="0.98" stop-color="white"/>
</linearGradient>
<linearGradient id="paint22_linear" x1="1307.34" y1="-3047.43" x2="1276.08" y2="1679.99" gradientUnits="userSpaceOnUse">
<stop stop-opacity="0"/>
<stop offset="0.91" stop-opacity="0.8"/>
<stop offset="1"/>
</linearGradient>
<linearGradient id="paint23_linear" x1="1244.99" y1="-3073.06" x2="1213.77" y2="1654.31" gradientUnits="userSpaceOnUse">
<stop stop-opacity="0"/>
<stop offset="0.91" stop-opacity="0.8"/>
<stop offset="1"/>
</linearGradient>
<linearGradient id="paint24_linear" x1="174.021" y1="5672.98" x2="1701.32" y2="8889.38" gradientUnits="userSpaceOnUse">
<stop stop-opacity="0"/>
<stop offset="0.91" stop-opacity="0.8"/>
<stop offset="1"/>
</linearGradient>
<linearGradient id="paint25_linear" x1="166.231" y1="6870.9" x2="-1441.54" y2="10903.7" gradientUnits="userSpaceOnUse">
<stop stop-opacity="0"/>
<stop offset="0.91" stop-opacity="0.8"/>
<stop offset="1"/>
</linearGradient>
<linearGradient id="paint26_linear" x1="111.27" y1="134.729" x2="143.111" y2="136.206" gradientUnits="userSpaceOnUse">
<stop stop-opacity="0"/>
<stop offset="0.84" stop-opacity="0.66"/>
<stop offset="0.91" stop-opacity="0.8"/>
<stop offset="1"/>
</linearGradient>
<linearGradient id="paint27_linear" x1="6147.15" y1="11561.2" x2="4396.6" y2="13846.2" gradientUnits="userSpaceOnUse">
<stop stop-opacity="0"/>
<stop offset="0.84" stop-opacity="0.66"/>
<stop offset="0.91" stop-opacity="0.8"/>
<stop offset="1"/>
</linearGradient>
<linearGradient id="paint28_linear" x1="22340.1" y1="7922.48" x2="25511.3" y2="943.457" gradientUnits="userSpaceOnUse">
<stop stop-color="white" stop-opacity="0"/>
<stop offset="0.09" stop-color="white" stop-opacity="0.05"/>
<stop offset="0.24" stop-color="white" stop-opacity="0.17"/>
<stop offset="0.45" stop-color="white" stop-opacity="0.37"/>
<stop offset="0.69" stop-color="white" stop-opacity="0.65"/>
<stop offset="0.98" stop-color="white"/>
</linearGradient>
<linearGradient id="paint29_linear" x1="17061.8" y1="1566.44" x2="26263.7" y2="1566.44" gradientUnits="userSpaceOnUse">
<stop stop-color="white" stop-opacity="0"/>
<stop offset="0.09" stop-color="white" stop-opacity="0.05"/>
<stop offset="0.24" stop-color="white" stop-opacity="0.17"/>
<stop offset="0.45" stop-color="white" stop-opacity="0.37"/>
<stop offset="0.69" stop-color="white" stop-opacity="0.65"/>
<stop offset="0.98" stop-color="white"/>
</linearGradient>
<linearGradient id="paint30_linear" x1="4525.4" y1="-5051.44" x2="4474.99" y2="2574.46" gradientUnits="userSpaceOnUse">
<stop stop-opacity="0"/>
<stop offset="0.91" stop-opacity="0.8"/>
<stop offset="1"/>
</linearGradient>
<linearGradient id="paint31_linear" x1="4037.08" y1="-5095.2" x2="3986.6" y2="2530.71" gradientUnits="userSpaceOnUse">
<stop stop-opacity="0"/>
<stop offset="0.91" stop-opacity="0.8"/>
<stop offset="1"/>
</linearGradient>
<linearGradient id="paint32_linear" x1="505.483" y1="11884.1" x2="6354.71" y2="24306.6" gradientUnits="userSpaceOnUse">
<stop stop-opacity="0"/>
<stop offset="0.91" stop-opacity="0.8"/>
<stop offset="1"/>
</linearGradient>
<linearGradient id="paint33_linear" x1="450.878" y1="14599.7" x2="6300.16" y2="27022.2" gradientUnits="userSpaceOnUse">
<stop stop-opacity="0"/>
<stop offset="0.91" stop-opacity="0.8"/>
<stop offset="1"/>
</linearGradient>
<linearGradient id="paint34_linear" x1="3169.79" y1="-5953.92" x2="3344.59" y2="-5953.92" gradientUnits="userSpaceOnUse">
<stop stop-color="white" stop-opacity="0"/>
<stop offset="0.09" stop-color="white" stop-opacity="0.05"/>
<stop offset="0.24" stop-color="white" stop-opacity="0.17"/>
<stop offset="0.45" stop-color="white" stop-opacity="0.37"/>
<stop offset="0.69" stop-color="white" stop-opacity="0.65"/>
<stop offset="0.98" stop-color="white"/>
</linearGradient>
<linearGradient id="paint35_linear" x1="6771.34" y1="-4137.13" x2="7755.26" y2="-4137.13" gradientUnits="userSpaceOnUse">
<stop stop-color="white" stop-opacity="0"/>
<stop offset="0.09" stop-color="white" stop-opacity="0.05"/>
<stop offset="0.24" stop-color="white" stop-opacity="0.17"/>
<stop offset="0.45" stop-color="white" stop-opacity="0.37"/>
<stop offset="0.69" stop-color="white" stop-opacity="0.65"/>
<stop offset="0.98" stop-color="white"/>
</linearGradient>
<linearGradient id="paint36_linear" x1="39241.9" y1="366.807" x2="67530.9" y2="366.807" gradientUnits="userSpaceOnUse">
<stop stop-color="white" stop-opacity="0"/>
<stop offset="0.09" stop-color="white" stop-opacity="0.05"/>
<stop offset="0.24" stop-color="white" stop-opacity="0.17"/>
<stop offset="0.45" stop-color="white" stop-opacity="0.37"/>
<stop offset="0.69" stop-color="white" stop-opacity="0.65"/>
<stop offset="0.98" stop-color="white"/>
</linearGradient>
<linearGradient id="paint37_linear" x1="39133.3" y1="183.468" x2="66868.3" y2="183.468" gradientUnits="userSpaceOnUse">
<stop stop-color="white" stop-opacity="0"/>
<stop offset="0.09" stop-color="white" stop-opacity="0.05"/>
<stop offset="0.24" stop-color="white" stop-opacity="0.17"/>
<stop offset="0.45" stop-color="white" stop-opacity="0.37"/>
<stop offset="0.69" stop-color="white" stop-opacity="0.65"/>
<stop offset="0.98" stop-color="white"/>
</linearGradient>
<linearGradient id="paint38_linear" x1="2581.52" y1="-264.889" x2="2758.44" y2="-264.889" gradientUnits="userSpaceOnUse">
<stop stop-color="white" stop-opacity="0"/>
<stop offset="0.09" stop-color="white" stop-opacity="0.05"/>
<stop offset="0.24" stop-color="white" stop-opacity="0.17"/>
<stop offset="0.45" stop-color="white" stop-opacity="0.37"/>
<stop offset="0.69" stop-color="white" stop-opacity="0.65"/>
<stop offset="0.98" stop-color="white"/>
</linearGradient>
<linearGradient id="paint39_linear" x1="3939.43" y1="9367.25" x2="3950.08" y2="8342.85" gradientUnits="userSpaceOnUse">
<stop stop-opacity="0"/>
<stop offset="0.91" stop-opacity="0.8"/>
<stop offset="1"/>
</linearGradient>
<linearGradient id="paint40_linear" x1="6265.45" y1="9390.63" x2="6275.97" y2="8366.23" gradientUnits="userSpaceOnUse">
<stop stop-opacity="0"/>
<stop offset="0.91" stop-opacity="0.8"/>
<stop offset="1"/>
</linearGradient>
<linearGradient id="paint41_linear" x1="2553.72" y1="-224.623" x2="2729.82" y2="-285.876" gradientUnits="userSpaceOnUse">
<stop stop-color="white" stop-opacity="0"/>
<stop offset="0.09" stop-color="white" stop-opacity="0.05"/>
<stop offset="0.24" stop-color="white" stop-opacity="0.17"/>
<stop offset="0.45" stop-color="white" stop-opacity="0.37"/>
<stop offset="0.69" stop-color="white" stop-opacity="0.65"/>
<stop offset="0.98" stop-color="white"/>
</linearGradient>
<linearGradient id="paint42_linear" x1="4067.2" y1="-264.889" x2="4244.11" y2="-264.889" gradientUnits="userSpaceOnUse">
<stop stop-color="white" stop-opacity="0"/>
<stop offset="0.09" stop-color="white" stop-opacity="0.05"/>
<stop offset="0.24" stop-color="white" stop-opacity="0.17"/>
<stop offset="0.45" stop-color="white" stop-opacity="0.37"/>
<stop offset="0.69" stop-color="white" stop-opacity="0.65"/>
<stop offset="0.98" stop-color="white"/>
</linearGradient>
<linearGradient id="paint43_linear" x1="2068.89" y1="7048.03" x2="1452.2" y2="6966.24" gradientUnits="userSpaceOnUse">
<stop stop-color="#183866"/>
<stop offset="1" stop-color="#1A7FC1"/>
</linearGradient>
<linearGradient id="paint44_linear" x1="1857.16" y1="3006.3" x2="1178.74" y2="2925.16" gradientUnits="userSpaceOnUse">
<stop stop-color="#183866"/>
<stop offset="1" stop-color="#1A7FC1"/>
</linearGradient>
<linearGradient id="paint45_linear" x1="8348.54" y1="5711.87" x2="8294.73" y2="4996.57" gradientUnits="userSpaceOnUse">
<stop stop-opacity="0"/>
<stop offset="0.91" stop-opacity="0.8"/>
<stop offset="1"/>
</linearGradient>
<linearGradient id="paint46_linear" x1="10244.6" y1="5710.05" x2="10194.4" y2="4984.11" gradientUnits="userSpaceOnUse">
<stop stop-opacity="0"/>
<stop offset="0.91" stop-opacity="0.8"/>
<stop offset="1"/>
</linearGradient>
<linearGradient id="paint47_linear" x1="13337.4" y1="13910.8" x2="8633.56" y2="14278.1" gradientUnits="userSpaceOnUse">
<stop stop-opacity="0"/>
<stop offset="0.91" stop-opacity="0.8"/>
<stop offset="1"/>
</linearGradient>
<linearGradient id="paint48_linear" x1="5561.29" y1="11823.2" x2="4562.39" y2="11888.1" gradientUnits="userSpaceOnUse">
<stop stop-opacity="0"/>
<stop offset="0.91" stop-opacity="0.8"/>
<stop offset="1"/>
</linearGradient>
<linearGradient id="paint49_linear" x1="2368.77" y1="1459.5" x2="2365.56" y2="1594.53" gradientUnits="userSpaceOnUse">
<stop stop-opacity="0"/>
<stop offset="0.91" stop-opacity="0.8"/>
<stop offset="1"/>
</linearGradient>
<linearGradient id="paint50_linear" x1="1516.18" y1="1935.12" x2="1420.38" y2="1929.95" gradientUnits="userSpaceOnUse">
<stop stop-opacity="0"/>
<stop offset="0.91" stop-opacity="0.8"/>
<stop offset="1"/>
</linearGradient>
<linearGradient id="paint51_linear" x1="225.293" y1="98.2812" x2="227.717" y2="102.392" gradientUnits="userSpaceOnUse">
<stop offset="0.09" stop-color="#68E1FD"/>
<stop offset="0.2" stop-color="#65D5F1"/>
<stop offset="0.4" stop-color="#5DB7D2"/>
<stop offset="0.66" stop-color="#51859F"/>
<stop offset="0.97" stop-color="#404059"/>
<stop offset="0.99" stop-color="#3F3D56"/>
</linearGradient>
</defs>
</svg>
