<svg width="325" height="325" viewBox="0 0 325 325" fill="none" xmlns="http://www.w3.org/2000/svg">
<g clip-path="url(#clip0)">
<path opacity="0.24" d="M41.2337 154.284C50.4856 142.54 63.6827 134.938 74.1269 124.32C79.3873 118.982 83.9313 112.88 89.4783 107.894C102.225 96.4802 119.506 91.7504 136.3 91.5742C153.095 91.3981 169.654 95.3912 185.937 99.6405C210.126 105.951 234.734 113.152 255.054 128.233C262.321 133.625 268.906 139.935 275.472 146.223C281.653 152.149 288.08 158.464 290.66 166.797C294.856 180.346 287.799 194.557 285.031 208.48C283.966 213.861 283.496 219.525 280.891 224.303C274.75 235.54 260.177 237.189 247.793 237.531L117.075 241.124C91.9499 241.818 64.7624 241.877 44.4524 226.422C31.9921 216.898 32.7444 206.996 33.1947 193.004C33.6757 178.131 31.199 167.027 41.2337 154.284Z" fill="#E61B00"/>
<path d="M267.14 162.174H237.251C230.279 162.174 224.627 168.071 224.627 175.344V227.068C224.627 234.341 230.279 240.238 237.251 240.238H267.14C274.112 240.238 279.764 234.341 279.764 227.068V175.344C279.764 168.071 274.112 162.174 267.14 162.174Z" fill="#E61B00"/>
<path d="M267.14 162.174H237.251C230.279 162.174 224.627 168.071 224.627 175.344V227.068C224.627 234.341 230.279 240.238 237.251 240.238H267.14C274.112 240.238 279.764 234.341 279.764 227.068V175.344C279.764 168.071 274.112 162.174 267.14 162.174Z" fill="url(#paint0_linear)"/>
<path opacity="0.28" d="M252.198 162.174H243.008V221.975H252.198V162.174Z" fill="url(#paint1_linear)"/>
<path d="M277.759 223.347H241.519C238.475 223.347 236.008 225.921 236.008 229.096V236.314C236.008 239.489 238.475 242.063 241.519 242.063H277.759C280.802 242.063 283.27 239.489 283.27 236.314V229.096C283.27 225.921 280.802 223.347 277.759 223.347Z" fill="#E61B00"/>
<path d="M277.047 225.776H243.259C240.704 225.776 238.633 227.937 238.633 230.602V235.417C238.633 238.082 240.704 240.243 243.259 240.243H277.047C279.602 240.243 281.673 238.082 281.673 235.417V230.602C281.673 227.937 279.602 225.776 277.047 225.776Z" fill="url(#paint2_linear)"/>
<path d="M271.306 170.545H242.133V203.413H271.306V170.545Z" fill="url(#paint3_linear)"/>
<path d="M229.13 146.159L211.43 144.899L196.651 100.084L136.479 90.6132L114.746 113.648L108.135 105.828L131.162 77.6943L205.852 88.243L229.13 146.159ZM213.093 142.636L225.599 143.522L204.256 90.4317L132.073 80.2354L111.154 105.806L114.838 110.157L135.665 88.0775L198.361 97.9428L213.093 142.636Z" fill="#E61B00"/>
<path d="M229.13 146.159L211.43 144.899L196.651 100.084L136.479 90.6132L114.746 113.648L108.135 105.828L131.162 77.6943L205.852 88.243L229.13 146.159ZM213.093 142.636L225.599 143.522L204.256 90.4317L132.073 80.2354L111.154 105.806L114.838 110.157L135.665 88.0775L198.361 97.9428L213.093 142.636Z" fill="url(#paint4_linear)"/>
<path d="M232.257 135.28L213.042 84.6876L133.266 72.3026L104.328 107.248L110.561 114.935V129.765H109.399V115.378L102.793 107.237L132.805 71L213.876 83.5879L233.337 134.831L232.257 135.28Z" fill="#E61B00"/>
<path d="M232.41 145.022L214.71 143.762L199.932 98.9196L139.759 89.4707L118.032 112.506L111.415 104.69L134.442 76.5571L209.153 87.1165L232.41 145.022ZM216.378 141.493L228.879 142.385L207.541 89.3105L135.358 79.0875L114.439 104.664L118.124 109.02L138.94 86.9403L201.641 96.7843L216.378 141.493Z" fill="#E61B00"/>
<path d="M216.706 143.335L214.388 141.92L221.619 129.044L209.092 125.58L216.492 114.663L204.354 111.497L210.776 101.13L199.37 97.2274L196.069 89.2038L184.883 96.133L178.159 86.5773L167.669 93.6987L161.932 84.5861L154.118 91.4886L146.96 81.8849L136.372 91.3231L126.951 90.9388L128 101.856L119.782 100.318L119.439 109.388L116.753 109.276L117.495 98.1883L124.976 98.4445L124.93 88.9796L135.425 88.4831L147.067 78.7512L154.518 87.4635L162.383 81.4898L168.431 90.8053L178.389 83.3529L185.589 92.9033L196.77 85.7125L201.355 94.9639L213.836 100.014L208.647 109.73L219.27 113.328L213.099 124.047L224.919 127.48L216.706 143.335Z" fill="#E61B00"/>
<path d="M239.513 132.413H88.4853C83.0337 132.413 78.6143 137.023 78.6143 142.711V233.143C78.6143 238.83 83.0337 243.441 88.4853 243.441H239.513C244.965 243.441 249.384 238.83 249.384 233.143V142.711C249.384 137.023 244.965 132.413 239.513 132.413Z" fill="#E61B00"/>
<path d="M238.04 131.196H89.555C84.1571 131.196 79.7812 135.761 79.7812 141.392V231.622C79.7812 237.253 84.1571 241.818 89.555 241.818H238.04C243.438 241.818 247.813 237.253 247.813 231.622V141.392C247.813 135.761 243.438 131.196 238.04 131.196Z" fill="url(#paint5_linear)"/>
<path d="M236.351 136.774H91.847C86.8617 136.774 82.8203 140.991 82.8203 146.191V224.917C82.8203 230.117 86.8617 234.333 91.847 234.333H236.351C241.336 234.333 245.377 230.117 245.377 224.917V146.191C245.377 140.991 241.336 136.774 236.351 136.774Z" fill="white"/>
<path opacity="0.24" d="M138.271 150.745H93.6592V177.218H138.271V150.745Z" fill="#E61B00"/>
<path d="M254.256 244.807V248.731C254.257 249.423 254.128 250.109 253.874 250.749C253.621 251.389 253.249 251.97 252.78 252.46C252.31 252.949 251.753 253.337 251.14 253.602C250.526 253.866 249.869 254.001 249.205 254H76.4755C75.8118 254.001 75.1545 253.866 74.5411 253.602C73.9277 253.337 73.3704 252.949 72.9011 252.46C72.4319 251.97 72.0599 251.389 71.8065 250.749C71.5532 250.109 71.4235 249.423 71.4248 248.731V244.807C71.423 244.273 71.5007 243.742 71.6551 243.232C71.9765 242.163 72.618 241.228 73.4854 240.566C74.3529 239.904 75.4008 239.55 76.4755 239.554H249.205C250.279 239.549 251.327 239.904 252.194 240.566C253.06 241.228 253.701 242.162 254.021 243.232C254.179 243.741 254.259 244.273 254.256 244.807Z" fill="#E61B00"/>
<path d="M254.021 243.217C253.702 244.289 253.062 245.226 252.196 245.892C251.329 246.557 250.281 246.916 249.205 246.916H76.4756C75.3989 246.917 74.3503 246.558 73.483 245.892C72.6157 245.227 71.9752 244.289 71.6553 243.217C71.9767 242.147 72.6181 241.212 73.4856 240.55C74.3531 239.888 75.4009 239.534 76.4756 239.538H249.205C250.28 239.533 251.327 239.888 252.194 240.55C253.061 241.212 253.701 242.147 254.021 243.217Z" fill="url(#paint6_linear)"/>
<path d="M137.825 239.41H187.973V241.546C187.973 242.233 187.844 242.913 187.592 243.548C187.34 244.182 186.97 244.759 186.505 245.245C186.039 245.731 185.486 246.116 184.878 246.379C184.269 246.642 183.617 246.777 182.959 246.777H142.84C142.181 246.777 141.529 246.642 140.921 246.379C140.312 246.116 139.76 245.731 139.294 245.245C138.828 244.759 138.459 244.182 138.207 243.548C137.955 242.913 137.825 242.233 137.825 241.546V239.41Z" fill="url(#paint7_linear)"/>
<path d="M61.1802 163.877H52.7881V252.105H61.1802V163.877Z" fill="#E61B00"/>
<path d="M132.984 144.734H93.981C92.4322 144.734 91.1768 146.044 91.1768 147.659V168.282C91.1768 169.897 92.4322 171.207 93.981 171.207H132.984C134.533 171.207 135.788 169.897 135.788 168.282V147.659C135.788 146.044 134.533 144.734 132.984 144.734Z" fill="#E61B00" stroke="#E61B00" stroke-width="0.76" stroke-miterlimit="10"/>
<path d="M184.622 151.428H145.619C144.07 151.428 142.814 152.738 142.814 154.354V174.976C142.814 176.592 144.07 177.901 145.619 177.901H184.622C186.17 177.901 187.426 176.592 187.426 174.976V154.354C187.426 152.738 186.17 151.428 184.622 151.428Z" fill="#E61B00" stroke="#E61B00" stroke-width="0.76" stroke-miterlimit="10"/>
<path opacity="0.24" d="M242.026 150.11H194.073V180.117H242.026V150.11Z" fill="#E61B00"/>
<path opacity="0.24" d="M239.82 185.973H92.1641V194.071H239.82V185.973Z" fill="#E61B00"/>
<path opacity="0.24" d="M239.82 201.983H92.1641V210.081H239.82V201.983Z" fill="#E61B00"/>
<path d="M275.425 163.877H267.033V252.105H275.425V163.877Z" fill="#E61B00"/>
<path d="M61.1802 163.877H52.7881V252.105H61.1802V163.877Z" fill="url(#paint8_linear)"/>
<path d="M275.425 163.877H267.033V252.105H275.425V163.877Z" fill="url(#paint9_linear)"/>
<path d="M281.602 250.237H263.282L265.324 237.852L266.685 229.524L269.326 213.508L274.381 213.455L277.534 229.524L279.166 237.852L281.602 250.237Z" fill="#E61B00"/>
<path d="M281.602 250.237H263.282L265.324 237.852L266.685 229.524L269.326 213.508L274.381 213.455L277.534 229.524L279.166 237.852L281.602 250.237Z" fill="url(#paint10_linear)"/>
<path d="M285.081 249.591H259.296C258.165 249.591 257.249 250.547 257.249 251.726C257.249 252.905 258.165 253.861 259.296 253.861H285.081C286.212 253.861 287.128 252.905 287.128 251.726C287.128 250.547 286.212 249.591 285.081 249.591Z" fill="#E61B00"/>
<path d="M285.081 249.591H259.296C258.165 249.591 257.249 250.547 257.249 251.726C257.249 252.905 258.165 253.861 259.296 253.861H285.081C286.212 253.861 287.128 252.905 287.128 251.726C287.128 250.547 286.212 249.591 285.081 249.591Z" fill="url(#paint11_linear)"/>
<path d="M279.166 237.851H265.324L266.685 229.523H277.534L279.166 237.851Z" fill="url(#paint12_linear)"/>
<path d="M63.6827 250.237H45.3633L47.405 237.852L48.7662 229.524L51.4067 213.508L56.4624 213.455L59.6146 229.524L61.247 237.852L63.6827 250.237Z" fill="#E61B00"/>
<path d="M63.6827 250.237H45.3633L47.405 237.852L48.7662 229.524L51.4067 213.508L56.4624 213.455L59.6146 229.524L61.247 237.852L63.6827 250.237Z" fill="url(#paint13_linear)"/>
<path d="M67.1623 249.591H41.3769C40.2465 249.591 39.3301 250.547 39.3301 251.726C39.3301 252.905 40.2465 253.861 41.3769 253.861H67.1623C68.2928 253.861 69.2092 252.905 69.2092 251.726C69.2092 250.547 68.2928 249.591 67.1623 249.591Z" fill="#E61B00"/>
<path d="M67.1623 249.591H41.3769C40.2465 249.591 39.3301 250.547 39.3301 251.726C39.3301 252.905 40.2465 253.861 41.3769 253.861H67.1623C68.2928 253.861 69.2092 252.905 69.2092 251.726C69.2092 250.547 68.2928 249.591 67.1623 249.591Z" fill="url(#paint14_linear)"/>
<path d="M61.2462 237.851H47.4043L48.7655 229.523H59.6138L61.2462 237.851Z" fill="url(#paint15_linear)"/>
<path d="M137.487 88.9423C140.285 88.9423 142.553 86.5761 142.553 83.6573C142.553 80.7385 140.285 78.3723 137.487 78.3723C134.689 78.3723 132.421 80.7385 132.421 83.6573C132.421 86.5761 134.689 88.9423 137.487 88.9423Z" fill="#E61B00"/>
<path d="M204.533 99.6726C207.825 99.6726 210.494 96.8881 210.494 93.4534C210.494 90.0186 207.825 87.2341 204.533 87.2341C201.24 87.2341 198.571 90.0186 198.571 93.4534C198.571 96.8881 201.24 99.6726 204.533 99.6726Z" fill="#E61B00"/>
<path d="M137.487 88.9423C140.285 88.9423 142.553 86.5761 142.553 83.6573C142.553 80.7385 140.285 78.3723 137.487 78.3723C134.689 78.3723 132.421 80.7385 132.421 83.6573C132.421 86.5761 134.689 88.9423 137.487 88.9423Z" fill="url(#paint16_linear)"/>
<path d="M139.238 88.1843C142.036 88.1843 144.304 85.8181 144.304 82.8993C144.304 79.9804 142.036 77.6143 139.238 77.6143C136.44 77.6143 134.172 79.9804 134.172 82.8993C134.172 85.8181 136.44 88.1843 139.238 88.1843Z" fill="#E61B00"/>
<path d="M204.875 98.53C207.672 98.53 209.941 96.1638 209.941 93.245C209.941 90.3261 207.672 87.96 204.875 87.96C202.077 87.96 199.809 90.3261 199.809 93.245C199.809 96.1638 202.077 98.53 204.875 98.53Z" fill="url(#paint17_linear)"/>
<path d="M206.626 97.7722C209.423 97.7722 211.692 95.406 211.692 92.4872C211.692 89.5683 209.423 87.2021 206.626 87.2021C203.828 87.2021 201.56 89.5683 201.56 92.4872C201.56 95.406 203.828 97.7722 206.626 97.7722Z" fill="#E61B00"/>
<path d="M114.752 113.648L118.032 112.506L116.906 111.049L113.626 112.34L114.752 113.648Z" fill="#E61B00"/>
<path d="M109.424 107.183L112.71 106.041L111.584 104.578L108.304 105.87L109.424 107.183Z" fill="#E61B00"/>
<path d="M110.52 128.964H109.322V140.896H110.52V128.964Z" fill="#E61B00"/>
<path d="M134.811 72.3025H133.266V77.9505H134.811V72.3025Z" fill="#E61B00"/>
<path d="M109.251 105.721L109.425 107.184L104.154 108.257V106.644L109.251 105.721Z" fill="#E61B00"/>
<path d="M209.138 87.1165L212.428 84.1697L213.042 84.6875L209.639 88.2215L209.138 87.1165Z" fill="#E61B00"/>
<path d="M110.908 146.431C110.831 146.768 110.652 147.07 110.397 147.291C110.257 147.415 110.093 147.503 109.915 147.549C109.737 147.596 109.552 147.599 109.373 147.558C109.003 147.507 108.662 147.318 108.416 147.024C108.175 146.71 108.048 146.316 108.058 145.914C108.079 145.223 108.254 144.546 108.57 143.938C108.86 143.362 109.215 142.824 109.629 142.337L109.583 142.481C109.66 140.148 109.778 137.815 109.916 135.482C109.992 137.821 110.049 140.154 110.064 142.486V142.545L110.018 142.631C109.737 143.164 109.476 143.736 109.245 144.285C109.006 144.806 108.856 145.366 108.8 145.94C108.777 146.183 108.834 146.426 108.961 146.63C109.089 146.834 109.279 146.986 109.501 147.061C109.769 147.142 110.056 147.124 110.313 147.009C110.569 146.894 110.78 146.69 110.908 146.431Z" fill="#E61B00"/>
<path opacity="0.24" d="M110.965 148.364C111.72 148.364 112.331 147.726 112.331 146.939C112.331 146.151 111.72 145.513 110.965 145.513C110.21 145.513 109.599 146.151 109.599 146.939C109.599 147.726 110.21 148.364 110.965 148.364Z" fill="#E61B00"/>
<path d="M125.876 212.126C126.783 212.126 127.519 211.359 127.519 210.412C127.519 209.466 126.783 208.698 125.876 208.698C124.969 208.698 124.233 209.466 124.233 210.412C124.233 211.359 124.969 212.126 125.876 212.126Z" fill="url(#paint18_linear)"/>
<path d="M243.3 191.546C244.207 191.546 244.942 190.779 244.942 189.833C244.942 188.886 244.207 188.119 243.3 188.119C242.393 188.119 241.657 188.886 241.657 189.833C241.657 190.779 242.393 191.546 243.3 191.546Z" fill="url(#paint19_linear)"/>
<path d="M67.3155 222.781C68.2226 222.781 68.9581 222.014 68.9581 221.067C68.9581 220.121 68.2226 219.354 67.3155 219.354C66.4083 219.354 65.6729 220.121 65.6729 221.067C65.6729 222.014 66.4083 222.781 67.3155 222.781Z" fill="url(#paint20_linear)"/>
</g>
<defs>
<linearGradient id="paint0_linear" x1="252.956" y1="169.696" x2="249.62" y2="297.058" gradientUnits="userSpaceOnUse">
<stop stop-color="#010101" stop-opacity="0"/>
<stop offset="0.95" stop-color="#010101"/>
</linearGradient>
<linearGradient id="paint1_linear" x1="3856.95" y1="13806.3" x2="5523.61" y2="13793" gradientUnits="userSpaceOnUse">
<stop stop-color="#010101" stop-opacity="0"/>
<stop offset="0.95" stop-color="#010101"/>
</linearGradient>
<linearGradient id="paint2_linear" x1="17534.4" y1="4616.23" x2="21154.6" y2="4616.23" gradientUnits="userSpaceOnUse">
<stop stop-color="#010101" stop-opacity="0"/>
<stop offset="0.95" stop-color="#010101"/>
</linearGradient>
<linearGradient id="paint3_linear" x1="13033" y1="5664.18" x2="12938.6" y2="9008.31" gradientUnits="userSpaceOnUse">
<stop stop-color="#010101" stop-opacity="0"/>
<stop offset="0.95" stop-color="#010101"/>
</linearGradient>
<linearGradient id="paint4_linear" x1="18354.2" y1="8181.88" x2="46963.6" y2="8181.88" gradientUnits="userSpaceOnUse">
<stop stop-color="#010101" stop-opacity="0"/>
<stop offset="0.95" stop-color="#010101"/>
</linearGradient>
<linearGradient id="paint5_linear" x1="43311.1" y1="31317.8" x2="43600.3" y2="48533.6" gradientUnits="userSpaceOnUse">
<stop stop-color="#010101" stop-opacity="0"/>
<stop offset="0.95" stop-color="#010101"/>
</linearGradient>
<linearGradient id="paint6_linear" x1="47047.2" y1="2890.64" x2="47047.9" y2="3730.13" gradientUnits="userSpaceOnUse">
<stop stop-color="#010101" stop-opacity="0"/>
<stop offset="0.95" stop-color="#010101"/>
</linearGradient>
<linearGradient id="paint7_linear" x1="12791.7" y1="2473.53" x2="12803.9" y2="3259.99" gradientUnits="userSpaceOnUse">
<stop stop-color="#010101" stop-opacity="0"/>
<stop offset="0.95" stop-color="#010101"/>
</linearGradient>
<linearGradient id="paint8_linear" x1="406.265" y1="22794.3" x2="686.324" y2="22794.9" gradientUnits="userSpaceOnUse">
<stop stop-color="#010101" stop-opacity="0"/>
<stop offset="0.95" stop-color="#010101"/>
</linearGradient>
<linearGradient id="paint9_linear" x1="4124.48" y1="22784.5" x2="4373.67" y2="22785.5" gradientUnits="userSpaceOnUse">
<stop stop-color="#010101" stop-opacity="0"/>
<stop offset="0.95" stop-color="#010101"/>
</linearGradient>
<linearGradient id="paint10_linear" x1="8912.27" y1="11318.5" x2="7766" y2="11287.2" gradientUnits="userSpaceOnUse">
<stop stop-color="#010101" stop-opacity="0"/>
<stop offset="0.95" stop-color="#010101"/>
</linearGradient>
<linearGradient id="paint11_linear" x1="14223.6" y1="1675.32" x2="14223.6" y2="1749.59" gradientUnits="userSpaceOnUse">
<stop stop-color="#010101" stop-opacity="0"/>
<stop offset="0.95" stop-color="#010101"/>
</linearGradient>
<linearGradient id="paint12_linear" x1="6549.69" y1="2767.45" x2="6924.25" y2="2767.45" gradientUnits="userSpaceOnUse">
<stop stop-color="white" stop-opacity="0"/>
<stop offset="0.95" stop-color="white"/>
</linearGradient>
<linearGradient id="paint13_linear" x1="892.821" y1="11318.5" x2="-253.441" y2="11287.2" gradientUnits="userSpaceOnUse">
<stop stop-color="#010101" stop-opacity="0"/>
<stop offset="0.95" stop-color="#010101"/>
</linearGradient>
<linearGradient id="paint14_linear" x1="1281.4" y1="1675.32" x2="1281.4" y2="1749.59" gradientUnits="userSpaceOnUse">
<stop stop-color="#010101" stop-opacity="0"/>
<stop offset="0.95" stop-color="#010101"/>
</linearGradient>
<linearGradient id="paint15_linear" x1="437.054" y1="2767.44" x2="811.478" y2="2767.44" gradientUnits="userSpaceOnUse">
<stop stop-color="white" stop-opacity="0"/>
<stop offset="0.95" stop-color="white"/>
</linearGradient>
<linearGradient id="paint16_linear" x1="2100.96" y1="328.987" x2="2301.58" y2="328.987" gradientUnits="userSpaceOnUse">
<stop stop-color="#010101" stop-opacity="0"/>
<stop offset="0.95" stop-color="#010101"/>
</linearGradient>
<linearGradient id="paint17_linear" x1="3502.63" y1="528.413" x2="3703.25" y2="528.413" gradientUnits="userSpaceOnUse">
<stop stop-color="#010101" stop-opacity="0"/>
<stop offset="0.95" stop-color="#010101"/>
</linearGradient>
<linearGradient id="paint18_linear" x1="708.246" y1="1032.16" x2="760.09" y2="1309.83" gradientUnits="userSpaceOnUse">
<stop stop-color="#010101" stop-opacity="0"/>
<stop offset="0.95" stop-color="#010101"/>
</linearGradient>
<linearGradient id="paint19_linear" x1="1579.49" y1="879.461" x2="1631.33" y2="1157.13" gradientUnits="userSpaceOnUse">
<stop stop-color="#010101" stop-opacity="0"/>
<stop offset="0.95" stop-color="#010101"/>
</linearGradient>
<linearGradient id="paint20_linear" x1="273.693" y1="1111.2" x2="325.538" y2="1388.87" gradientUnits="userSpaceOnUse">
<stop stop-color="#010101" stop-opacity="0"/>
<stop offset="0.95" stop-color="#010101"/>
</linearGradient>
<clipPath id="clip0">
<rect width="259" height="183" fill="white" transform="translate(33 71)"/>
</clipPath>
</defs>
</svg>
