<svg width="325" height="325" viewBox="0 0 325 325" fill="none" xmlns="http://www.w3.org/2000/svg">
<path opacity="0.42" d="M223.057 89.1672C213.631 84.0972 203.422 79.7644 192.379 77.9516C176.212 75.3188 159.129 78.3277 144.608 84.7742C127.148 92.5071 113.357 104.708 97.6552 114.694C79.4061 126.286 58.3743 134.936 41.8791 148.198C25.3839 161.459 13.8171 181.45 21.3519 199.383C28.0147 215.255 47.3416 224.909 66.1198 231.446C108.539 246.224 155.408 251.83 201.673 247.66C242.174 243.944 285.447 222.209 284.997 184.474C284.541 146.468 261.476 109.823 223.057 89.1672Z" fill="#E61B00"/>
<path d="M307 214.503C301.627 225.399 19.5731 224.484 20.0005 214.503C25.373 203.608 307.427 204.523 307 214.503Z" fill="url(#paint0_linear)"/>
<path d="M285 167.51H251V183.175H285V167.51Z" fill="#3F3D56"/>
<path d="M282 180.937H51V197.72H282V180.937Z" fill="#3F3D56"/>
<path d="M203 123.874H31V176.461H203V123.874Z" fill="url(#paint1_linear)"/>
<path d="M254 189.888H213V131.706H243.651L254 161.05V189.888Z" fill="#E61B00"/>
<path d="M238 135.063H220V154.084H238V135.063Z" fill="white"/>
<path d="M251 155.203H239V136.182H244.143L251 155.203Z" fill="white"/>
<path d="M224 165.273H221V174.224H224V165.273Z" fill="#3F3D56"/>
<path d="M243 147.371H243.15C243.906 147.371 244.631 147.842 245.165 148.681C245.7 149.521 246 150.659 246 151.846C246 153.033 245.7 154.171 245.165 155.011C244.631 155.85 243.906 156.322 243.15 156.322H243V147.371Z" fill="#3F3D56"/>
<path d="M31 180.937H31.2C32.2078 180.937 33.1744 181.409 33.887 182.248C34.5996 183.087 35 184.226 35 185.413C35 186.6 34.5996 187.738 33.887 188.577C33.1744 189.417 32.2078 189.888 31.2 189.888H31V180.937Z" fill="#3F3D56"/>
<path d="M270.8 181.367C276.896 181.367 282.378 184.653 286.183 189.888H294L286.4 166.329L251 158.559L252 189.888H255.417C259.222 184.653 264.704 181.367 270.8 181.367Z" fill="#E61B00"/>
<path d="M270.5 214.503C280.165 214.503 288 205.987 288 195.482C288 184.977 280.165 176.461 270.5 176.461C260.835 176.461 253 184.977 253 195.482C253 205.987 260.835 214.503 270.5 214.503Z" fill="#3F3D56"/>
<path d="M271 205.552C275.971 205.552 280 200.794 280 194.923C280 189.053 275.971 184.294 271 184.294C266.029 184.294 262 189.053 262 194.923C262 200.794 266.029 205.552 271 205.552Z" fill="#E61B00"/>
<path d="M96.5 214.503C105.06 214.503 112 206.989 112 197.72C112 188.451 105.06 180.937 96.5 180.937C87.9396 180.937 81 188.451 81 197.72C81 206.989 87.9396 214.503 96.5 214.503Z" fill="#3F3D56"/>
<path d="M59 214.503C67.2843 214.503 74 206.989 74 197.72C74 188.451 67.2843 180.937 59 180.937C50.7157 180.937 44 188.451 44 197.72C44 206.989 50.7157 214.503 59 214.503Z" fill="#3F3D56"/>
<path d="M96.5 206.671C100.642 206.671 104 202.413 104 197.161C104 191.908 100.642 187.65 96.5 187.65C92.3579 187.65 89 191.908 89 197.161C89 202.413 92.3579 206.671 96.5 206.671Z" fill="#E61B00"/>
<path d="M59 206.671C63.4183 206.671 67 202.413 67 197.161C67 191.908 63.4183 187.65 59 187.65C54.5817 187.65 51 191.908 51 197.161C51 202.413 54.5817 206.671 59 206.671Z" fill="#E61B00"/>
<path d="M214 123.874H206V191.007H214V123.874Z" fill="#3F3D56"/>
<path d="M214 178.699H31V184.294H214V178.699Z" fill="#3F3D56"/>
<path d="M245 156.322H241V158.559H245V156.322Z" fill="#3F3D56"/>
<path d="M288.427 174.143L288.24 174.222C287.299 174.62 286.255 174.584 285.339 174.121C284.422 173.658 283.707 172.807 283.351 171.754C282.995 170.702 283.027 169.534 283.441 168.508C283.855 167.482 284.616 166.682 285.557 166.284L285.743 166.205L288.427 174.143Z" fill="#3F3D56"/>
<defs>
<linearGradient id="paint0_linear" x1="295.47" y1="223.409" x2="291.224" y2="181.764" gradientUnits="userSpaceOnUse">
<stop stop-color="#B40100"/>
<stop offset="1" stop-color="#FC2801"/>
</linearGradient>
<linearGradient id="paint1_linear" x1="196.09" y1="180.064" x2="135.26" y2="73.5439" gradientUnits="userSpaceOnUse">
<stop stop-color="#B40100"/>
<stop offset="1" stop-color="#FC2801"/>
</linearGradient>
</defs>
</svg>
