<svg width="360" height="363" viewBox="0 0 360 363" fill="none" xmlns="http://www.w3.org/2000/svg">
<path d="M166.047 305.309C169.437 305.318 172.824 305.097 176.185 304.647C198.423 301.615 217.815 288.422 236.257 275.589C257.637 260.711 278.937 245.7 300.407 230.952C318.183 218.75 333.373 206.413 337.506 183.727C340.392 167.812 336.285 150.526 325.732 138.221C319.289 130.692 310.802 125.216 302.398 120.003C286.597 110.197 270.476 100.811 253.008 94.5346C244.692 91.5503 236.11 89.2814 227.996 85.7787C212.301 78.9831 198.78 67.7289 182.811 61.6444C171.678 57.4239 159.709 55.8664 147.85 55.1337C138.919 54.6171 129.873 54.571 121.149 56.5179C98.0489 61.6703 79.4759 80.9132 71.9271 103.366C64.3784 125.819 73.2865 142.038 76.6226 163.87C80.1922 187.223 68.2609 210.711 70.8528 234.203C74.199 264.568 101.245 287.44 129.869 298.067C141.44 302.442 153.75 305.301 166.047 305.309Z" fill="white"/>
<path d="M216.458 305.444C216.388 308.297 216.956 311.131 218.122 313.748C219.558 316.185 221.716 318.139 224.312 319.354C229.87 322.18 236.331 322.803 242.348 321.093C243.168 320.932 243.903 320.495 244.428 319.858C244.748 319.33 244.877 318.712 244.794 318.103C244.661 314.853 242.431 312.107 240.068 309.831C237.706 307.556 235.077 305.444 233.579 302.535C230.817 297.074 232.864 282.562 222.332 284.902C213.463 286.836 216.225 299.398 216.458 305.444Z" fill="#FBB9AD"/>
<path d="M215.216 315.239C215.216 315.239 213.774 318.952 215.552 321.119C217.33 323.286 235.545 335.164 247.817 325.605C260.088 316.046 231.14 314.803 231.14 314.803L215.216 315.239Z" fill="#E61B00"/>
<path d="M215.77 306.423C216.34 306.155 216.987 306.095 217.597 306.255C218.206 306.416 218.739 306.785 219.1 307.297C220.346 308.695 221.929 309.758 223.702 310.387C225.475 311.015 227.379 311.189 229.238 310.892C233.384 309.903 235.032 305.17 237.079 305.154C239.127 305.137 250.148 314.404 250.797 318.345C251.446 322.286 245.803 325.254 239.593 325.634C233.384 326.013 219.349 321.858 216.669 318.56C213.989 315.262 214.322 308.452 215.77 306.423Z" fill="white"/>
<path d="M181.463 311.471C181.371 314.321 181.889 317.157 182.982 319.782C184.357 322.22 186.432 324.172 188.929 325.377C194.267 328.213 200.477 328.837 206.258 327.117C207.046 326.968 207.755 326.535 208.256 325.898C208.545 325.361 208.673 324.751 208.624 324.141C208.496 320.888 206.338 318.123 204.068 315.846C201.797 313.569 199.272 311.471 197.833 308.609C195.179 303.128 197.146 288.604 187.042 290.93C178.602 292.882 181.223 305.437 181.463 311.471Z" fill="#FBB9AD"/>
<path d="M180.233 321.204C180.233 321.204 178.805 324.615 180.57 326.606C182.335 328.597 200.582 339.51 212.843 330.728C225.103 321.945 196.185 320.833 196.185 320.833L180.233 321.204Z" fill="#E61B00"/>
<path d="M180.764 312.452C181.325 312.168 181.966 312.1 182.572 312.26C183.177 312.421 183.706 312.798 184.062 313.324C185.254 314.731 186.78 315.8 188.492 316.429C190.205 317.058 192.047 317.224 193.841 316.913C197.83 315.925 199.455 311.201 201.417 311.184C203.38 311.168 214.044 320.419 214.623 324.354C215.202 328.288 209.797 331.268 203.798 331.663C197.798 332.058 184.19 327.778 181.601 324.552C179.011 321.325 179.381 314.493 180.764 312.452Z" fill="white"/>
<path d="M173.86 159.339C173.86 159.339 171.954 265.093 179.792 300.301L199.689 302.741L213.459 158.004L173.86 159.339Z" fill="#473F47"/>
<path d="M235.231 147.149C235.231 147.149 244.419 204.524 233.262 296.651L213.717 299.123L200.191 153.435L235.231 147.149Z" fill="#473F47"/>
<path d="M259.292 102.233C259.061 106.081 257.804 109.422 254.413 110.536C254.134 110.637 253.846 110.714 253.553 110.765C247.351 111.993 239.214 107.326 233.541 103.248C231.167 101.559 228.892 99.7382 226.727 97.7945V56.6886L256.894 87.215C258.498 92.0621 259.307 97.1321 259.292 102.233Z" fill="#E61B00"/>
<path d="M233.077 102.919C233.077 104.842 233.304 106.765 233.32 108.672C233.32 119.234 230.888 130.138 234.017 140.504C234.714 142.819 235.639 145.296 234.893 147.578C233.983 149.476 232.423 150.981 230.499 151.816C221.225 156.917 210.507 158.466 200.066 159.965C192.202 161.073 181.047 163.437 173.784 159.166C170.671 157.357 169.617 153.983 168.644 150.609C165.482 139.885 164.558 128.361 163.78 117.278C163.682 115.811 163.569 114.344 163.488 112.877C162.883 102.761 162.677 92.6394 162.872 82.5123C163.018 75.1614 163.585 67.2238 168.368 61.6821C174.708 54.2987 186.981 49.409 196.321 47.6813C199.338 47.0574 202.43 46.8871 205.497 47.176C209.848 47.8658 214.048 49.2991 217.917 51.4138C222.538 53.7119 226.656 55.6678 228.926 60.2641C231.421 65.5788 233.162 71.2188 234.098 77.0195C234.968 82.4586 235.094 87.9918 234.471 93.4652C234.179 96.1382 233.515 98.8113 233.239 101.484C233.137 101.956 233.083 102.436 233.077 102.919Z" fill="#E61B00"/>
<path opacity="0.1" d="M190.391 162.655C187.321 163.545 180.248 160.747 177.897 160.359C176.476 160.101 175.202 159.406 173.797 159.082C166.79 157.352 165.957 137.837 165.271 132.598C163.458 118.726 160.665 104.352 160.469 90.4476C160.151 85.084 160.776 79.7064 162.315 74.5541C164.095 69.4934 167.737 64.8531 172.833 62.9776C181.8 59.7439 184.462 87.8283 185.687 93.6974C187.223 100.973 188.791 108.249 190.31 115.509C191.42 120.828 190.8 125.08 195.062 129.025C195.342 129.347 195.721 129.569 196.14 129.656C196.516 129.658 196.886 129.57 197.218 129.397C199.007 128.642 200.913 128.193 202.853 128.071C203.724 127.945 204.613 128.086 205.401 128.476C205.864 128.8 206.256 129.213 206.553 129.691C206.851 130.169 207.048 130.701 207.133 131.256C207.684 133.736 207.46 136.322 206.492 138.673C205.523 141.024 203.856 143.027 201.71 144.417C199.783 145.598 197.61 146.245 195.683 147.409C188.448 151.758 194.507 156.414 191.616 161.782C191.483 162.003 191.306 162.195 191.095 162.345C190.885 162.495 190.645 162.601 190.391 162.655Z" fill="#020202"/>
<path d="M214.239 34.3207C213.513 35.8074 212.275 36.9679 210.762 37.5796C208.992 38.3129 206.998 38.4107 205.579 39.7305C204.301 41.1537 203.487 42.9473 203.25 44.8634C202.836 46.8513 202.421 48.823 201.99 50.8109C201.783 51.8049 201.56 52.7989 201.352 53.7929C201.281 54.3678 201.096 54.922 200.81 55.4223C200.447 55.846 199.993 56.1792 199.485 56.3966C198.976 56.6141 198.426 56.71 197.875 56.677C195.598 56.7782 193.341 56.2129 191.368 55.0476C191.033 54.8736 190.751 54.6086 190.554 54.2817C190.383 53.8649 190.338 53.4049 190.427 52.9618C190.666 50.1103 190.905 47.2587 191.16 44.4071C191.56 42.0608 191.196 39.6453 190.124 37.5307C187.97 32.9356 185.642 28.3405 184.796 23.2729C184.274 20.9274 184.474 18.4742 185.371 16.2498C186.188 14.8232 187.288 13.5874 188.601 12.6219C189.914 11.6565 191.411 10.9828 192.995 10.6445C197.084 9.36324 201.449 9.31798 205.563 10.5141C207.158 11.0518 207.557 12.1436 208.274 13.5286C209.359 15.6958 210.364 17.9119 211.273 20.1769C212.294 22.7351 213.187 25.3586 213.984 28.0309C214.794 30.0308 214.885 32.2592 214.239 34.3207Z" fill="#FBB9AD"/>
<path d="M277.537 77.8838C277.811 77.4621 278.36 76.9917 278.806 77.2837C278.984 77.4472 279.109 77.6554 279.166 77.8838C279.429 78.3136 279.806 78.6703 280.261 78.9181C280.716 79.1658 281.232 79.2958 281.756 79.2949C282.769 79.2949 283.815 79.1489 284.861 79.1327C286.213 79.1801 287.534 79.5207 288.724 80.1282C289.914 80.7357 290.94 81.5939 291.723 82.6362C293.277 84.7501 294.142 87.2482 294.21 89.8217C294.486 92.1307 293.817 94.4521 292.34 96.3096C289.922 98.9211 285.736 98.9859 282.048 98.8724L278.72 98.7588C277.935 98.8497 277.142 98.6535 276.505 98.2103C275.867 97.7672 275.432 97.1105 275.289 96.3745C273.9 93.2441 271.43 90.1136 273.145 86.9507C274.62 84.242 275.512 80.2844 277.537 77.8838Z" fill="#FBB9AD"/>
<path d="M215.935 110.296V86.7917C215.936 85.8734 216.211 84.9765 216.724 84.2173C217.238 83.4582 217.966 82.8718 218.815 82.5344L276.723 59.3375C279.731 58.1396 285.827 61.7171 285.827 64.9708L282.98 119.491C282.98 120.401 282.713 121.29 282.212 122.048C281.711 122.805 280.999 123.397 280.165 123.748L225.04 149.308C222.032 150.555 215.871 146.961 215.871 143.691L215.935 110.296Z" fill="white"/>
<path d="M215.935 110.296V86.7917C215.936 85.8734 216.211 84.9765 216.724 84.2173C217.238 83.4582 217.966 82.8718 218.815 82.5344L276.723 59.3375C279.731 58.1396 285.827 61.7171 285.827 64.9708L282.98 119.491C282.98 120.401 282.713 121.29 282.212 122.048C281.711 122.805 280.999 123.397 280.165 123.748L225.04 149.308C222.032 150.555 215.871 146.961 215.871 143.691L215.935 110.296Z" fill="url(#paint0_linear)"/>
<path d="M218.283 112.302V88.4704C218.285 87.5382 218.562 86.6278 219.079 85.8563C219.596 85.0847 220.329 84.4871 221.184 84.1404L279.523 60.6371C280.222 60.3558 280.977 60.252 281.724 60.3345C282.472 60.4171 283.187 60.6836 283.809 61.1108C284.431 61.538 284.94 62.1128 285.292 62.785C285.644 63.4572 285.827 64.2064 285.827 64.9671V121.601C285.828 122.522 285.56 123.421 285.055 124.186C284.55 124.952 283.831 125.547 282.991 125.899L224.652 150.419C223.951 150.709 223.191 150.821 222.438 150.744C221.685 150.667 220.962 150.404 220.333 149.978C219.704 149.552 219.188 148.976 218.831 148.301C218.473 147.625 218.285 146.871 218.283 146.105V112.302Z" fill="white"/>
<path d="M204.331 13.2802C203.51 14.5267 202.232 15.3939 200.778 15.6915C196.837 16.5387 194.43 14.5999 192.443 19.2431C191.798 20.825 191.602 22.557 191.878 24.2448C191.878 24.5869 193.106 28.5622 193.493 28.3504C192.476 29.0835 191.7 27.0959 190.586 26.5094C189.471 25.9229 187.824 27.6172 188.098 29.0835C188.562 30.5005 189.387 31.77 190.489 32.7655C192.26 34.9835 193.238 37.7382 193.267 40.5857C193.267 41.2537 193.009 42.2149 192.362 42.2149C191.716 42.2149 190.957 41.2863 190.44 40.9441C189.636 40.3921 188.787 39.9072 187.905 39.4941C185.191 38.1908 181.121 37.7835 178.859 35.9588C177.724 34.9615 176.97 33.5958 176.727 32.0976C176.63 31.7554 176.727 27.8942 177.39 28.1223C176.487 27.8433 175.676 27.3256 175.039 26.623C174.403 25.9204 173.964 25.0587 173.77 24.1273C173.575 23.196 173.632 22.2291 173.933 21.3272C174.234 20.4252 174.77 19.6212 175.484 18.9987C172.705 15.1049 173.981 9.33756 177.309 5.96511C180.636 2.59266 185.466 1.0775 190.23 0.442107C195.405 -0.392867 200.699 -0.0420641 205.72 1.4685C207.452 1.94478 209.05 2.82043 210.388 4.02635C211.059 4.6338 211.574 5.39493 211.892 6.24555C212.21 7.09618 212.32 8.01137 212.213 8.91397C211.917 9.03397 211.593 9.06706 211.278 9.00941C210.964 8.95177 210.672 8.80573 210.437 8.58813C210.65 9.28452 210.626 10.033 210.368 10.7139C210.11 11.3948 209.633 11.9688 209.014 12.3441C208.394 12.7194 207.668 12.8743 206.951 12.7841C206.234 12.6939 205.567 12.3638 205.058 11.8465C204.917 12.3703 204.67 12.8586 204.331 13.2802Z" fill="#473F47"/>
<path d="M207.428 38.6939L206.752 38.8887C206.555 38.9111 206.372 39.0031 206.236 39.1484C206.162 39.2933 206.134 39.4577 206.156 39.6192C204.865 41.037 204.043 42.8238 203.804 44.7327C203.385 46.7132 202.966 48.6774 202.531 50.6579C200.417 46.8707 198.819 42.8137 197.779 38.5965C200.983 38.9683 204.217 39.0009 207.428 38.6939Z" fill="#DC9F95"/>
<path d="M210.413 110.429C211.263 109.584 212.386 108.739 213.508 109.043C214.195 109.377 214.85 109.779 215.465 110.243C216.025 110.508 216.631 110.652 217.245 110.665C219.734 110.836 222.229 110.462 224.574 109.567C225.73 108.951 226.999 108.605 228.294 108.553C229.08 108.712 229.823 109.046 230.476 109.533C231.129 110.02 231.675 110.648 232.079 111.375C233.243 113.15 233.896 115.241 233.958 117.397C234.021 119.553 233.491 121.683 232.432 123.529C231.457 125.029 230.168 126.273 228.663 127.163C225.327 129.024 221.613 130.004 217.838 130.019C214.086 130.188 210.285 129.884 206.612 130.188C205.736 130.362 204.83 130.231 204.03 129.816C203.583 129.379 203.237 128.839 203.02 128.238C202.803 127.637 202.721 126.991 202.78 126.351C202.635 123.376 202.154 120.858 203.822 118.322C205.843 115.398 208.232 113.116 210.413 110.429Z" fill="#FBB9AD"/>
<path d="M168.494 62.2949C168.494 62.2949 126.9 116.581 140.038 135.766C153.177 154.951 208.635 132.544 208.635 132.544L203.228 116.661C203.228 116.661 164.265 121.574 163.975 117.241C163.684 112.908 188.685 88.0686 188.685 88.0686C188.685 88.0686 193.205 51.5183 168.494 62.2949Z" fill="#E61B00"/>
<path d="M218.494 87.1366L262.864 107.393L284.416 62.7193C284.416 62.7193 285.827 62.7193 285.616 66.5104L269.253 103.458L285.827 120.984C285.828 121.653 285.684 122.315 285.404 122.925C285.124 123.535 284.715 124.078 284.205 124.518L267.486 106.092L265.215 110.735L256.118 107.972L232.214 146.092L223.197 149.561L251.285 106.092L218.283 91.0562L218.494 87.1366Z" fill="url(#paint1_linear)"/>
<defs>
<linearGradient id="paint0_linear" x1="379.767" y1="181.862" x2="-23.2869" y2="-57.4452" gradientUnits="userSpaceOnUse">
<stop offset="0.01"/>
<stop offset="0.13" stop-opacity="0.69"/>
<stop offset="0.25" stop-opacity="0.32"/>
<stop offset="1" stop-opacity="0"/>
</linearGradient>
<linearGradient id="paint1_linear" x1="10020.2" y1="3720.51" x2="18659" y2="23146.3" gradientUnits="userSpaceOnUse">
<stop offset="0.01"/>
<stop offset="0.13" stop-opacity="0.69"/>
<stop offset="0.25" stop-opacity="0.32"/>
<stop offset="1" stop-opacity="0"/>
</linearGradient>
</defs>
</svg>
