<svg width="581" height="410" viewBox="0 0 581 410" fill="none" xmlns="http://www.w3.org/2000/svg">
<g clip-path="url(#clip0)">
<path d="M18.4693 186.593C39.2234 160.28 68.8278 143.249 92.2565 119.46C104.057 107.5 114.25 93.8289 126.694 82.658C155.288 57.0868 194.053 46.4899 231.727 46.0952C269.401 45.7005 306.547 54.6469 343.074 64.1673C397.335 78.3044 452.538 94.4389 498.121 128.227C514.421 140.307 529.195 154.444 543.922 168.533C557.789 181.809 572.207 195.958 577.992 214.628C587.405 244.983 571.575 276.822 565.365 308.014C562.977 320.07 561.921 332.76 556.079 343.465C542.304 368.641 509.611 372.337 481.832 373.103L188.6 381.152C132.238 382.707 71.2499 382.838 25.6896 348.213C-2.26186 326.876 -0.574441 304.689 0.435714 273.341C1.51474 240.02 -4.04111 215.143 18.4693 186.593Z" fill="white"/>
<path d="M525.235 204.27H458.186C442.546 204.27 429.867 217.481 429.867 233.777V349.66C429.867 365.956 442.546 379.166 458.186 379.166H525.235C540.875 379.166 553.554 365.956 553.554 349.66V233.777C553.554 217.481 540.875 204.27 525.235 204.27Z" fill="#E61B00"/>
<path d="M525.235 204.27H458.186C442.546 204.27 429.867 217.481 429.867 233.777V349.66C429.867 365.956 442.546 379.166 458.186 379.166H525.235C540.875 379.166 553.554 365.956 553.554 349.66V233.777C553.554 217.481 540.875 204.27 525.235 204.27Z" fill="url(#paint0_linear)"/>
<path opacity="0.28" d="M491.716 204.27H471.1V338.25H491.716V204.27Z" fill="url(#paint1_linear)"/>
<path d="M549.054 341.324H467.759C460.932 341.324 455.396 347.091 455.396 354.205V370.375C455.396 377.489 460.932 383.257 467.759 383.257H549.054C555.882 383.257 561.417 377.489 561.417 370.375V354.205C561.417 347.091 555.882 341.324 549.054 341.324Z" fill="#E61B00"/>
<path d="M547.458 346.766H471.662C465.931 346.766 461.285 351.606 461.285 357.578V368.366C461.285 374.337 465.931 379.178 471.662 379.178H547.458C553.189 379.178 557.835 374.337 557.835 368.366V357.578C557.835 351.606 553.189 346.766 547.458 346.766Z" fill="url(#paint2_linear)"/>
<path d="M534.579 223.024H469.137V296.664H534.579V223.024Z" fill="url(#paint3_linear)"/>
<path d="M439.969 168.389L400.263 165.567L367.111 65.1599L232.129 43.9423L183.378 95.5511L168.547 78.0292L220.203 14.9983L387.751 38.6319L439.969 168.389ZM403.993 160.496L432.048 162.481L384.169 43.5356L222.246 20.6914L175.319 77.9814L183.584 87.729L230.304 38.2611L370.945 60.3638L403.993 160.496Z" fill="#E61B00"/>
<path d="M439.969 168.389L400.263 165.567L367.111 65.1599L232.129 43.9423L183.378 95.5511L168.547 78.0292L220.203 14.9983L387.751 38.6319L439.969 168.389ZM403.993 160.496L432.048 162.481L384.169 43.5356L222.246 20.6914L175.319 77.9814L183.584 87.729L230.304 38.2611L370.945 60.3638L403.993 160.496Z" fill="url(#paint4_linear)"/>
<path d="M446.982 144.014L403.878 30.6663L224.92 2.91832L160.006 81.2106L173.988 98.4335V131.659H171.382V99.4262L156.562 81.1867L223.887 0L405.749 28.2024L449.404 143.01L446.982 144.014Z" fill="#E61B00"/>
<path d="M447.328 165.842L407.622 163.019L374.471 62.5525L239.489 41.3827L190.749 92.9915L175.906 75.4816L227.562 12.4507L395.156 36.1082L447.328 165.842ZM411.364 157.936L439.408 159.934L391.54 41.0239L229.617 18.1199L182.69 75.4218L190.955 85.1814L237.652 35.7135L378.305 57.7684L411.364 157.936Z" fill="#E61B00"/>
<path d="M412.097 162.062L406.897 158.893L423.117 130.045L395.016 122.282L411.615 97.8235L384.387 90.731L398.793 67.504L373.206 58.761L365.802 40.7846L340.709 56.3092L325.625 34.9002L302.093 50.8552L289.225 30.439L271.697 45.9037L255.638 24.387L231.888 45.5329L210.755 44.6718L213.108 69.1306L194.673 65.6861L193.903 86.0067L187.877 85.7555L189.541 60.9139L206.324 61.488L206.22 40.2823L229.764 39.17L255.879 17.3663L272.592 36.8856L290.236 23.502L303.804 44.3727L326.142 27.6761L342.293 49.0732L367.375 32.9626L377.66 53.6898L405.657 65.0043L394.018 86.7721L417.848 94.8334L404.004 118.85L430.521 126.54L412.097 162.062Z" fill="#E61B00"/>
<path d="M463.262 137.592H124.469C112.24 137.592 102.326 147.921 102.326 160.663V363.271C102.326 376.013 112.24 386.342 124.469 386.342H463.262C475.491 386.342 485.405 376.013 485.405 363.271V160.663C485.405 147.921 475.491 137.592 463.262 137.592Z" fill="#E61B00"/>
<path d="M459.954 134.865H126.866C114.758 134.865 104.941 145.092 104.941 157.709V359.862C104.941 372.479 114.758 382.706 126.866 382.706H459.954C472.062 382.706 481.879 372.479 481.879 359.862V157.709C481.879 145.092 472.062 134.865 459.954 134.865Z" fill="url(#paint5_linear)"/>
<path d="M456.165 147.363H132.009C120.826 147.363 111.76 156.809 111.76 168.461V344.84C111.76 356.492 120.826 365.938 132.009 365.938H456.165C467.349 365.938 476.414 356.492 476.414 344.84V168.461C476.414 156.809 467.349 147.363 456.165 147.363Z" fill="white"/>
<path opacity="0.24" d="M236.147 178.663H136.072V237.975H236.147V178.663Z" fill="#E61B00"/>
<path d="M496.33 389.404V398.195C496.333 399.746 496.042 401.283 495.474 402.716C494.905 404.15 494.071 405.453 493.018 406.55C491.966 407.646 490.715 408.516 489.339 409.108C487.963 409.7 486.489 410.003 485 410H97.5252C96.0365 410.003 94.5618 409.7 93.1859 409.108C91.8099 408.516 90.5597 407.646 89.5071 406.55C88.4544 405.453 87.62 404.15 87.0517 402.716C86.4833 401.283 86.1924 399.746 86.1954 398.195V389.404C86.1913 388.208 86.3656 387.017 86.7119 385.876C87.433 383.479 88.8719 381.386 90.8178 379.903C92.7637 378.42 95.1143 377.625 97.5252 377.635H485C487.41 377.624 489.76 378.418 491.704 379.902C493.648 381.385 495.085 383.479 495.802 385.876C496.158 387.015 496.336 388.207 496.33 389.404Z" fill="#E61B00"/>
<path d="M495.801 385.84C495.085 388.242 493.651 390.342 491.707 391.834C489.764 393.325 487.413 394.129 484.999 394.129H97.5242C95.1089 394.13 92.7565 393.326 90.8109 391.835C88.8653 390.344 87.4287 388.243 86.7109 385.84C87.432 383.443 88.8709 381.35 90.8168 379.867C92.7627 378.384 95.1133 377.589 97.5242 377.6H484.999C487.409 377.588 489.759 378.382 491.703 379.866C493.647 381.349 495.084 383.443 495.801 385.84Z" fill="url(#paint6_linear)"/>
<path d="M235.146 377.312H347.641V382.097C347.641 383.636 347.35 385.16 346.785 386.582C346.219 388.004 345.391 389.296 344.346 390.385C343.301 391.473 342.061 392.336 340.697 392.925C339.332 393.515 337.869 393.818 336.392 393.818H246.396C244.919 393.818 243.456 393.515 242.091 392.925C240.726 392.336 239.486 391.473 238.441 390.385C237.397 389.296 236.568 388.004 236.003 386.582C235.437 385.16 235.146 383.636 235.146 382.097V377.312Z" fill="url(#paint7_linear)"/>
<path d="M63.2163 208.086H44.3906V405.754H63.2163V208.086Z" fill="#E61B00"/>
<path d="M224.29 165.196H136.796C133.322 165.196 130.506 168.131 130.506 171.75V217.953C130.506 221.573 133.322 224.507 136.796 224.507H224.29C227.764 224.507 230.58 221.573 230.58 217.953V171.75C230.58 168.131 227.764 165.196 224.29 165.196Z" fill="#E61B00" stroke="#E61B00" stroke-width="0.76" stroke-miterlimit="10"/>
<path d="M340.124 180.194H252.63C249.156 180.194 246.34 183.129 246.34 186.749V232.951C246.34 236.571 249.156 239.506 252.63 239.506H340.124C343.598 239.506 346.414 236.571 346.414 232.951V186.749C346.414 183.129 343.598 180.194 340.124 180.194Z" fill="#E61B00" stroke="#E61B00" stroke-width="0.76" stroke-miterlimit="10"/>
<path opacity="0.24" d="M468.894 177.24H361.324V244.469H468.894V177.24Z" fill="#E61B00"/>
<path opacity="0.24" d="M463.948 257.59H132.721V275.733H463.948V257.59Z" fill="#E61B00"/>
<path opacity="0.24" d="M463.948 293.458H132.721V311.602H463.948V293.458Z" fill="#E61B00"/>
<path d="M543.82 208.086H524.994V405.754H543.82V208.086Z" fill="#E61B00"/>
<path d="M63.2163 208.086H44.3906V405.754H63.2163V208.086Z" fill="url(#paint8_linear)"/>
<path d="M543.82 208.086H524.994V405.754H543.82V208.086Z" fill="url(#paint9_linear)"/>
<path d="M557.675 401.568H516.58L521.16 373.82L524.214 355.162L530.137 319.281L541.478 319.161L548.549 355.162L552.211 373.82L557.675 401.568Z" fill="#E61B00"/>
<path d="M557.675 401.568H516.58L521.16 373.82L524.214 355.162L530.137 319.281L541.478 319.161L548.549 355.162L552.211 373.82L557.675 401.568Z" fill="url(#paint10_linear)"/>
<path d="M565.481 400.121H507.638C505.103 400.121 503.047 402.263 503.047 404.905C503.047 407.547 505.103 409.689 507.638 409.689H565.481C568.017 409.689 570.073 407.547 570.073 404.905C570.073 402.263 568.017 400.121 565.481 400.121Z" fill="#E61B00"/>
<path d="M565.481 400.121H507.638C505.103 400.121 503.047 402.263 503.047 404.905C503.047 407.547 505.103 409.689 507.638 409.689H565.481C568.017 409.689 570.073 407.547 570.073 404.905C570.073 402.263 568.017 400.121 565.481 400.121Z" fill="url(#paint11_linear)"/>
<path d="M552.211 373.82H521.16L524.214 355.162H548.549L552.211 373.82Z" fill="url(#paint12_linear)"/>
<path d="M68.8293 401.568H27.7344L32.3145 373.82L35.3679 355.162L41.2911 319.281L52.6324 319.161L59.7035 355.162L63.3653 373.82L68.8293 401.568Z" fill="#E61B00"/>
<path d="M68.8293 401.568H27.7344L32.3145 373.82L35.3679 355.162L41.2911 319.281L52.6324 319.161L59.7035 355.162L63.3653 373.82L68.8293 401.568Z" fill="url(#paint13_linear)"/>
<path d="M76.6337 400.121H18.7908C16.255 400.121 14.1992 402.263 14.1992 404.905C14.1992 407.547 16.255 409.689 18.7908 409.689H76.6337C79.1696 409.689 81.2253 407.547 81.2253 404.905C81.2253 402.263 79.1696 400.121 76.6337 400.121Z" fill="#E61B00"/>
<path d="M76.6337 400.121H18.7908C16.255 400.121 14.1992 402.263 14.1992 404.905C14.1992 407.547 16.255 409.689 18.7908 409.689H76.6337C79.1696 409.689 81.2253 407.547 81.2253 404.905C81.2253 402.263 79.1696 400.121 76.6337 400.121Z" fill="url(#paint14_linear)"/>
<path d="M63.3633 373.82H32.3125L35.3659 355.162H59.7015L63.3633 373.82Z" fill="url(#paint15_linear)"/>
<path d="M234.392 40.1987C240.668 40.1987 245.756 34.8974 245.756 28.3579C245.756 21.8185 240.668 16.5172 234.392 16.5172C228.115 16.5172 223.027 21.8185 223.027 28.3579C223.027 34.8974 228.115 40.1987 234.392 40.1987Z" fill="#E61B00"/>
<path d="M384.789 64.2389C392.175 64.2389 398.162 58.0005 398.162 50.3051C398.162 42.6097 392.175 36.3713 384.789 36.3713C377.403 36.3713 371.416 42.6097 371.416 50.3051C371.416 58.0005 377.403 64.2389 384.789 64.2389Z" fill="#E61B00"/>
<path d="M234.392 40.1987C240.668 40.1987 245.756 34.8974 245.756 28.3579C245.756 21.8185 240.668 16.5172 234.392 16.5172C228.115 16.5172 223.027 21.8185 223.027 28.3579C223.027 34.8974 228.115 40.1987 234.392 40.1987Z" fill="url(#paint16_linear)"/>
<path d="M238.317 38.5003C244.594 38.5003 249.682 33.199 249.682 26.6596C249.682 20.1201 244.594 14.8188 238.317 14.8188C232.041 14.8188 226.953 20.1201 226.953 26.6596C226.953 33.199 232.041 38.5003 238.317 38.5003Z" fill="#E61B00"/>
<path d="M385.558 61.6794C391.834 61.6794 396.922 56.3781 396.922 49.8386C396.922 43.2992 391.834 37.9979 385.558 37.9979C379.281 37.9979 374.193 43.2992 374.193 49.8386C374.193 56.3781 379.281 61.6794 385.558 61.6794Z" fill="url(#paint17_linear)"/>
<path d="M389.483 59.981C395.76 59.981 400.848 54.6797 400.848 48.1403C400.848 41.6008 395.76 36.2996 389.483 36.2996C383.207 36.2996 378.119 41.6008 378.119 48.1403C378.119 54.6797 383.207 59.981 389.483 59.981Z" fill="#E61B00"/>
<path d="M183.391 95.551L190.749 92.9915L188.223 89.7263L180.865 92.6207L183.391 95.551Z" fill="#E61B00"/>
<path d="M171.44 81.0671L178.809 78.5076L176.284 75.2305L168.926 78.1249L171.44 81.0671Z" fill="#E61B00"/>
<path d="M173.895 129.865H171.209V156.597H173.895V129.865Z" fill="#E61B00"/>
<path d="M228.387 2.91833H224.92V15.5724H228.387V2.91833Z" fill="#E61B00"/>
<path d="M171.05 77.7899L171.441 81.0671L159.617 83.4711V79.8591L171.05 77.7899Z" fill="#E61B00"/>
<path d="M395.121 36.1082L402.502 29.5061L403.88 30.6663L396.246 38.584L395.121 36.1082Z" fill="#E61B00"/>
<path d="M174.77 168.999C174.597 169.754 174.195 170.429 173.622 170.925C173.31 171.202 172.94 171.401 172.542 171.504C172.143 171.608 171.727 171.614 171.326 171.523C170.495 171.41 169.732 170.985 169.18 170.327C168.638 169.623 168.353 168.741 168.376 167.839C168.423 166.291 168.816 164.776 169.524 163.414C170.174 162.122 170.972 160.917 171.9 159.826L171.797 160.149C171.969 154.922 172.233 149.695 172.543 144.469C172.715 149.707 172.842 154.934 172.876 160.161V160.292L172.773 160.484C172.141 161.68 171.556 162.959 171.039 164.191C170.504 165.358 170.166 166.612 170.041 167.899C169.989 168.442 170.116 168.987 170.402 169.443C170.688 169.9 171.116 170.242 171.613 170.411C172.215 170.592 172.858 170.55 173.434 170.293C174.009 170.036 174.482 169.579 174.77 168.999Z" fill="#E61B00"/>
<path opacity="0.24" d="M174.893 173.329C176.586 173.329 177.958 171.899 177.958 170.136C177.958 168.372 176.586 166.942 174.893 166.942C173.2 166.942 171.828 168.372 171.828 170.136C171.828 171.899 173.2 173.329 174.893 173.329Z" fill="#E61B00"/>
<path d="M208.345 316.183C210.38 316.183 212.03 314.464 212.03 312.344C212.03 310.224 210.38 308.505 208.345 308.505C206.31 308.505 204.66 310.224 204.66 312.344C204.66 314.464 206.31 316.183 208.345 316.183Z" fill="url(#paint18_linear)"/>
<path d="M471.755 270.076C473.79 270.076 475.44 268.357 475.44 266.237C475.44 264.116 473.79 262.398 471.755 262.398C469.72 262.398 468.07 264.116 468.07 266.237C468.07 268.357 469.72 270.076 471.755 270.076Z" fill="url(#paint19_linear)"/>
<path d="M76.9797 340.056C79.0147 340.056 80.6644 338.337 80.6644 336.217C80.6644 334.096 79.0147 332.377 76.9797 332.377C74.9446 332.377 73.2949 334.096 73.2949 336.217C73.2949 338.337 74.9446 340.056 76.9797 340.056Z" fill="url(#paint20_linear)"/>
</g>
<defs>
<linearGradient id="paint0_linear" x1="493.415" y1="221.122" x2="485.951" y2="506.469" gradientUnits="userSpaceOnUse">
<stop stop-color="#010101" stop-opacity="0"/>
<stop offset="0.95" stop-color="#010101"/>
</linearGradient>
<linearGradient id="paint1_linear" x1="8578.08" y1="30773.1" x2="12316.8" y2="30743.2" gradientUnits="userSpaceOnUse">
<stop stop-color="#010101" stop-opacity="0"/>
<stop offset="0.95" stop-color="#010101"/>
</linearGradient>
<linearGradient id="paint2_linear" x1="39260" y1="10183.3" x2="47380.8" y2="10183.3" gradientUnits="userSpaceOnUse">
<stop stop-color="#010101" stop-opacity="0"/>
<stop offset="0.95" stop-color="#010101"/>
</linearGradient>
<linearGradient id="paint3_linear" x1="29162.2" y1="12531.2" x2="28950.9" y2="20023.5" gradientUnits="userSpaceOnUse">
<stop stop-color="#010101" stop-opacity="0"/>
<stop offset="0.95" stop-color="#010101"/>
</linearGradient>
<linearGradient id="paint4_linear" x1="41099" y1="18171.9" x2="105277" y2="18171.9" gradientUnits="userSpaceOnUse">
<stop stop-color="#010101" stop-opacity="0"/>
<stop offset="0.95" stop-color="#010101"/>
</linearGradient>
<linearGradient id="paint5_linear" x1="97083.3" y1="70006.4" x2="97730.5" y2="108577" gradientUnits="userSpaceOnUse">
<stop stop-color="#010101" stop-opacity="0"/>
<stop offset="0.95" stop-color="#010101"/>
</linearGradient>
<linearGradient id="paint6_linear" x1="105464" y1="6317.22" x2="105466" y2="8198.04" gradientUnits="userSpaceOnUse">
<stop stop-color="#010101" stop-opacity="0"/>
<stop offset="0.95" stop-color="#010101"/>
</linearGradient>
<linearGradient id="paint7_linear" x1="28620.9" y1="5382.71" x2="28648.1" y2="7144.74" gradientUnits="userSpaceOnUse">
<stop stop-color="#010101" stop-opacity="0"/>
<stop offset="0.95" stop-color="#010101"/>
</linearGradient>
<linearGradient id="paint8_linear" x1="837.326" y1="50910" x2="1465.57" y2="50911.5" gradientUnits="userSpaceOnUse">
<stop stop-color="#010101" stop-opacity="0"/>
<stop offset="0.95" stop-color="#010101"/>
</linearGradient>
<linearGradient id="paint9_linear" x1="9178.22" y1="50888.3" x2="9737.22" y2="50890.3" gradientUnits="userSpaceOnUse">
<stop stop-color="#010101" stop-opacity="0"/>
<stop offset="0.95" stop-color="#010101"/>
</linearGradient>
<linearGradient id="paint10_linear" x1="19918.3" y1="25199.4" x2="17347" y2="25129.1" gradientUnits="userSpaceOnUse">
<stop stop-color="#010101" stop-opacity="0"/>
<stop offset="0.95" stop-color="#010101"/>
</linearGradient>
<linearGradient id="paint11_linear" x1="31833.1" y1="3594.38" x2="31833.1" y2="3760.77" gradientUnits="userSpaceOnUse">
<stop stop-color="#010101" stop-opacity="0"/>
<stop offset="0.95" stop-color="#010101"/>
</linearGradient>
<linearGradient id="paint12_linear" x1="14618.5" y1="6041.22" x2="15458.8" y2="6041.22" gradientUnits="userSpaceOnUse">
<stop stop-color="white" stop-opacity="0"/>
<stop offset="0.95" stop-color="white"/>
</linearGradient>
<linearGradient id="paint13_linear" x1="1928.79" y1="25199.4" x2="-642.551" y2="25129.1" gradientUnits="userSpaceOnUse">
<stop stop-color="#010101" stop-opacity="0"/>
<stop offset="0.95" stop-color="#010101"/>
</linearGradient>
<linearGradient id="paint14_linear" x1="2800.48" y1="3594.38" x2="2800.48" y2="3760.77" gradientUnits="userSpaceOnUse">
<stop stop-color="#010101" stop-opacity="0"/>
<stop offset="0.95" stop-color="#010101"/>
</linearGradient>
<linearGradient id="paint15_linear" x1="906.392" y1="6041.22" x2="1746.32" y2="6041.22" gradientUnits="userSpaceOnUse">
<stop stop-color="white" stop-opacity="0"/>
<stop offset="0.95" stop-color="white"/>
</linearGradient>
<linearGradient id="paint16_linear" x1="4638.94" y1="578.004" x2="5088.97" y2="578.004" gradientUnits="userSpaceOnUse">
<stop stop-color="#010101" stop-opacity="0"/>
<stop offset="0.95" stop-color="#010101"/>
</linearGradient>
<linearGradient id="paint17_linear" x1="7783.24" y1="1024.8" x2="8233.26" y2="1024.8" gradientUnits="userSpaceOnUse">
<stop stop-color="#010101" stop-opacity="0"/>
<stop offset="0.95" stop-color="#010101"/>
</linearGradient>
<linearGradient id="paint18_linear" x1="1514.75" y1="2153.41" x2="1630.76" y2="2775.56" gradientUnits="userSpaceOnUse">
<stop stop-color="#010101" stop-opacity="0"/>
<stop offset="0.95" stop-color="#010101"/>
</linearGradient>
<linearGradient id="paint19_linear" x1="3469.15" y1="1811.31" x2="3585.17" y2="2433.46" gradientUnits="userSpaceOnUse">
<stop stop-color="#010101" stop-opacity="0"/>
<stop offset="0.95" stop-color="#010101"/>
</linearGradient>
<linearGradient id="paint20_linear" x1="539.933" y1="2330.51" x2="655.955" y2="2952.67" gradientUnits="userSpaceOnUse">
<stop stop-color="#010101" stop-opacity="0"/>
<stop offset="0.95" stop-color="#010101"/>
</linearGradient>
<clipPath id="clip0">
<rect width="581" height="410" fill="white"/>
</clipPath>
</defs>
</svg>
